<svg width="1440" height="901" viewBox="0 0 1440 901" fill="none" xmlns="http://www.w3.org/2000/svg">
<g clip-path="url(#clip0_205_4508)">
<path d="M830.874 1201.04C726.509 1204.35 498.249 1135.48 420.131 833.562C322.483 456.162 473.627 19.7565 274.346 35.2293C75.0658 50.7022 -71.765 29.3072 -1.0515 -121.987C69.662 -273.282 368.861 -431.213 132.882 -674.551" stroke="white" stroke-opacity="0.06" stroke-width="1.00069"/>
<path d="M860.632 1187.93C756.267 1191.23 528.007 1122.37 449.888 820.446C352.24 443.046 503.384 6.64024 304.104 22.1131C104.823 37.586 -42.0076 16.191 28.7058 -135.104C99.4193 -286.398 398.619 -444.329 162.639 -687.667" stroke="white" stroke-opacity="0.06" stroke-width="1.00069"/>
<path d="M896.34 1172.19C791.975 1175.49 563.715 1106.63 485.597 804.706C387.948 427.306 539.093 -9.09926 339.812 6.37362C140.532 21.8465 -6.29914 0.451486 64.4143 -150.843C135.128 -302.138 434.327 -460.069 198.347 -703.407" stroke="white" stroke-opacity="0.06" stroke-width="1.00069"/>
<path d="M932.049 1156.45C827.684 1159.75 599.424 1090.89 521.306 788.967C423.657 411.567 574.802 -24.8388 375.521 -9.36589C176.241 6.10699 29.4098 -15.288 100.123 -166.583C170.837 -317.877 470.036 -475.808 234.056 -719.146" stroke="white" stroke-opacity="0.06" stroke-width="1.00069"/>
<path d="M967.758 1140.71C863.393 1144.01 635.133 1075.15 557.014 773.227C459.366 395.827 610.51 -40.5783 411.23 -25.1054C211.949 -9.63251 65.1183 -31.0275 135.832 -182.322C206.545 -333.617 505.745 -491.548 269.765 -734.886" stroke="white" stroke-opacity="0.06" stroke-width="1.00069"/>
<path d="M1003.47 1124.97C899.101 1128.28 670.841 1059.41 592.723 757.488C495.074 380.088 646.219 -56.3178 446.938 -40.8449C247.658 -25.372 100.827 -46.767 171.54 -198.062C242.254 -349.356 541.453 -507.287 305.473 -750.625" stroke="white" stroke-opacity="0.06" stroke-width="1.00069"/>
<path d="M1039.18 1109.23C934.81 1112.54 706.55 1043.67 628.432 741.748C530.783 364.348 681.928 -72.0573 482.647 -56.5844C283.367 -41.1115 136.536 -62.5065 207.249 -213.801C277.963 -365.096 577.162 -523.027 341.182 -766.365" stroke="white" stroke-opacity="0.06" stroke-width="1.00069"/>
<path d="M1074.88 1093.49C970.519 1096.8 742.259 1027.93 664.141 726.009C566.492 348.609 717.637 -87.7968 518.356 -72.3239C319.076 -56.851 172.245 -78.246 242.958 -229.541C313.672 -380.835 612.871 -538.766 376.891 -782.104" stroke="white" stroke-opacity="0.06" stroke-width="1.00069"/>
<path d="M1110.59 1077.75C1006.23 1081.06 777.968 1012.19 699.849 710.269C602.201 332.869 753.345 -103.536 554.065 -88.0634C354.784 -72.5905 207.953 -93.9855 278.667 -245.28C349.38 -396.575 648.58 -554.506 412.6 -797.844" stroke="white" stroke-opacity="0.06" stroke-width="1.00069"/>
<path d="M1146.3 1062.01C1041.94 1065.32 813.676 996.449 735.558 694.53C637.909 317.13 789.054 -119.276 589.773 -103.803C390.493 -88.33 243.662 -109.725 314.375 -261.02C385.089 -412.314 684.288 -570.245 448.308 -813.583" stroke="white" stroke-opacity="0.06" stroke-width="1.00069"/>
<path d="M1182.01 1046.27C1077.64 1049.58 849.385 980.71 771.266 678.79C673.618 301.39 824.762 -135.015 625.482 -119.542C426.201 -104.07 279.37 -125.465 350.084 -276.759C420.797 -428.054 719.997 -585.985 484.017 -829.323" stroke="white" stroke-opacity="0.06" stroke-width="1.00069"/>
<path d="M1211.49 1033.93C1107.12 1037.23 878.864 968.365 800.745 666.446C703.097 289.046 854.241 -147.36 654.961 -131.887C455.68 -116.414 308.849 -137.809 379.563 -289.104C450.276 -440.398 749.476 -598.329 513.496 -841.667" stroke="white" stroke-opacity="0.08" stroke-width="1.00069"/>
<path d="M1241.25 1020.81C1136.88 1024.12 908.621 955.249 830.502 653.329C732.854 275.93 883.998 -160.476 684.718 -145.003C485.437 -129.53 338.607 -150.925 409.32 -302.22C480.034 -453.514 779.233 -611.446 543.253 -854.784" stroke="white" stroke-opacity="0.08" stroke-width="1.00069"/>
<path d="M1276.95 1005.07C1172.59 1008.38 944.33 939.51 866.211 637.59C768.563 260.19 919.707 -176.215 720.426 -160.743C521.146 -145.27 374.315 -166.665 445.029 -317.959C515.742 -469.254 814.941 -627.185 578.962 -870.523" stroke="white" stroke-opacity="0.08" stroke-width="1.00069"/>
<path d="M1312.66 989.331C1208.3 992.638 980.038 923.77 901.92 621.85C804.271 244.451 955.416 -191.955 756.135 -176.482C556.855 -161.009 410.024 -182.404 480.737 -333.699C551.451 -484.994 850.65 -642.925 614.67 -886.263" stroke="white" stroke-opacity="0.08" stroke-width="1.00069"/>
<path d="M1348.37 973.592C1244.01 976.898 1015.75 908.031 937.628 606.111C839.98 228.711 991.124 -207.695 791.844 -192.222C592.563 -176.749 445.733 -198.144 516.446 -349.439C587.16 -500.733 886.359 -658.664 650.379 -902.002" stroke="white" stroke-opacity="0.08" stroke-width="1.00069"/>
<path d="M1384.08 957.853C1279.72 961.159 1051.46 892.291 973.337 590.371C875.689 212.972 1026.83 -223.434 827.553 -207.961C628.272 -192.488 481.441 -213.883 552.155 -365.178C622.868 -516.473 922.068 -674.404 686.088 -917.742" stroke="white" stroke-opacity="0.08" stroke-width="1.00069"/>
<path d="M1419.79 942.113C1315.42 945.419 1087.16 876.552 1009.05 574.632C911.397 197.232 1062.54 -239.173 863.261 -223.701C663.981 -208.228 517.15 -229.623 587.863 -380.917C658.577 -532.212 957.776 -690.143 721.796 -933.481" stroke="white" stroke-opacity="0.08" stroke-width="1.00069"/>
<path d="M1455.5 926.374C1351.13 929.68 1122.87 860.812 1044.75 558.892C947.106 181.493 1098.25 -254.913 898.97 -239.44C699.69 -223.967 552.859 -245.362 623.572 -396.657C694.286 -547.952 993.485 -705.883 757.505 -949.221" stroke="white" stroke-opacity="0.08" stroke-width="1.00069"/>
<path d="M1491.21 910.634C1386.84 913.94 1158.58 845.073 1080.46 543.153C982.815 165.753 1133.96 -270.653 934.679 -255.18C735.398 -239.707 588.567 -261.102 659.281 -412.397C729.994 -563.691 1029.19 -721.622 793.214 -964.96" stroke="white" stroke-opacity="0.08" stroke-width="1.00069"/>
<path d="M1526.92 894.895C1422.55 898.201 1194.29 829.333 1116.17 527.413C1018.52 150.014 1169.67 -286.392 970.387 -270.919C771.107 -255.446 624.276 -276.841 694.99 -428.136C765.703 -579.431 1064.9 -737.362 828.923 -980.7" stroke="white" stroke-opacity="0.08" stroke-width="1.00069"/>
<path d="M1562.62 879.155C1458.26 882.461 1230 813.594 1151.88 511.674C1054.23 134.274 1205.38 -302.131 1006.1 -286.659C806.816 -271.186 659.985 -292.581 730.698 -443.875C801.412 -595.17 1100.61 -753.101 864.631 -996.439" stroke="white" stroke-opacity="0.08" stroke-width="1.00069"/>
<path d="M448.959 1369.16C344.594 1372.47 116.334 1303.6 38.2153 1001.68C-59.4329 624.279 91.7112 187.873 -107.569 203.346C-306.85 218.819 -453.68 197.424 -382.967 46.1293C-312.254 -105.165 -13.0541 -263.096 -249.034 -506.434" stroke="white" stroke-opacity="0.08" stroke-width="1.00069"/>
<path d="M478.716 1356.04C374.351 1359.35 146.091 1290.48 67.9727 988.562C-29.6756 611.162 121.469 174.757 -77.8119 190.23C-277.092 205.702 -423.923 184.307 -353.21 33.0128C-282.496 -118.282 16.7032 -276.213 -219.277 -519.551" stroke="white" stroke-opacity="0.08" stroke-width="1.00069"/>
<path d="M514.425 1340.3C410.06 1343.61 181.8 1274.74 103.681 972.823C6.03292 595.423 157.177 159.017 -42.1034 174.49C-241.384 189.963 -388.215 168.568 -317.501 17.2735C-246.788 -134.021 52.4117 -291.952 -183.568 -535.29" stroke="white" stroke-opacity="0.08" stroke-width="1.00069"/>
<path d="M550.134 1324.56C445.769 1327.87 217.509 1259 139.39 957.083C41.7419 579.683 192.886 143.278 -6.39444 158.751C-205.675 174.223 -352.506 152.828 -281.792 1.5338C-211.079 -149.761 88.1207 -307.692 -147.859 -551.03" stroke="white" stroke-opacity="0.08" stroke-width="1.00069"/>
<path d="M585.842 1308.82C481.477 1312.13 253.217 1243.26 175.099 941.344C77.4504 563.944 228.595 127.538 29.3141 143.011C-169.966 158.484 -316.797 137.089 -246.084 -14.2057C-175.37 -165.5 123.829 -323.431 -112.151 -566.769" stroke="white" stroke-opacity="0.08" stroke-width="1.00069"/>
<path d="M621.551 1293.09C517.186 1296.39 288.926 1227.52 210.807 925.604C113.159 548.204 264.303 111.799 65.0226 127.272C-134.258 142.744 -281.089 121.349 -210.375 -29.9452C-139.662 -181.24 159.538 -339.171 -76.4421 -582.509" stroke="white" stroke-opacity="0.08" stroke-width="1.00069"/>
<path d="M657.26 1277.35C552.895 1280.65 324.635 1211.78 246.516 909.865C148.868 532.465 300.012 96.0592 100.732 111.532C-98.5489 127.005 -245.38 105.61 -174.666 -45.6847C-103.953 -196.979 195.247 -354.91 -40.7332 -598.248" stroke="white" stroke-opacity="0.08" stroke-width="1.00069"/>
<path d="M692.968 1261.61C588.603 1264.91 360.343 1196.05 282.225 894.125C184.576 516.726 335.721 80.3199 136.44 95.7928C-62.8405 111.266 -209.671 89.8707 -138.958 -61.424C-68.2443 -212.719 230.955 -370.65 -5.02465 -613.988" stroke="white" stroke-opacity="0.08" stroke-width="1.00069"/>
<path d="M728.677 1245.87C624.312 1249.17 396.052 1180.31 317.934 878.386C220.285 500.986 371.43 64.5802 172.149 80.0531C-27.1315 95.5259 -173.962 74.1309 -103.249 -77.1637C-32.5353 -228.458 266.664 -386.389 30.6843 -629.727" stroke="white" stroke-opacity="0.08" stroke-width="1.00069"/>
<path d="M764.386 1230.13C660.021 1233.43 431.761 1164.57 353.642 862.646C255.994 485.246 407.138 48.8407 207.858 64.3136C8.57703 79.7864 -138.254 58.3914 -67.5403 -92.9032C3.1732 -244.198 302.373 -402.129 66.3928 -645.467" stroke="white" stroke-opacity="0.08" stroke-width="1.00069"/>
<path d="M800.094 1214.39C695.729 1217.69 467.469 1148.83 389.351 846.907C291.702 469.507 442.846 33.1012 243.566 48.5741C44.2855 64.0469 -102.545 42.6519 -31.8318 -108.643C38.8817 -259.937 338.081 -417.868 102.101 -661.206" stroke="white" stroke-opacity="0.08" stroke-width="1.00069"/>
</g>
<defs>
<clipPath id="clip0_205_4508">
<rect width="953" height="1440" fill="white" transform="translate(0 927) rotate(-90)"/>
</clipPath>
</defs>
</svg>
