<svg width="60" height="52" viewBox="0 0 60 52" fill="none" xmlns="http://www.w3.org/2000/svg">
<rect y="0.285706" width="60" height="51.4286" rx="19" fill="#F0F0F0"/>
<path d="M21.8528 12.3058C22.6028 12.346 22.6028 12.346 23.1028 12.5603C23.2266 13.5149 23.2266 13.5149 23.3528 14.4888C25.0853 14.4888 26.8178 14.4888 28.6028 14.4888C28.6853 13.8524 28.7678 13.216 28.8528 12.5603C29.5434 12.2643 30.0896 12.3051 30.8528 12.346C31.3528 12.7745 31.3528 12.7745 31.3528 14.4888C33.1678 14.4888 34.9828 14.4888 36.8528 14.4888C36.8528 13.9938 36.8528 13.4988 36.8528 12.9888C37.0178 12.7767 37.1828 12.5645 37.3528 12.346C38.2278 12.2656 38.2278 12.2656 39.1028 12.346C39.7102 13.1269 39.6433 13.5701 39.6028 14.4888C39.802 14.4814 40.0011 14.4739 40.2063 14.4662C42.1389 14.4239 43.2728 14.5195 44.7747 15.6272C45.9904 16.8382 46.2162 17.8409 46.2024 19.3806C46.2035 19.6474 46.2035 19.6474 46.2046 19.9197C46.2051 20.2935 46.2037 20.6674 46.2006 21.0413C46.1966 21.6151 46.2006 22.1885 46.2054 22.7623C46.2049 23.1261 46.2039 23.4899 46.2024 23.8538C46.2039 24.0257 46.2055 24.1975 46.207 24.3746C46.1999 24.8559 46.1999 24.8559 46.1028 25.6317C45.3528 26.0603 45.3528 26.0603 44.5716 25.9933C43.8528 25.846 43.8528 25.846 43.6028 25.6317C43.5691 25.1428 43.5519 24.6531 43.5413 24.1635C43.5331 23.8585 43.5247 23.5536 43.5164 23.2486C43.5046 22.7676 43.4935 22.2866 43.4836 21.8056C43.4736 21.3415 43.4607 20.8775 43.4475 20.4135C43.4413 20.1354 43.435 19.8574 43.4286 19.5709C43.3493 18.7371 43.1514 18.0668 42.8528 17.2745C41.7803 17.0624 40.7078 16.8503 39.6028 16.6317C39.6131 16.8659 39.6234 17.1002 39.6341 17.3415C39.6028 18.1317 39.6028 18.1317 39.1028 18.7745C38.2278 18.8549 38.2278 18.8549 37.3528 18.7745C36.8528 18.1317 36.8528 18.1317 36.8528 16.6317C35.0378 16.6317 33.2228 16.6317 31.3528 16.6317C31.3528 17.1974 31.3528 17.7631 31.3528 18.346C30.8528 18.7745 30.8528 18.7745 30.1028 18.8147C29.3528 18.7745 29.3528 18.7745 28.8528 18.5603C28.7291 17.6056 28.7291 17.6056 28.6028 16.6317C26.8703 16.6317 25.1378 16.6317 23.3528 16.6317C23.2703 17.2681 23.1878 17.9045 23.1028 18.5603C22.4122 18.8562 21.866 18.8154 21.1028 18.7745C20.6028 18.346 20.6028 18.346 20.554 17.9291C20.5703 17.4966 20.5865 17.0642 20.6028 16.6317C20.2017 16.6981 19.8006 16.7652 19.3997 16.8326C19.1764 16.8699 18.953 16.9072 18.7229 16.9456C18.0743 17.0554 18.0743 17.0554 17.3528 17.2745C16.8805 18.3365 16.7804 19.3218 16.7881 20.4553C16.7872 20.6162 16.7864 20.777 16.7855 20.9427C16.7833 21.47 16.7847 21.9972 16.7864 22.5245C16.7861 22.8935 16.7856 23.2625 16.785 23.6315C16.7842 24.4032 16.7853 25.1748 16.7876 25.9464C16.7905 26.9328 16.7888 27.9191 16.7858 28.9055C16.784 29.667 16.7846 30.4284 16.7859 31.1899C16.7862 31.5535 16.7858 31.9171 16.7847 32.2807C16.7834 32.7898 16.7853 33.2989 16.7881 33.808C16.7871 33.9566 16.7861 34.1051 16.7851 34.2582C16.7948 35.2323 16.9498 36.0763 17.3528 36.9888C18.6737 37.5178 20.0587 37.4864 21.4983 37.4986C21.7222 37.5022 21.946 37.5059 22.1767 37.5096C22.8864 37.5209 23.5961 37.5296 24.3059 37.5379C25.0202 37.5474 25.7344 37.5574 26.4486 37.5685C26.8918 37.5754 27.335 37.5811 27.7783 37.5857C29.2969 37.6077 29.2969 37.6077 29.8528 37.846C30.0905 38.5497 30.1281 38.8525 29.8528 39.5603C29.2624 39.8133 28.8998 39.8043 28.2412 39.8091C28.0109 39.8111 27.7805 39.8132 27.5432 39.8153C27.2934 39.8162 27.0437 39.8171 26.7864 39.8181C26.5299 39.8193 26.2733 39.8205 26.009 39.8218C25.4651 39.8238 24.9212 39.8252 24.3774 39.826C23.5472 39.8281 22.7171 39.8347 21.887 39.8415C21.3587 39.8429 20.8304 39.844 20.302 39.8449C19.9305 39.8488 19.9305 39.8488 19.5514 39.8529C17.8337 39.8481 16.7642 39.6195 15.4309 38.6362C14.2115 37.4214 13.9923 36.4217 14.0058 34.8786C14.0045 34.6924 14.0031 34.5062 14.0018 34.3143C13.9985 33.7013 14.0007 33.0884 14.0032 32.4754C14.0027 32.048 14.002 31.6205 14.001 31.193C13.9999 30.2981 14.0015 29.4033 14.005 28.5084C14.0093 27.3627 14.0069 26.2171 14.0024 25.0714C13.9996 24.189 14.0005 23.3067 14.0025 22.4243C14.003 22.0019 14.0023 21.5795 14.0006 21.1571C13.9987 20.5663 14.0016 19.9756 14.0058 19.3848C14.0043 19.2111 14.0027 19.0374 14.0012 18.8584C14.0186 17.5241 14.3974 16.6568 15.4309 15.6272C17.0956 14.3995 18.4841 14.4095 20.6028 14.4888C20.5925 14.2148 20.5822 13.9408 20.5716 13.6585C20.554 13.1914 20.554 13.1914 20.6028 12.7745C21.1028 12.346 21.1028 12.346 21.8528 12.3058Z" fill="#1D6362"/>
<path d="M43.2415 27.9386C44.7372 29.0062 45.4878 30.0501 46.1029 31.6317C46.2972 33.8845 46.0749 35.631 44.681 37.5781C42.895 39.0676 41.0316 39.8326 38.5248 39.8549C36.1246 39.8207 34.5584 39.2522 32.8011 37.8602C31.3274 36.4043 30.7679 34.7293 30.8001 32.8421C30.9708 31.0052 32.0035 29.2341 33.6302 28.0257C36.5663 26.238 40.2412 26.1612 43.2415 27.9386ZM34.6751 30.5619C33.8071 31.7275 33.3961 32.8052 33.6029 34.2031C34.1368 35.6258 35.0818 36.4666 36.5677 37.2266C37.7656 37.6537 39.1997 37.5748 40.433 37.2776C41.6953 36.7983 42.4504 36.0948 43.1029 35.0603C43.5404 33.9353 43.6372 32.671 43.1175 31.5547C42.2774 30.3537 41.2079 29.4442 39.6029 29.0603C37.7311 28.8699 35.9375 29.2922 34.6751 30.5619Z" fill="#ED6F2D"/>
<path d="M37.2026 30.9888C37.7884 31.0436 38.3722 31.1158 38.9526 31.2031C39.3222 31.8367 39.2177 32.4336 39.2026 33.1317C39.445 33.1582 39.6873 33.1847 39.937 33.212C40.1897 33.2562 40.4423 33.3004 40.7026 33.346C41.0479 33.9379 41.0003 34.4061 40.9526 35.0603C40.2594 35.6545 39.8095 35.56 38.8433 35.5692C38.5548 35.5753 38.2664 35.5813 37.9692 35.5876C37.2026 35.4888 37.2026 35.4888 36.731 35.1423C36.3698 34.4797 36.353 33.9688 36.3589 33.2388C36.357 32.998 36.355 32.7571 36.353 32.5089C36.4596 31.7995 36.6434 31.5062 37.2026 30.9888Z" fill="#1D6362"/>
<path d="M38.8528 22.4174C39.3059 22.6718 39.3059 22.6718 39.6028 23.0602C39.7112 23.6794 39.7091 23.9926 39.3059 24.5201C38.6905 24.8657 38.3251 24.8674 37.6028 24.7745C37.1497 24.5201 37.1497 24.5201 36.8528 24.1317C36.7444 23.5125 36.7465 23.1993 37.1497 22.6718C37.7651 22.3263 38.1305 22.3245 38.8528 22.4174Z" fill="#1D6362"/>
<path d="M32.103 22.4174C33.0093 22.4977 33.0093 22.4977 33.853 22.6317C34.1864 24.0086 34.1864 24.0086 33.8218 24.5469C33.1871 24.8551 32.8211 24.8822 32.103 24.7745C31.6343 24.4129 31.6343 24.4129 31.353 23.9174C31.4132 23.1952 31.5 22.9343 32.103 22.4174Z" fill="#1D6362"/>
<path d="M22.6032 22.4174C23.072 22.779 23.072 22.779 23.3532 23.2745C23.293 23.9968 23.2062 24.2577 22.6032 24.7745C21.697 24.6942 21.697 24.6942 20.8532 24.5603C20.5198 23.1834 20.5198 23.1834 20.8845 22.6451C21.5191 22.3368 21.8852 22.3097 22.6032 22.4174Z" fill="#1D6362"/>
<path d="M21.8374 27.0513C22.603 27.1317 22.603 27.1317 23.0874 27.4933C23.4255 28.1239 23.3807 28.4142 23.103 29.0603C22.353 29.4888 22.353 29.4888 21.7124 29.4353C21.103 29.2745 21.103 29.2745 20.603 28.846C20.5405 28.2031 20.5405 28.2031 20.603 27.5603C21.103 27.1317 21.103 27.1317 21.8374 27.0513Z" fill="#1D6362"/>
<path d="M27.6343 22.4844C28.353 22.6317 28.353 22.6317 28.603 22.846C28.6655 23.5826 28.6655 23.5826 28.603 24.346C27.853 24.7746 27.853 24.7746 27.0718 24.7076C26.353 24.5603 26.353 24.5603 26.103 24.346C26.0405 23.6094 26.0405 23.6094 26.103 22.846C26.853 22.4174 26.853 22.4174 27.6343 22.4844Z" fill="#1D6362"/>
<path d="M21.853 31.8058C22.603 31.846 22.603 31.846 23.103 32.0603C23.3407 32.764 23.3783 33.0667 23.103 33.7745C22.4124 34.0705 21.8662 34.0297 21.103 33.9888C20.603 33.5603 20.603 33.5603 20.5405 32.9174C20.6266 32.0325 20.8169 31.8613 21.853 31.8058Z" fill="#1D6362"/>
<path d="M27.353 27.0781C28.103 27.1317 28.103 27.1317 28.603 27.5603C28.6864 28.7031 28.6864 28.7031 28.353 29.2746C27.532 29.4783 27.1788 29.5105 26.353 29.2746C26.0077 28.6826 26.0553 28.2144 26.103 27.5603C26.603 27.1317 26.603 27.1317 27.353 27.0781Z" fill="#1D6362"/>
<path d="M27.353 31.7924C28.103 31.846 28.103 31.846 28.603 32.2745C28.6655 32.9174 28.6655 32.9174 28.603 33.5602C28.103 33.9888 28.103 33.9888 27.353 34.0424C26.603 33.9888 26.603 33.9888 26.103 33.5602C26.0405 32.9174 26.0405 32.9174 26.103 32.2745C26.603 31.846 26.603 31.846 27.353 31.7924Z" fill="#1D6362"/>
</svg>
