<svg width="60" height="60" viewBox="0 0 60 60" fill="none" xmlns="http://www.w3.org/2000/svg">
<rect width="60" height="60" rx="19" fill="#F0F0F0"/>
<path d="M30.8573 25.2298C32.4327 25.4295 33.3045 26.3525 34.3573 27.4798C35.8728 29.5175 36.3037 31.8063 35.9881 34.2992C35.5616 36.5176 34.6056 37.9669 33.026 39.5553C32.508 40.0805 32.0008 40.6156 31.492 41.1497C31.0777 41.5779 30.663 42.0056 30.2479 42.433C29.953 42.7423 29.953 42.7423 29.6521 43.0579C27.598 45.1396 25.5266 46.282 22.576 46.308C20.878 46.3112 19.5597 46.1813 18.1073 45.2298C17.9339 45.1238 17.7605 45.0178 17.5819 44.9085C15.8059 43.7146 14.6562 42.0458 14.1073 39.9798C13.8828 37.3383 13.8698 34.8958 15.5077 32.6908C16.0955 32.0069 16.722 31.369 17.3573 30.7298C17.7525 30.3252 18.1477 29.9206 18.5428 29.516C18.9754 29.0764 19.4083 28.6373 19.8416 28.1986C20.055 27.9819 20.2684 27.7652 20.4882 27.5419C20.6896 27.3403 20.891 27.1387 21.0985 26.931C21.2805 26.7479 21.4626 26.5648 21.6502 26.3762C22.1073 25.9798 22.1073 25.9798 22.6073 25.9798C23.0569 27.6205 23.4772 29.2871 23.1073 30.9798C22.1674 32.5256 20.7236 33.6733 19.3121 34.7771C18.4394 35.6457 18.2806 36.6289 18.2635 37.8236C18.2947 39.1881 18.5049 39.909 19.3573 40.9798C20.325 41.7461 21.369 42.2051 22.6073 42.2298C23.869 42.0062 24.8402 41.5649 25.7918 40.7054C25.9643 40.5497 26.1367 40.394 26.3143 40.2336C27.2412 39.3737 28.1576 38.5057 29.0604 37.6205C29.2478 37.4424 29.4352 37.2643 29.6283 37.0809C30.9313 35.7988 31.7131 34.7283 31.9286 32.8626C31.7797 31.5046 31.3384 30.6981 30.451 29.6615C29.8038 28.8487 29.7765 27.9949 29.7821 26.9818C29.8983 26.2062 30.3162 25.7709 30.8573 25.2298Z" fill="#1D6362"/>
<path d="M42.1071 15.2298C42.2805 15.3359 42.4538 15.4419 42.6325 15.5511C44.4084 16.7451 45.5582 18.4139 46.1071 20.4798C46.3316 23.1213 46.3445 25.5638 44.7067 27.7689C44.1188 28.4528 43.4924 29.0907 42.8571 29.7298C42.4619 30.1344 42.0667 30.539 41.6715 30.9437C41.239 31.3832 40.806 31.8223 40.3727 32.2611C40.1594 32.4778 39.946 32.6945 39.7262 32.9178C39.5248 33.1193 39.3234 33.3209 39.1159 33.5287C38.9338 33.7117 38.7518 33.8948 38.5642 34.0835C38.1071 34.4798 38.1071 34.4798 37.6071 34.4798C37.5919 34.2655 37.5768 34.0512 37.5612 33.8304C37.5402 33.5446 37.5193 33.2587 37.4977 32.9642C37.4774 32.6829 37.4571 32.4015 37.4362 32.1117C37.3858 31.2228 37.3858 31.2228 37.1022 30.3724C37.1079 29.3298 37.2385 29.213 37.9313 28.4867C38.2976 28.1406 38.6689 27.8 39.0446 27.4642C41.0332 25.7123 41.0332 25.7123 41.9655 23.2933C41.9678 21.7128 41.854 20.7324 40.8571 19.4798C39.8879 18.7125 38.8464 18.2541 37.6071 18.2298C35.3117 18.4987 33.9298 19.8936 32.3962 21.4763C31.9979 21.8858 31.5917 22.286 31.1837 22.6859C29.6214 24.2479 28.3954 25.6217 28.3405 27.9261C28.5934 29.0693 28.8819 29.8399 29.6383 30.7454C30.3857 31.6503 30.5529 32.2994 30.4762 33.4662C30.2991 34.23 29.9119 34.6924 29.3571 35.2298C27.7825 35.0275 26.8952 34.1254 25.8571 32.9798C24.3068 30.6488 23.8377 28.2163 24.3571 25.4798C24.8401 23.5652 25.8115 22.2883 27.1873 20.9044C27.7075 20.3782 28.2186 19.8436 28.7311 19.3099C29.1477 18.8818 29.5647 18.454 29.9821 18.0267C30.1808 17.8205 30.3795 17.6142 30.5842 17.4018C33.5517 14.4068 38.2359 12.6938 42.1071 15.2298Z" fill="#ED6F2D"/>
<path d="M39.4529 38.391C40.2932 38.5051 40.5284 38.7661 41.0759 39.4017C41.23 39.5728 41.384 39.7439 41.5427 39.9203C41.8572 40.4798 41.8572 40.4798 41.781 41.1722C41.7236 41.3562 41.6663 41.5402 41.6072 41.7298C41.0496 41.9037 41.0496 41.9037 40.3572 41.9798C39.7976 41.6654 39.7976 41.6654 39.2791 41.1986C39.1047 41.0484 38.9304 40.8982 38.7507 40.7435C38.3572 40.2298 38.3572 40.2298 38.2683 39.5755C38.3919 38.7468 38.6241 38.5146 39.4529 38.391Z" fill="#878787"/>
<path d="M19.6697 18.4955C20.6452 18.828 21.2582 19.3964 21.8572 20.2298C21.9822 20.9173 21.9822 20.9173 21.8572 21.4798C21.3572 21.9798 21.3572 21.9798 20.7615 22.0687C19.9212 21.9546 19.686 21.6936 19.1385 21.058C18.9844 20.8868 18.8304 20.7157 18.6717 20.5394C18.3572 19.9798 18.3572 19.9798 18.4021 19.3031C18.6742 18.5424 18.8752 18.4734 19.6697 18.4955Z" fill="#878787"/>
<path d="M33.864 41.766C34.3572 41.9798 34.3572 41.9798 34.6277 42.4525C35.2449 44.446 35.2449 44.446 34.8572 45.4798C34.6072 45.7298 34.6072 45.7298 33.9666 45.7455C33.7655 45.7403 33.5644 45.7352 33.3572 45.7298C32.7454 44.6393 32.4815 43.7231 32.3572 42.4798C33.209 41.7193 33.209 41.7193 33.864 41.766Z" fill="#878787"/>
<path d="M26.2167 14.683C26.8573 14.7298 26.8573 14.7298 27.3573 15.2298C27.5331 15.8626 27.5331 15.8626 27.6698 16.6048C27.7175 16.8497 27.7652 17.0947 27.8143 17.347C27.8285 17.5558 27.8427 17.7647 27.8573 17.9798C27.3573 18.4798 27.3573 18.4798 26.576 18.5111C26.3388 18.5008 26.1016 18.4905 25.8573 18.4798C24.9384 16.0969 24.9384 16.0969 25.3573 14.9798C25.6073 14.7298 25.6073 14.7298 26.2167 14.683Z" fill="#878787"/>
<path d="M42.3572 32.4798C42.99 32.5228 42.99 32.5228 43.7322 32.6673C44.0996 32.735 44.0996 32.735 44.4744 32.804C45.1072 32.9798 45.1072 32.9798 45.6072 33.4798C45.6697 34.1048 45.6697 34.1048 45.6072 34.7298C45.4422 34.8948 45.2772 35.0598 45.1072 35.2298C43.8616 35.1686 42.8285 35.0797 41.8572 34.2298C41.7478 33.5892 41.7478 33.5892 41.8572 32.9798C42.0222 32.8148 42.1872 32.6498 42.3572 32.4798Z" fill="#878787"/>
<path d="M15.1072 25.2298C16.2497 25.3047 17.349 25.3994 18.3572 25.9798C18.6228 26.4486 18.6228 26.4486 18.6072 26.9798C18.2634 27.5736 18.2634 27.5736 17.6072 27.9798C16.4612 27.9138 15.5592 27.6145 14.6072 26.9798C14.5291 26.3548 14.5291 26.3548 14.6072 25.7298C14.7722 25.5648 14.9372 25.3998 15.1072 25.2298Z" fill="#878787"/>
</svg>
