<svg width="60" height="60" viewBox="0 0 60 60" fill="none" xmlns="http://www.w3.org/2000/svg">
<rect width="60" height="60" rx="19" fill="#F0F0F0"/>
<path d="M18.0857 15.0621C18.5212 15.0688 18.5212 15.0688 18.9655 15.0757C19.1856 15.0815 19.4058 15.0873 19.6325 15.0933C19.715 15.5058 19.7975 15.9183 19.8825 16.3433C19.6415 16.3498 19.4004 16.3562 19.1521 16.3628C18.8362 16.377 18.5204 16.3912 18.195 16.4058C17.7252 16.4232 17.7252 16.4232 17.2458 16.441C16.2338 16.6196 15.992 16.7825 15.3825 17.5933C15.2325 18.4467 15.2325 18.4467 15.2585 19.4058C15.2581 19.5796 15.2578 19.7534 15.2574 19.9324C15.2578 20.2989 15.2607 20.6654 15.2659 21.0318C15.2731 21.5916 15.271 22.1507 15.2678 22.7105C15.2693 23.0673 15.2714 23.424 15.2741 23.7808C15.2766 24.1044 15.279 24.4279 15.2815 24.7613C15.3913 25.6658 15.4967 25.9604 16.1325 26.5933C16.8012 26.7479 16.8012 26.7479 17.5717 26.7298C18.0146 26.7372 18.0146 26.7372 18.4664 26.7447C18.7851 26.745 19.1039 26.7453 19.4323 26.7457C19.9218 26.7519 19.9218 26.7519 20.4212 26.7582C21.288 26.7691 22.1547 26.7741 23.0216 26.7779C23.9064 26.7828 24.7912 26.7933 25.676 26.8033C27.4115 26.8221 29.147 26.8347 30.8825 26.8433C30.8778 26.6883 30.8731 26.5333 30.8683 26.3736C30.8628 26.0691 30.8628 26.0691 30.8571 25.7584C30.8524 25.557 30.8477 25.3556 30.8429 25.1481C30.8825 24.5933 30.8825 24.5933 31.2888 23.9527C32.0639 23.4835 32.4907 23.4447 33.3825 23.5933C33.9763 23.9527 33.9763 23.9527 34.3825 24.5933C34.4222 25.1481 34.4222 25.1481 34.4079 25.7584C34.4043 25.9614 34.4006 26.1644 34.3968 26.3736C34.3921 26.5286 34.3874 26.6836 34.3825 26.8433C35.7575 26.8323 37.1322 26.8148 38.507 26.7914C38.9747 26.7844 39.4425 26.7791 39.9103 26.7756C40.5825 26.7702 41.2544 26.7586 41.9265 26.7457C42.1359 26.7454 42.3453 26.745 42.561 26.7447C43.6808 26.7208 43.6808 26.7208 44.6386 26.1971C44.9729 25.3695 44.9842 24.6732 44.9909 23.7808C44.9922 23.607 44.9936 23.4333 44.9949 23.2542C44.9965 22.8878 44.9962 22.5213 44.994 22.1548C44.9919 21.595 44.9991 21.0359 45.007 20.4761C45.0074 20.1194 45.0073 19.7626 45.0066 19.4058C45.007 19.0823 45.0075 18.7587 45.008 18.4253C44.945 17.6011 44.945 17.6011 44.5137 17.0498C43.5851 16.3782 42.7779 16.4502 41.6577 16.4568C41.321 16.453 41.321 16.453 40.9774 16.449C40.2361 16.4416 39.495 16.4413 38.7536 16.441C38.2394 16.4372 37.7252 16.433 37.2109 16.4284C35.8579 16.4175 34.505 16.4125 33.1519 16.4088C31.7711 16.4039 30.3903 16.3934 29.0095 16.3834C26.3005 16.3645 23.5916 16.352 20.8825 16.3433C20.965 15.9308 21.0475 15.5183 21.1325 15.0933C24.0729 15.0759 27.0132 15.0626 29.9535 15.0545C31.3189 15.0505 32.6842 15.0452 34.0495 15.0367C35.3674 15.0286 36.6852 15.0241 38.0031 15.0222C38.5056 15.0208 39.0082 15.0181 39.5107 15.014C40.2152 15.0086 40.9194 15.0078 41.6239 15.0082C41.9349 15.0041 41.9349 15.0041 42.2522 15C43.6873 15.0076 44.741 15.2675 45.844 16.2575C46.277 17.1365 46.2495 18.0067 46.2497 18.9664C46.2516 19.1723 46.2535 19.3781 46.2555 19.5903C46.2582 20.0252 46.2589 20.4602 46.2578 20.8952C46.2575 21.5582 46.2679 22.2205 46.279 22.8834C46.2803 23.3069 46.281 23.7304 46.281 24.1539C46.2851 24.3508 46.2892 24.5477 46.2934 24.7506C46.2808 25.7638 46.1848 26.4074 45.5451 27.2145C44.4377 28.2654 43.3714 28.1266 41.9265 28.1177C41.7111 28.1174 41.4958 28.117 41.2739 28.1167C40.5861 28.1153 39.8984 28.1121 39.2107 28.1089C38.7444 28.1077 38.278 28.1065 37.8117 28.1055C36.6687 28.1028 35.5256 28.0985 34.3825 28.0933C34.3825 28.6708 34.3825 29.2483 34.3825 29.8433C34.6661 29.8794 34.9497 29.9155 35.2419 29.9527C36.1325 30.0933 36.1325 30.0933 36.3825 30.3433C36.7555 30.4351 37.131 30.5171 37.5075 30.5933C38.6048 30.8155 38.6048 30.8155 38.8825 31.0933C39.1146 31.0727 39.3466 31.0521 39.5857 31.0308C40.3825 31.0933 40.3825 31.0933 40.9255 31.523C41.6441 32.8128 41.5169 34.0804 41.4919 35.5308C41.4937 35.8163 41.4955 36.1019 41.4973 36.396C41.4844 38.1209 41.2751 39.4911 40.6325 41.0933C40.22 41.0933 39.8075 41.0933 39.3825 41.0933C39.504 40.3126 39.6322 39.5944 39.8825 38.8433C39.9032 38.3635 39.9094 37.8831 39.9069 37.4029C39.9061 37.1233 39.9053 36.8438 39.9045 36.5557C39.9024 36.2639 39.9003 35.9721 39.8982 35.6714C39.897 35.3767 39.8959 35.082 39.8947 34.7784C39.8918 34.05 39.8877 33.3217 39.8825 32.5933C39.5113 32.4696 39.5113 32.4696 39.1325 32.3433C39.05 32.7558 38.9675 33.1683 38.8825 33.5933C38.4138 33.5621 38.4138 33.5621 37.8825 33.3433C37.57 32.5777 37.57 32.5777 37.3825 31.8433C36.7931 32.0667 36.7931 32.0667 36.6013 32.8589C36.5291 33.1013 36.4569 33.3436 36.3825 33.5933C36.0113 33.4696 36.0113 33.4696 35.6325 33.3433C35.5088 32.2296 35.5088 32.2296 35.3825 31.0933C35.0113 31.2171 35.0113 31.2171 34.6325 31.3433C34.55 32.0033 34.4675 32.6633 34.3825 33.3433C33.97 33.2608 33.5575 33.1783 33.1325 33.0933C33.05 30.4533 32.9675 27.8133 32.8825 25.0933C32.7175 25.0933 32.5525 25.0933 32.3825 25.0933C32.3802 25.3999 32.3779 25.7065 32.3755 26.0223C32.3655 27.1588 32.3491 28.2951 32.3307 29.4314C32.3236 29.9234 32.3183 30.4154 32.3148 30.9075C32.3094 31.6144 32.2978 32.321 32.2849 33.0279C32.2846 33.2482 32.2843 33.4686 32.2839 33.6956C32.2475 35.2127 32.2475 35.2127 31.67 35.8688C31.1325 36.0933 31.1325 36.0933 30.3806 36.0015C29.4059 35.4696 29.0904 34.7914 28.6638 33.8121C28.5871 33.6474 28.5104 33.4827 28.4314 33.313C28.2438 32.9086 28.0625 32.5012 27.8825 32.0933C27.7175 32.0933 27.5525 32.0933 27.3825 32.0933C27.6415 33.6925 28.3688 35.084 29.0388 36.5464C29.1661 36.8341 29.2934 37.1217 29.4245 37.418C30.3449 39.4305 31.2857 41.2051 33.2419 42.3433C35.0487 42.8505 36.0834 42.7072 37.6745 41.816C38.2621 41.5303 38.7392 41.5129 39.3825 41.5933C39.3825 41.9233 39.3825 42.2533 39.3825 42.5933C37.537 43.8013 35.8268 44.3736 33.6169 43.9527C31.1983 43.2051 30.0471 41.7415 28.8825 39.5933C28.3209 38.5055 27.7922 37.4051 27.2732 36.2964C27.1347 36.0124 26.9963 35.7283 26.8537 35.4356C25.6332 32.8289 25.6332 32.8289 26.1325 31.3433C26.5388 30.8433 26.5388 30.8433 27.1325 30.5933C27.9831 30.6002 27.9831 30.6002 28.8825 30.8433C29.3227 31.4279 29.5752 31.8365 29.8669 32.4839C30.2459 33.2806 30.2459 33.2806 30.6325 34.0933C30.715 32.1133 30.7975 30.1333 30.8825 28.0933C30.2221 28.0992 30.2221 28.0992 29.5484 28.1052C28.0915 28.1173 26.6347 28.1259 25.1778 28.1322C24.2948 28.1361 23.4117 28.1414 22.5287 28.1499C21.5129 28.1596 20.4971 28.1632 19.4812 28.1666C19.0069 28.1724 19.0069 28.1724 18.523 28.1783C18.2278 28.1783 17.9326 28.1784 17.6284 28.1785C17.3692 28.1801 17.1099 28.1818 16.8428 28.1835C15.8268 28.0545 15.1774 27.6166 14.4362 26.9297C13.981 26.0506 14.0206 25.179 14.0241 24.2115C14.0228 24.005 14.0215 23.7985 14.0202 23.5858C14.0186 23.1498 14.0189 22.7137 14.021 22.2777C14.0231 21.612 14.016 20.9469 14.008 20.2813C14.0076 19.857 14.0078 19.4327 14.0085 19.0084C14.0057 18.8101 14.0029 18.6119 14 18.4077C14.0123 17.4268 14.0635 16.9516 14.604 16.1034C15.669 15.0756 16.6464 15.033 18.0857 15.0621Z" fill="#1D6362"/>
<path d="M19.8823 18.3433C20.4663 18.3814 20.4663 18.3814 21.1323 18.5933C21.5015 19.2037 21.5015 19.2037 21.7886 19.9839C21.8907 20.2553 21.9929 20.5266 22.0981 20.8062C22.1919 21.066 22.2857 21.3257 22.3823 21.5933C22.4632 21.7912 22.5441 21.9891 22.6274 22.1929C22.9994 23.1045 23.2249 23.8555 23.1323 24.8433C22.8023 24.8433 22.4723 24.8433 22.1323 24.8433C22.0763 24.6822 22.0202 24.5211 21.9624 24.355C21.6751 23.7824 21.6751 23.7824 21.0366 23.691C20.6973 23.6736 20.6973 23.6736 20.3511 23.6558C20.1236 23.6416 19.896 23.6275 19.6616 23.6129C19.3996 23.6032 19.3996 23.6032 19.1323 23.5933C19.0498 24.0058 18.9673 24.4183 18.8823 24.8433C18.5523 24.8433 18.2223 24.8433 17.8823 24.8433C18.0122 23.2487 18.4164 21.9432 19.0229 20.4683C19.1053 20.2627 19.1876 20.0571 19.2725 19.8453C19.4736 19.3438 19.6777 18.8434 19.8823 18.3433ZM20.3823 20.3433C20.2173 21.0033 20.0523 21.6633 19.8823 22.3433C20.2948 22.3433 20.7073 22.3433 21.1323 22.3433C20.9673 21.6833 20.8023 21.0233 20.6323 20.3433C20.5498 20.3433 20.4673 20.3433 20.3823 20.3433Z" fill="#ED6F2D"/>
<path d="M30.9449 18.2496C31.9568 18.2614 32.3078 18.2951 33.1793 18.8589C33.7456 19.7768 33.7868 20.2817 33.6324 21.3433C33.398 21.9371 33.398 21.9371 32.8824 22.3433C32.1239 22.502 31.4107 22.5482 30.6324 22.5933C30.6324 23.3358 30.6324 24.0783 30.6324 24.8433C30.2199 24.7608 29.8074 24.6783 29.3824 24.5933C29.3752 23.5985 29.3707 22.6038 29.3668 21.6089C29.3647 21.3249 29.3626 21.0408 29.3604 20.7481C29.3596 20.4782 29.3588 20.2083 29.358 19.9302C29.3567 19.6802 29.3554 19.4301 29.354 19.1725C29.4066 18.0996 29.9972 18.2825 30.9449 18.2496ZM30.6324 19.5933C30.6324 20.1708 30.6324 20.7483 30.6324 21.3433C31.4986 21.2196 31.4986 21.2196 32.3824 21.0933C32.3931 20.6768 32.3925 20.2599 32.3824 19.8433C32.101 19.5043 32.101 19.5043 31.3668 19.5777C31.1244 19.5829 30.8821 19.588 30.6324 19.5933Z" fill="#ED6F2D"/>
<path d="M25.6949 18.2496C26.7068 18.2614 27.0578 18.2951 27.9293 18.8589C28.4956 19.7768 28.5368 20.2817 28.3824 21.3433C28.148 21.9371 28.148 21.9371 27.6324 22.3433C26.8739 22.502 26.1607 22.5482 25.3824 22.5933C25.3824 23.3358 25.3824 24.0783 25.3824 24.8433C24.9699 24.7608 24.5574 24.6783 24.1324 24.5933C24.1252 23.5985 24.1207 22.6038 24.1168 21.6089C24.1147 21.3249 24.1126 21.0408 24.1104 20.7481C24.1096 20.4782 24.1088 20.2083 24.108 19.9302C24.1067 19.6802 24.1054 19.4301 24.104 19.1725C24.1566 18.0996 24.7472 18.2825 25.6949 18.2496ZM25.3824 19.5933C25.3824 20.1708 25.3824 20.7483 25.3824 21.3433C25.8774 21.3433 26.3724 21.3433 26.8824 21.3433C27.0474 21.0133 27.2124 20.6833 27.3824 20.3433C27.2174 20.0958 27.0524 19.8483 26.8824 19.5933C26.1115 19.5308 26.1115 19.5308 25.3824 19.5933Z" fill="#ED6F2D"/>
<path d="M38.1324 18.3433C38.5699 18.3746 38.5699 18.3746 39.1324 18.5933C39.6949 19.3589 39.6949 19.3589 40.1324 20.0933C40.211 19.967 40.2896 19.8407 40.3707 19.7105C40.5312 19.4669 40.5312 19.4669 40.6949 19.2183C40.7993 19.0559 40.9037 18.8935 41.0113 18.7261C41.1337 18.5998 41.2562 18.4735 41.3824 18.3433C41.7124 18.3433 42.0424 18.3433 42.3824 18.3433C42.5308 19.2931 42.3142 19.739 41.773 20.4839C40.9061 21.7598 40.91 23.0888 40.8824 24.5933C40.4699 24.6758 40.0574 24.7583 39.6324 24.8433C39.6317 24.6348 39.6311 24.4263 39.6304 24.2115C39.5676 22.382 39.3608 21.2396 38.1773 19.8189C37.8824 19.3433 37.8824 19.3433 37.9625 18.7818C38.0466 18.5648 38.0466 18.5648 38.1324 18.3433Z" fill="#ED6F2D"/>
<path d="M34.8823 18.3433C35.3773 18.4671 35.3773 18.4671 35.8823 18.5933C35.8823 20.3258 35.8823 22.0583 35.8823 23.8433C36.4598 23.8433 37.0373 23.8433 37.6323 23.8433C37.6323 24.1733 37.6323 24.5033 37.6323 24.8433C37.1792 24.85 36.7261 24.8549 36.2729 24.8589C36.0206 24.8618 35.7683 24.8647 35.5083 24.8677C34.8823 24.8433 34.8823 24.8433 34.6323 24.5933C34.6075 24.1512 34.5996 23.708 34.5991 23.2652C34.5988 22.9964 34.5985 22.7277 34.5981 22.4507C34.5996 22.0263 34.5996 22.0263 34.6011 21.5933C34.6001 21.3104 34.5991 21.0274 34.5981 20.7359C34.5985 20.4671 34.5988 20.1984 34.5991 19.9214C34.5994 19.673 34.5997 19.4245 34.6 19.1685C34.6323 18.5933 34.6323 18.5933 34.8823 18.3433Z" fill="#ED6F2D"/>
</svg>
