<svg width="60" height="60" viewBox="0 0 60 60" fill="none" xmlns="http://www.w3.org/2000/svg">
<rect width="60" height="60" rx="19" fill="#F0F0F0"/>
<path d="M16.3895 14.0101C16.6419 14.0073 16.8942 14.0045 17.1542 14.0016C17.4296 14.0036 17.705 14.0056 17.9887 14.0077C18.2798 14.0059 18.5709 14.0042 18.8709 14.0024C19.8347 13.998 20.7983 14.0009 21.7621 14.0043C22.4309 14.0036 23.0997 14.0026 23.7684 14.0014C25.1706 13.9996 26.5728 14.002 27.975 14.0067C29.5956 14.0122 31.2162 14.0104 32.8368 14.0049C34.2288 14.0004 35.6207 13.9997 37.0127 14.0023C37.8438 14.0039 38.6749 14.0037 39.506 14.0008C40.4326 13.9983 41.359 14.0021 42.2855 14.0077C42.5609 14.0057 42.8362 14.0036 43.1199 14.0016C43.4985 14.0058 43.4985 14.0058 43.8846 14.0101C44.1037 14.0105 44.3227 14.0109 44.5483 14.0112C45.352 14.183 45.6467 14.4861 46.1371 15.1371C46.2629 15.7259 46.2629 15.7259 46.2641 16.3895C46.2669 16.6419 46.2697 16.8942 46.2726 17.1542C46.2706 17.4296 46.2686 17.705 46.2665 17.9887C46.2682 18.2798 46.27 18.5709 46.2718 18.8709C46.2762 19.8347 46.2733 20.7983 46.2699 21.7621C46.2706 22.4309 46.2715 23.0997 46.2728 23.7684C46.2746 25.1706 46.2722 26.5728 46.2675 27.975C46.262 29.5956 46.2638 31.2162 46.2693 32.8368C46.2738 34.2288 46.2745 35.6207 46.2718 37.0127C46.2703 37.8438 46.2705 38.6749 46.2734 39.506C46.2759 40.4326 46.2721 41.359 46.2665 42.2855C46.2685 42.5609 46.2705 42.8362 46.2726 43.1199C46.2698 43.3723 46.267 43.6246 46.2641 43.8846C46.2637 44.1037 46.2633 44.3227 46.2629 44.5483C46.0912 45.352 45.7881 45.6467 45.1371 46.1371C44.5483 46.2629 44.5483 46.2629 43.8846 46.2641C43.6323 46.2669 43.3799 46.2697 43.1199 46.2726C42.7069 46.2696 42.7069 46.2696 42.2855 46.2665C41.9944 46.2682 41.7032 46.27 41.4033 46.2718C40.4395 46.2762 39.4759 46.2733 38.5121 46.2699C37.8433 46.2706 37.1745 46.2715 36.5057 46.2728C35.1035 46.2746 33.7014 46.2722 32.2992 46.2675C30.6785 46.262 29.058 46.2638 27.4374 46.2693C26.0454 46.2738 24.6535 46.2745 23.2615 46.2718C22.4304 46.2703 21.5993 46.2705 20.7681 46.2734C19.8416 46.2759 18.9152 46.2721 17.9887 46.2665C17.7133 46.2685 17.4379 46.2705 17.1542 46.2726C16.9019 46.2698 16.6495 46.267 16.3895 46.2641C16.1705 46.2637 15.9515 46.2633 15.7259 46.2629C14.9222 46.0912 14.6275 45.7881 14.1371 45.1371C14.0112 44.5483 14.0112 44.5483 14.0101 43.8846C14.0059 43.5061 14.0059 43.5061 14.0016 43.1199C14.0046 42.7069 14.0046 42.7069 14.0077 42.2855C14.0059 41.9944 14.0042 41.7032 14.0024 41.4033C13.998 40.4395 14.0009 39.4759 14.0043 38.5121C14.0036 37.8433 14.0026 37.1745 14.0014 36.5057C13.9996 35.1035 14.002 33.7014 14.0067 32.2992C14.0122 30.6785 14.0104 29.058 14.0049 27.4374C14.0004 26.0454 13.9997 24.6535 14.0023 23.2615C14.0039 22.4304 14.0037 21.5993 14.0008 20.7681C13.9983 19.8416 14.0021 18.9152 14.0077 17.9887C14.0057 17.7133 14.0036 17.4379 14.0016 17.1542C14.0044 16.9019 14.0072 16.6495 14.0101 16.3895C14.0105 16.1705 14.0109 15.9515 14.0112 15.7259C14.2909 14.4173 15.134 14.0123 16.3895 14.0101ZM16.1371 16.1371C16.1371 16.7146 16.1371 17.2921 16.1371 17.8871C18.9421 17.8871 21.7471 17.8871 24.6371 17.8871C24.6371 17.3096 24.6371 16.7321 24.6371 16.1371C21.8321 16.1371 19.0271 16.1371 16.1371 16.1371ZM26.8871 16.1371C26.8871 16.7146 26.8871 17.2921 26.8871 17.8871C32.5796 17.8871 38.2721 17.8871 44.1371 17.8871C44.1371 17.3096 44.1371 16.7321 44.1371 16.1371C38.4446 16.1371 32.7521 16.1371 26.8871 16.1371ZM16.1371 19.8871C16.1371 20.4646 16.1371 21.0421 16.1371 21.6371C25.3771 21.6371 34.6171 21.6371 44.1371 21.6371C44.1371 21.0596 44.1371 20.4821 44.1371 19.8871C34.8971 19.8871 25.6571 19.8871 16.1371 19.8871ZM16.1371 23.6371C16.1371 27.9271 16.1371 32.2171 16.1371 36.6371C21.0046 36.6371 25.8721 36.6371 30.8871 36.6371C30.9696 36.1421 31.0521 35.6471 31.1371 35.1371C32.258 35.2086 32.8777 35.3591 33.7855 36.0199C35.6065 37.0617 37.7498 36.7666 39.7777 36.7152C41.2163 36.6894 42.6549 36.6637 44.1371 36.6371C44.1371 32.3471 44.1371 28.0571 44.1371 23.6371C34.8971 23.6371 25.6571 23.6371 16.1371 23.6371ZM33.1371 37.8871C33.3871 38.3871 33.3871 38.3871 33.3871 38.3871L33.1371 37.8871ZM16.1371 38.6371C16.1371 40.4521 16.1371 42.2671 16.1371 44.1371C25.3771 44.1371 34.6171 44.1371 44.1371 44.1371C44.1371 42.3221 44.1371 40.5071 44.1371 38.6371C41.6621 38.6371 39.1871 38.6371 36.6371 38.6371C36.6371 38.8021 36.6371 38.9671 36.6371 39.1371C36.2246 39.3021 35.8121 39.4671 35.3871 39.6371C35.5108 39.8382 35.5108 39.8382 35.6371 40.0433C35.9438 40.7719 35.9227 41.3543 35.8871 42.1371C35.184 42.2152 35.184 42.2152 34.3871 42.1371C33.9183 41.5121 33.9183 41.5121 33.6371 40.8871C33.4776 40.908 33.318 40.929 33.1537 40.9506C32.9471 40.976 32.7405 41.0015 32.5277 41.0277C32.3218 41.0538 32.1159 41.0799 31.9037 41.1068C31.648 41.1218 31.648 41.1218 31.3871 41.1371C30.7862 40.5362 30.9809 39.4817 30.8871 38.6371C26.0196 38.6371 21.1521 38.6371 16.1371 38.6371Z" fill="#1D6362"/>
<path d="M32.19 26.0707C33.3648 26.9018 34.1132 27.9619 34.3873 29.3871C34.4084 30.975 34.2015 32.411 33.1373 33.6371C32.0613 34.6813 31.0127 34.9826 29.5279 35.059C27.8985 34.9871 26.7698 34.5782 25.6373 33.3871C24.7981 32.1283 24.4445 30.9019 24.6373 29.3871C24.9962 27.7463 25.7592 26.8223 27.1373 25.8871C28.7495 24.9537 30.6167 25.1806 32.19 26.0707ZM27.1373 28.8871C26.7437 29.6744 26.8003 30.2671 26.8873 31.1371C27.3623 31.9386 27.721 32.4868 28.6217 32.8119C29.4956 32.9658 30.0147 32.9389 30.8404 32.5902C31.7402 31.8447 32.1008 31.4713 32.231 30.2777C32.1319 29.3354 31.9608 28.8805 31.3873 28.1371C29.798 27.0776 28.289 27.3755 27.1373 28.8871Z" fill="#ED6F2D"/>
<path d="M37.5748 25.2933C39.0266 25.3142 39.8536 25.3534 40.8873 26.3871C41.3691 27.1617 41.4271 27.6882 41.3717 28.5902C41.3455 29.5302 41.3945 29.9033 41.7935 30.7933C42.1838 31.7512 42.1435 32.1665 41.9195 33.139C41.4748 33.9239 40.9241 34.4639 40.1373 34.8871C39.3532 35.0372 38.6042 35.0178 37.8092 34.9808C37.6034 34.9773 37.3976 34.9737 37.1856 34.9701C35.6831 34.9329 35.6831 34.9329 35.3873 34.6371C35.3589 33.9945 35.3462 33.359 35.3453 32.7162C35.344 32.4272 35.344 32.4272 35.3428 32.1323C35.3415 31.724 35.3409 31.3156 35.341 30.9073C35.3404 30.2812 35.3359 29.6552 35.3311 29.0292C35.3304 28.6332 35.3299 28.2372 35.3297 27.8412C35.3279 27.6532 35.3261 27.4651 35.3242 27.2714C35.3323 25.4436 35.8328 25.3117 37.5748 25.2933ZM37.3873 27.3871C37.3873 27.8821 37.3873 28.3771 37.3873 28.8871C37.8823 28.8871 38.3773 28.8871 38.8873 28.8871C38.9698 28.4746 39.0523 28.0621 39.1373 27.6371C38.5598 27.5546 37.9823 27.4721 37.3873 27.3871ZM37.3873 30.8871C37.3873 31.5471 37.3873 32.2071 37.3873 32.8871C38.3898 32.9317 38.3898 32.9317 39.3873 32.8871C39.5523 32.7221 39.7173 32.5571 39.8873 32.3871C39.846 31.7432 39.846 31.7432 39.6373 31.1371C38.8981 30.7675 38.2017 30.872 37.3873 30.8871Z" fill="#ED6F2D"/>
<path d="M22.1372 25.3871C23.2761 25.526 23.2761 25.526 23.6372 25.8871C23.71 26.9328 23.7157 27.98 23.7247 29.0279C23.7289 29.3797 23.7357 29.7316 23.7452 30.0833C23.8345 33.378 23.8345 33.378 23.0767 34.3666C22.1801 35.0435 21.7578 35.0748 20.6772 35.0062C19.8974 34.8342 19.4352 34.4527 18.8872 33.8871C19.106 32.6683 19.106 32.6683 19.3872 32.3871C20.1534 32.3468 20.6511 32.3917 21.3872 32.6371C21.3946 32.3343 21.3946 32.3343 21.4022 32.0254C21.426 31.1146 21.4534 30.204 21.481 29.2933C21.4926 28.8167 21.4926 28.8167 21.5044 28.3304C21.5141 28.0275 21.5237 27.7246 21.5337 27.4125C21.5415 27.1323 21.5494 26.8521 21.5575 26.5635C21.6372 25.8871 21.6372 25.8871 22.1372 25.3871Z" fill="#ED6F2D"/>
</svg>
