<svg width="640" height="377" viewBox="0 0 640 377" fill="none" xmlns="http://www.w3.org/2000/svg">
<path d="M563.225 0H76.7606C68.3613 0 61.5524 6.80381 61.5524 15.1967V334.201C61.5524 342.594 68.3613 349.398 76.7606 349.398H563.225C571.625 349.398 578.434 342.594 578.434 334.201V15.1967C578.434 6.80381 571.625 0 563.225 0Z" fill="#595959"/>
<path d="M562.478 2.28369H77.5223C69.9646 2.28369 63.8378 8.40586 63.8378 15.9579V333.44C63.8378 340.992 69.9646 347.114 77.5223 347.114H562.478C570.035 347.114 576.162 340.992 576.162 333.44V15.9579C576.162 8.40586 570.035 2.28369 562.478 2.28369Z" fill="#4A4B4D"/>
<path d="M562.478 3.79224H77.5224C70.8061 3.79224 65.3615 9.23276 65.3615 15.944V333.44C65.3615 340.151 70.8061 345.592 77.5224 345.592H562.478C569.194 345.592 574.639 340.151 574.639 333.44V15.944C574.639 9.23276 569.194 3.79224 562.478 3.79224Z" fill="#1C2933"/>
<path d="M559.43 18.9888H80.5555V330.409H559.43V18.9888Z" fill="#BDC3C7"/>
<path d="M557.921 20.5112H82.0791V328.887H557.921V20.5112Z" fill="#F7F9F9"/>
<path d="M557.921 20.5112H82.0791V328.887H557.921V20.5112Z" fill="#F7F9F9"/>
<path d="M640 347.326H0V359.196H640V347.326Z" fill="url(#paint0_linear_180_953)"/>
<path d="M361.554 354.91H278.036C276.295 354.508 274.778 353.447 273.804 351.95C272.832 350.603 272.336 348.971 272.393 347.312H367.72C367.504 349.16 366.798 350.917 365.674 352.401C364.601 353.651 363.158 354.53 361.554 354.91Z" fill="url(#paint1_linear_180_953)"/>
<path d="M0 359.182C0 359.182 3.66803 362.213 14.1078 365.187C22.7277 367.725 37.5973 367.457 37.5973 367.457H602.445C602.445 367.457 617.272 367.682 625.935 365.187C636.318 362.213 640.042 359.182 640.042 359.182H0Z" fill="url(#paint2_linear_180_953)"/>
<path d="M0 376.986C0 376.986 3.66803 373.518 14.1078 370.079C22.77 367.259 37.5973 367.471 37.5973 367.471H602.445C602.445 367.471 617.272 367.217 625.935 370.079C636.318 373.518 640.042 376.986 640.042 376.986H0Z" fill="#A4A4A5"/>
<path d="M322.264 10.8971C322.264 11.4991 322.025 12.0764 321.599 12.502C321.173 12.9277 320.595 13.1668 319.993 13.1668C319.393 13.1631 318.819 12.9223 318.396 12.4971C317.973 12.0718 317.736 11.4967 317.736 10.8971C317.736 10.2989 317.973 9.72523 318.397 9.30224C318.82 8.87924 319.394 8.6416 319.993 8.6416C320.593 8.64159 321.168 8.87878 321.594 9.30137C322.02 9.72397 322.26 10.2976 322.264 10.8971Z" fill="url(#paint3_linear_180_953)"/>
<path d="M319.104 10.897C319.104 10.6615 319.198 10.4356 319.364 10.269C319.531 10.1025 319.757 10.0089 319.993 10.0089C320.111 10.007 320.228 10.0286 320.337 10.0724C320.447 10.1162 320.546 10.1813 320.63 10.264C320.715 10.3466 320.781 10.4452 320.827 10.5539C320.872 10.6625 320.896 10.7792 320.896 10.897C320.898 11.016 320.876 11.1342 320.831 11.2445C320.786 11.3548 320.72 11.4551 320.636 11.5392C320.551 11.6234 320.451 11.6898 320.341 11.7344C320.23 11.7791 320.112 11.8011 319.993 11.7992C319.875 11.7993 319.758 11.7758 319.649 11.7303C319.541 11.6848 319.442 11.6181 319.359 11.5342C319.277 11.4502 319.211 11.3506 319.168 11.2412C319.124 11.1318 319.102 11.0148 319.104 10.897Z" fill="url(#paint4_linear_180_953)"/>
<path d="M320.727 10.8971C320.727 11.0915 320.649 11.2779 320.512 11.4154C320.374 11.5529 320.188 11.6301 319.993 11.6301C319.897 11.6301 319.803 11.6111 319.714 11.5741C319.626 11.5371 319.546 11.4828 319.479 11.4146C319.412 11.3463 319.359 11.2654 319.324 11.1765C319.289 11.0877 319.272 10.9927 319.273 10.8971C319.273 10.7064 319.349 10.5235 319.484 10.3887C319.619 10.2539 319.802 10.1781 319.993 10.1781C320.089 10.1762 320.184 10.1935 320.273 10.2287C320.362 10.264 320.443 10.3167 320.511 10.3836C320.579 10.4506 320.633 10.5305 320.67 10.6186C320.707 10.7068 320.727 10.8015 320.727 10.8971Z" fill="url(#paint5_linear_180_953)"/>
<path d="M320.614 10.9113C320.61 11.0733 320.543 11.2275 320.427 11.3408C320.311 11.4541 320.155 11.5175 319.993 11.5175C319.832 11.5175 319.678 11.4536 319.564 11.3399C319.45 11.2262 319.386 11.0721 319.386 10.9113C319.384 10.8305 319.399 10.7502 319.428 10.675C319.458 10.5998 319.502 10.5313 319.559 10.4735C319.615 10.4157 319.683 10.3698 319.757 10.3385C319.832 10.3071 319.912 10.291 319.993 10.291C320.158 10.291 320.315 10.3564 320.432 10.4727C320.548 10.589 320.614 10.7468 320.614 10.9113Z" fill="url(#paint6_linear_180_953)"/>
<path style="mix-blend-mode:multiply" d="M320.614 10.9113C320.61 11.0733 320.543 11.2275 320.427 11.3408C320.311 11.4541 320.155 11.5175 319.993 11.5175C319.832 11.5175 319.678 11.4536 319.564 11.3399C319.45 11.2262 319.386 11.0721 319.386 10.9113C319.384 10.8305 319.399 10.7502 319.428 10.675C319.458 10.5998 319.502 10.5313 319.559 10.4735C319.615 10.4157 319.683 10.3698 319.757 10.3385C319.832 10.3071 319.912 10.291 319.993 10.291C320.158 10.291 320.315 10.3564 320.432 10.4727C320.548 10.589 320.614 10.7468 320.614 10.9113Z" fill="url(#paint7_radial_180_953)"/>
<path style="mix-blend-mode:hard-light" opacity="0.5" d="M309.144 0H563.239C567.27 -1.73309e-06 571.137 1.59914 573.988 4.44604C576.84 7.29293 578.444 11.1547 578.448 15.1826V334.201C578.448 338.232 576.845 342.097 573.993 344.947C571.141 347.797 567.273 349.398 563.239 349.398H381.715L309.144 0Z" fill="url(#paint8_linear_180_953)"/>
<rect width="479" height="312" transform="translate(81 19)" fill="url(#paint9_linear_180_953)"/>
<path d="M170.402 150.69L197.102 117.421L202.864 122.475L180.114 160.501L170.402 150.69Z" fill="#68E1FD"/>
<path d="M126.203 95.8962L131.128 110.67L119.437 118.098L115.228 92.4863L126.203 95.8962Z" fill="#F4A28C"/>
<path d="M111.209 78.2073C113.721 72.065 121.895 70.8168 126.431 75.6575C131.409 80.9702 137.407 89.4188 130.618 94.0236C120.228 101.064 110.691 87.9117 110.691 87.9117C110.691 87.9117 109.298 82.873 111.201 78.2149L111.209 78.2073Z" fill="#F4A28C"/>
<path d="M118.805 87.2723C118.805 87.2723 116.141 85.0422 114.938 88.2085C113.736 91.3672 118.432 92.897 119.84 91.2987C121.248 89.7003 118.805 87.2723 118.805 87.2723Z" fill="#F4A28C"/>
<path d="M105.782 125.351C109.314 117.421 116.217 111.484 124.529 108.98C140.413 104.207 169.671 109.429 178.592 124.294C190.8 144.639 172.929 209.274 172.929 209.274L119.536 213.422C119.536 213.422 90.1636 160.447 105.782 125.351Z" fill="#1D6362"/>
<path d="M172.929 209.274L165.904 301.074H154.799L144.889 229.756L120.343 213.422L172.929 209.274Z" fill="#878787"/>
<path d="M120.342 213.422L105.021 301.074H116.925L142.636 228.256L120.342 213.422Z" fill="#878787"/>
<path opacity="0.08" d="M129.149 107.587C129.149 107.587 104.168 188.031 176.293 193.366L172.929 209.281L119.536 213.43C119.536 213.43 100.72 183.89 101.52 142.393C101.52 142.393 101.976 121.873 116.415 112.808C116.415 112.808 121.926 108.744 129.149 107.595V107.587Z" fill="#000001"/>
<path d="M107.814 300.883L100.644 306.166C99.4189 307.071 100.058 309.012 101.58 309.012H113.599C114.466 309.012 115.174 308.304 115.174 307.437V300.883H107.822H107.814Z" fill="black"/>
<path d="M164.518 300.883L171.269 306.166C172.464 307.102 171.802 309.012 170.288 309.012H161.733C159.213 309.012 157.166 306.965 157.166 304.445V300.883H164.518Z" fill="black"/>
<path d="M150.925 108.553C150.925 108.553 141.761 121.561 150.925 137.035C156.747 146.861 173.69 166.004 185.274 178.653C190.914 184.811 200.923 183.646 204.988 176.355L229.869 132.491L221.428 127.079L198.625 160.508C198.625 160.508 183.021 109.208 150.932 108.561L150.925 108.553Z" fill="#68E1FD"/>
<path opacity="0.2" d="M150.925 108.553C150.925 108.553 141.761 121.561 150.925 137.035C156.747 146.861 173.69 166.004 185.274 178.653C190.914 184.811 200.923 183.646 204.988 176.355L229.869 132.491L221.428 127.079L198.625 160.508C198.625 160.508 183.021 109.208 150.932 108.561L150.925 108.553Z" fill="#1D6362"/>
<path d="M226.923 130.596C226.923 130.596 241.05 125.405 235.288 117.413C229.526 109.421 221.42 127.064 221.42 127.064L226.923 130.588V130.596Z" fill="#F4A28C"/>
<path d="M115.996 97.1899L108.088 89.0001C106.429 87.28 105.569 84.9585 105.675 82.5762C105.866 78.4128 106.756 71.7682 110.204 66.7828C115.616 58.9584 122.816 56.0052 124.605 62.764C126.393 69.5304 126.766 61.4929 131.12 65.0931C135.481 68.6856 134.583 70.7939 131.12 72.6967C127.657 74.6072 120.479 77.3549 119.84 83.0557C119.201 88.7642 124.612 93.3614 115.989 97.1899H115.996Z" fill="black"/>
<path d="M198.442 118.601C198.442 118.601 200.208 106.407 212.036 107.587C223.863 108.767 219.54 111.781 214.768 112.009H214.73C212.736 112.397 211.206 113.889 210.574 115.815C209.874 117.954 207.956 120.724 202.864 122.475L198.449 118.601H198.442Z" fill="#F4A28C"/>
<path opacity="0.08" d="M282.215 151.769H222.351V204.295H282.215V151.769Z" fill="#000001"/>
<path d="M347.896 144H222.351V196.526H347.896V144Z" fill="#C0DDDD"/>
<path d="M278.243 155.384H236.59V182.078H278.243V155.384Z" fill="white"/>
<path d="M236.59 155.384L257.413 174.881L278.243 155.384H236.59Z" fill="#1D6362"/>
<path d="M331.9 158.232H293.573V166.116H331.9V158.232Z" fill="white"/>
<path opacity="0.46" d="M331.9 170.936H293.573V178.82H331.9V170.936Z" fill="white"/>
<path opacity="0.08" d="M282.215 66.7693H222.351V119.295H282.215V66.7693Z" fill="#000001"/>
<path d="M347.896 59H222.351V111.526H347.896V59Z" fill="#C0DDDD"/>
<path d="M278.243 70.3843H236.59V97.0781H278.243V70.3843Z" fill="#1D6362"/>
<path d="M331.9 73.2322H293.573V81.1158H331.9V73.2322Z" fill="white"/>
<path opacity="0.46" d="M331.9 85.9363H293.573V93.8199H331.9V85.9363Z" fill="white"/>
<path opacity="0.08" d="M294.522 226.35H225.455V278.876H294.522V226.35Z" fill="#000001"/>
<path d="M351 219.127H225.455V271.653H351V219.127Z" fill="#C0DDDD"/>
<path d="M332.856 233.568H291.318V241.451H332.856V233.568Z" fill="white"/>
<path opacity="0.46" d="M332.856 246.271H291.318V254.155H332.856V246.271Z" fill="white"/>
<path d="M260.174 264.402C270.908 264.402 279.61 255.7 279.61 244.965C279.61 234.231 270.908 225.529 260.174 225.529C249.439 225.529 240.737 234.231 240.737 244.965C240.737 255.7 249.439 264.402 260.174 264.402Z" fill="#1D6362"/>
<path d="M260.652 247.551C264.775 247.551 268.118 244.208 268.118 240.085C268.118 235.961 264.775 232.618 260.652 232.618C256.528 232.618 253.185 235.961 253.185 240.085C253.185 244.208 256.528 247.551 260.652 247.551Z" fill="white"/>
<path opacity="0.24" d="M247.16 259.4C247.16 259.4 248.776 247.995 260.18 247.409C272.278 246.79 273.201 259.4 273.201 259.4C273.201 259.4 268.629 264.24 259.992 264.402C259.992 264.402 252.761 264.664 247.167 259.4H247.16Z" fill="white"/>
<rect x="377.5" y="78.5" width="147" height="172" rx="4.5" fill="white" stroke="#C0DDDD"/>
<line x1="383" y1="122" x2="444.944" y2="122" stroke="#C0DDDD" stroke-width="2"/>
<line x1="383" y1="132" x2="459.022" y2="132" stroke="#C0DDDD" stroke-width="2"/>
<line x1="383" y1="142" x2="471.693" y2="142" stroke="#C0DDDD" stroke-width="2"/>
<line x1="383" y1="152" x2="509" y2="152" stroke="#C0DDDD" stroke-width="2"/>
<line x1="383" y1="170" x2="444.944" y2="170" stroke="#C0DDDD" stroke-width="2"/>
<line x1="383" y1="180" x2="459.022" y2="180" stroke="#C0DDDD" stroke-width="2"/>
<line x1="383" y1="190" x2="471.693" y2="190" stroke="#C0DDDD" stroke-width="2"/>
<line x1="383" y1="200" x2="509" y2="200" stroke="#C0DDDD" stroke-width="2"/>
<path d="M377 83C377 80.2386 379.239 78 382 78H520C522.761 78 525 80.2386 525 83V102H377V83Z" fill="#D9D9D9"/>
<path d="M474 219C474 216.239 476.239 214 479 214H505C507.761 214 510 216.239 510 219V233C510 235.761 507.761 238 505 238H479C476.239 238 474 235.761 474 233V219Z" fill="#1D6362"/>
<path opacity="0.4" d="M507.78 94.56C510.42 94.56 512.56 92.4199 512.56 89.78C512.56 87.1401 510.42 85 507.78 85C505.14 85 503 87.1401 503 89.78C503 92.4199 505.14 94.56 507.78 94.56Z" fill="#000001"/>
<path d="M520.341 277.337C517.923 277.485 515.643 278.512 513.93 280.225C512.217 281.938 511.19 284.218 511.042 286.636H511.004C510.856 284.218 509.829 281.938 508.116 280.225C506.403 278.512 504.123 277.485 501.705 277.337V277.299C504.123 277.151 506.403 276.124 508.116 274.411C509.829 272.698 510.856 270.418 511.004 268H511.042C511.19 270.418 512.217 272.698 513.93 274.411C515.643 276.124 517.923 277.151 520.341 277.299V277.337Z" fill="#ED6F2D"/>
<path d="M525 285.094C523.522 285.185 522.129 285.813 521.082 286.86C520.036 287.906 519.408 289.3 519.317 290.777H519.294C519.204 289.3 518.576 287.906 517.529 286.859C516.482 285.813 515.089 285.185 513.611 285.094V285.072C515.089 284.981 516.482 284.353 517.529 283.307C518.576 282.26 519.204 280.866 519.294 279.389H519.317C519.408 280.866 520.036 282.26 521.082 283.306C522.129 284.353 523.522 284.981 525 285.072V285.094Z" fill="#1D6362"/>
<path d="M510.389 285.094C508.911 285.185 507.518 285.813 506.471 286.86C505.424 287.906 504.796 289.3 504.706 290.777H504.683C504.592 289.3 503.965 287.906 502.918 286.859C501.871 285.813 500.478 285.185 499 285.094V285.072C500.478 284.981 501.871 284.353 502.918 283.307C503.965 282.26 504.592 280.866 504.683 279.389H504.706C504.796 280.866 505.424 282.26 506.471 283.306C507.518 284.353 508.911 284.981 510.389 285.072V285.094Z" fill="#1D6362"/>
<path d="M499 233V229C499 228.167 498.708 227.458 498.125 226.875C497.542 226.292 496.833 226 496 226H486.825L490.425 229.6L489 231L483 225L489 219L490.425 220.4L486.825 224H496C497.383 224 498.563 224.488 499.538 225.463C500.513 226.438 501.001 227.617 501 229V233H499Z" fill="white"/>
<defs>
<linearGradient id="paint0_linear_180_953" x1="0" y1="353.261" x2="640" y2="353.261" gradientUnits="userSpaceOnUse">
<stop stop-color="#828387"/>
<stop offset="0.01" stop-color="#D0D1D3"/>
<stop offset="0.03" stop-color="#929397"/>
<stop offset="0.07" stop-color="#D1D2D5"/>
<stop offset="0.51" stop-color="#F3F3F4"/>
<stop offset="0.93" stop-color="#D1D2D5"/>
<stop offset="0.97" stop-color="#929397"/>
<stop offset="0.99" stop-color="#E6E6E6"/>
<stop offset="1" stop-color="#828387"/>
</linearGradient>
<linearGradient id="paint1_linear_180_953" x1="272.351" y1="351.118" x2="367.649" y2="351.118" gradientUnits="userSpaceOnUse">
<stop stop-color="#999999"/>
<stop offset="0.1" stop-color="#D8D9DB"/>
<stop offset="0.5" stop-color="#D7D8DB"/>
<stop offset="0.9" stop-color="#D8D9DB"/>
<stop offset="1" stop-color="#999999"/>
</linearGradient>
<linearGradient id="paint2_linear_180_953" x1="319.993" y1="367.471" x2="319.993" y2="359.182" gradientUnits="userSpaceOnUse">
<stop stop-color="#2B2C2E"/>
<stop offset="0.12" stop-color="#3C3D40"/>
<stop offset="0.34" stop-color="#5F6064"/>
<stop offset="0.73" stop-color="#88898D"/>
<stop offset="1" stop-color="#909195"/>
</linearGradient>
<linearGradient id="paint3_linear_180_953" x1="319.993" y1="13.0258" x2="319.993" y2="8.55702" gradientUnits="userSpaceOnUse">
<stop stop-color="#666666"/>
<stop offset="1" stop-color="#010104"/>
</linearGradient>
<linearGradient id="paint4_linear_180_953" x1="319.993" y1="10.0512" x2="319.993" y2="11.8274" gradientUnits="userSpaceOnUse">
<stop stop-color="#0B131C"/>
<stop offset="1" stop-color="#354039"/>
</linearGradient>
<linearGradient id="paint5_linear_180_953" x1="319.993" y1="11.5878" x2="319.993" y2="10.1499" gradientUnits="userSpaceOnUse">
<stop stop-color="#4B4E4F"/>
<stop offset="0.28" stop-color="#3A3D3E"/>
<stop offset="0.55" stop-color="#2F3232"/>
<stop offset="0.76" stop-color="#242727"/>
<stop offset="1" stop-color="#1C201F"/>
</linearGradient>
<linearGradient id="paint6_linear_180_953" x1="320.43" y1="11.3342" x2="319.57" y2="10.4736" gradientUnits="userSpaceOnUse">
<stop stop-color="#231F20"/>
<stop offset="0.08" stop-color="#222326"/>
<stop offset="0.2" stop-color="#1F2C37"/>
<stop offset="0.33" stop-color="#1A3D54"/>
<stop offset="0.47" stop-color="#13537C"/>
<stop offset="0.62" stop-color="#0B71AE"/>
<stop offset="0.78" stop-color="#0095EE"/>
<stop offset="0.8" stop-color="#0488D6"/>
<stop offset="0.84" stop-color="#0D689F"/>
<stop offset="0.88" stop-color="#154E72"/>
<stop offset="0.91" stop-color="#1B394E"/>
<stop offset="0.95" stop-color="#1F2B35"/>
<stop offset="0.98" stop-color="#222225"/>
<stop offset="1" stop-color="#231F20"/>
</linearGradient>
<radialGradient id="paint7_radial_180_953" cx="0" cy="0" r="1" gradientUnits="userSpaceOnUse" gradientTransform="translate(319.993 10.8972) scale(0.606632 0.606178)">
<stop stop-color="#231F20"/>
<stop offset="0.2" stop-color="#175168"/>
<stop offset="0.38" stop-color="#0D78A2"/>
<stop offset="0.54" stop-color="#0695CB"/>
<stop offset="0.66" stop-color="#02A7E5"/>
<stop offset="0.73" stop-color="#00ADEE"/>
<stop offset="0.76" stop-color="#02A6E4"/>
<stop offset="0.81" stop-color="#0693C8"/>
<stop offset="0.87" stop-color="#0E749C"/>
<stop offset="0.94" stop-color="#184A5F"/>
<stop offset="1" stop-color="#231F20"/>
</radialGradient>
<linearGradient id="paint8_linear_180_953" x1="309.144" y1="174.692" x2="578.448" y2="174.692" gradientUnits="userSpaceOnUse">
<stop stop-color="#ECF1F2"/>
<stop offset="1" stop-color="#808080"/>
</linearGradient>
<linearGradient id="paint9_linear_180_953" x1="20" y1="312" x2="216" y2="168.5" gradientUnits="userSpaceOnUse">
<stop stop-color="#B7FFE2"/>
<stop offset="1" stop-color="white"/>
</linearGradient>
</defs>
</svg>
