<svg width="640" height="377" viewBox="0 0 640 377" fill="none" xmlns="http://www.w3.org/2000/svg">
<path d="M563.225 0H76.7606C68.3613 0 61.5524 6.80381 61.5524 15.1967V334.201C61.5524 342.594 68.3613 349.398 76.7606 349.398H563.225C571.625 349.398 578.434 342.594 578.434 334.201V15.1967C578.434 6.80381 571.625 0 563.225 0Z" fill="#595959"/>
<path d="M562.478 2.28369H77.5223C69.9646 2.28369 63.8378 8.40586 63.8378 15.9579V333.44C63.8378 340.992 69.9646 347.114 77.5223 347.114H562.478C570.035 347.114 576.162 340.992 576.162 333.44V15.9579C576.162 8.40586 570.035 2.28369 562.478 2.28369Z" fill="#4A4B4D"/>
<path d="M562.478 3.79211H77.5224C70.8061 3.79211 65.3615 9.23264 65.3615 15.9439V333.44C65.3615 340.151 70.8061 345.592 77.5224 345.592H562.478C569.194 345.592 574.639 340.151 574.639 333.44V15.9439C574.639 9.23264 569.194 3.79211 562.478 3.79211Z" fill="#1C2933"/>
<path d="M559.43 18.9889H80.5555V330.409H559.43V18.9889Z" fill="#BDC3C7"/>
<path d="M557.921 20.5114H82.0791V328.887H557.921V20.5114Z" fill="#F7F9F9"/>
<path d="M557.921 20.5114H82.0791V328.887H557.921V20.5114Z" fill="#F7F9F9"/>
<path d="M640 347.326H0V359.196H640V347.326Z" fill="url(#paint0_linear_101_805)"/>
<path d="M361.554 354.91H278.036C276.295 354.508 274.778 353.447 273.804 351.95C272.832 350.603 272.336 348.971 272.393 347.312H367.72C367.504 349.16 366.798 350.917 365.674 352.401C364.601 353.651 363.158 354.53 361.554 354.91Z" fill="url(#paint1_linear_101_805)"/>
<path d="M0 359.182C0 359.182 3.66803 362.213 14.1078 365.187C22.7277 367.725 37.5973 367.457 37.5973 367.457H602.445C602.445 367.457 617.272 367.682 625.935 365.187C636.318 362.213 640.042 359.182 640.042 359.182H0Z" fill="url(#paint2_linear_101_805)"/>
<path d="M0 376.986C0 376.986 3.66803 373.518 14.1078 370.079C22.77 367.259 37.5973 367.471 37.5973 367.471H602.445C602.445 367.471 617.272 367.217 625.935 370.079C636.318 373.518 640.042 376.986 640.042 376.986H0Z" fill="#A4A4A5"/>
<path d="M322.264 10.8971C322.264 11.4991 322.025 12.0764 321.599 12.502C321.173 12.9277 320.595 13.1668 319.993 13.1668C319.393 13.1631 318.819 12.9223 318.396 12.4971C317.973 12.0718 317.736 11.4967 317.736 10.8971C317.736 10.2989 317.973 9.72523 318.397 9.30224C318.82 8.87924 319.394 8.6416 319.993 8.6416C320.593 8.64159 321.168 8.87878 321.594 9.30137C322.02 9.72397 322.26 10.2976 322.264 10.8971Z" fill="url(#paint3_linear_101_805)"/>
<path d="M319.104 10.8971C319.104 10.6616 319.198 10.4357 319.364 10.2691C319.531 10.1026 319.757 10.009 319.993 10.009C320.111 10.0072 320.228 10.0287 320.337 10.0725C320.447 10.1163 320.546 10.1815 320.63 10.2641C320.715 10.3468 320.781 10.4453 320.827 10.554C320.872 10.6627 320.896 10.7793 320.896 10.8971C320.898 11.0162 320.876 11.1343 320.831 11.2446C320.786 11.355 320.72 11.4552 320.636 11.5394C320.551 11.6235 320.451 11.6899 320.341 11.7346C320.23 11.7792 320.112 11.8013 319.993 11.7994C319.875 11.7994 319.758 11.7759 319.649 11.7304C319.541 11.6849 319.442 11.6182 319.359 11.5343C319.277 11.4503 319.211 11.3507 319.168 11.2413C319.124 11.132 319.102 11.015 319.104 10.8971Z" fill="url(#paint4_linear_101_805)"/>
<path d="M320.727 10.8971C320.727 11.0915 320.649 11.2779 320.512 11.4154C320.374 11.5529 320.188 11.6301 319.993 11.6301C319.897 11.6301 319.803 11.6111 319.714 11.5741C319.626 11.5371 319.546 11.4828 319.479 11.4146C319.412 11.3463 319.36 11.2654 319.324 11.1765C319.289 11.0877 319.272 10.9927 319.274 10.8971C319.274 10.7064 319.349 10.5235 319.484 10.3887C319.619 10.2539 319.802 10.1781 319.993 10.1781C320.089 10.1762 320.184 10.1935 320.273 10.2287C320.362 10.264 320.443 10.3167 320.511 10.3836C320.579 10.4506 320.634 10.5305 320.671 10.6186C320.708 10.7068 320.727 10.8015 320.727 10.8971Z" fill="url(#paint5_linear_101_805)"/>
<path d="M320.614 10.9112C320.61 11.0732 320.543 11.2274 320.427 11.3407C320.311 11.454 320.155 11.5174 319.993 11.5173C319.832 11.5173 319.678 11.4535 319.564 11.3398C319.45 11.2261 319.386 11.0719 319.386 10.9112C319.385 10.8304 319.399 10.75 319.428 10.6749C319.458 10.5997 319.503 10.5312 319.559 10.4734C319.616 10.4156 319.683 10.3697 319.758 10.3383C319.832 10.307 319.912 10.2909 319.993 10.2909C320.158 10.2909 320.316 10.3562 320.432 10.4726C320.548 10.5889 320.614 10.7467 320.614 10.9112Z" fill="url(#paint6_linear_101_805)"/>
<path style="mix-blend-mode:multiply" d="M320.614 10.9112C320.61 11.0732 320.543 11.2274 320.427 11.3407C320.311 11.454 320.155 11.5174 319.993 11.5173C319.832 11.5173 319.678 11.4535 319.564 11.3398C319.45 11.2261 319.386 11.0719 319.386 10.9112C319.385 10.8304 319.399 10.75 319.428 10.6749C319.458 10.5997 319.503 10.5312 319.559 10.4734C319.616 10.4156 319.683 10.3697 319.758 10.3383C319.832 10.307 319.912 10.2909 319.993 10.2909C320.158 10.2909 320.316 10.3562 320.432 10.4726C320.548 10.5889 320.614 10.7467 320.614 10.9112Z" fill="url(#paint7_radial_101_805)"/>
<path style="mix-blend-mode:hard-light" opacity="0.5" d="M309.144 0H563.239C567.27 -1.73309e-06 571.137 1.59914 573.988 4.44604C576.84 7.29293 578.444 11.1547 578.448 15.1826V334.201C578.448 338.232 576.845 342.097 573.993 344.947C571.141 347.797 567.273 349.398 563.239 349.398H381.715L309.144 0Z" fill="url(#paint8_linear_101_805)"/>
<rect width="479" height="312" transform="translate(81 19)" fill="url(#paint9_linear_101_805)"/>
<path d="M175.265 246.537L178.195 297.95L123.543 315.464L121.372 311.359L162.726 292.096C162.726 292.096 145.169 243.86 150.614 236.352C156.059 228.845 175.265 246.537 175.265 246.537Z" fill="#FED4D5"/>
<path d="M157.945 290.073H179.666V248.572L147.636 241.433C147.636 241.433 155.039 287.17 157.945 290.073Z" fill="#878787"/>
<path d="M124.694 315.464L123.092 315.821L122.048 325.994L117.291 312.941L122.962 310.407L124.694 315.464Z" fill="black"/>
<path d="M150.353 257.281C158.764 261.434 170.947 267.264 179.666 271.428V248.572L147.636 241.433C147.636 241.433 148.787 248.5 150.353 257.281Z" fill="#283030"/>
<path d="M157.945 290.073L124.397 306.445L128.348 317.106L180.01 300.008L179.666 290.073H157.945Z" fill="#878787"/>
<path d="M244.9 294.547L249.218 299.258L252.682 297.521L248.969 291.572L244.9 294.547Z" fill="#FED4D5"/>
<path d="M252.231 295.582L252.813 297.117L263.003 296.7L250.796 303.292L247.486 298.033L252.231 295.582Z" fill="black"/>
<path d="M216.216 240.065L171.244 229.511C171.244 229.511 132.357 241.897 159.784 256.115C166.771 259.685 198.113 256.556 208.979 255.842L216.216 240.065Z" fill="#343636"/>
<path d="M208.979 255.842L244.402 296.784L253.299 291.953L223.416 241.766L216.216 240.065L208.979 255.842Z" fill="#343636"/>
<path d="M128.597 266.491L103.59 262.064C103.404 262.026 103.231 261.945 103.083 261.826C102.936 261.707 102.819 261.554 102.742 261.381C102.666 261.207 102.632 261.018 102.643 260.828C102.654 260.639 102.71 260.455 102.807 260.292L108.501 251.261C108.627 251.068 108.806 250.915 109.017 250.822C109.227 250.729 109.46 250.7 109.687 250.737L126.722 253.748C126.949 253.79 127.159 253.899 127.325 254.059C127.492 254.22 127.608 254.426 127.659 254.652L129.937 265.087C129.973 265.274 129.964 265.467 129.911 265.649C129.857 265.832 129.761 265.999 129.629 266.137C129.498 266.274 129.336 266.378 129.156 266.44C128.976 266.501 128.784 266.519 128.597 266.491ZM105.701 260.066L127.292 263.885L125.548 255.913L110.055 253.176L105.701 260.066Z" fill="#FF9A36"/>
<path d="M128.395 263.23L104.776 259.054L109.26 251.499H109.367L126.568 254.592V254.688L128.395 263.23ZM105.215 258.84L128.003 262.921L126.26 254.866L109.414 251.88L105.215 258.84Z" fill="white"/>
<path d="M146.149 264.544L87.7361 254.213L81 292.529L139.413 302.86L146.149 264.544Z" fill="#ED6F2D"/>
<path d="M146.142 264.539L87.7409 254.212L86.436 261.6L87.302 270.274L140.72 279.722L144.41 274.439L146.142 264.539Z" fill="#FF9A36"/>
<path d="M139.914 277.627L89.1289 268.656L87.741 254.212L146.142 264.539L139.914 277.627Z" fill="#C64E10"/>
<path d="M97.7622 264.502L94.2224 263.875L92.3066 274.773L95.8465 275.399L97.7622 264.502Z" fill="white"/>
<path d="M136.771 271.404L133.231 270.778L131.316 281.676L134.856 282.302L136.771 271.404Z" fill="white"/>
<path d="M229.846 158.918C229.846 158.918 228.767 152.969 229.633 152.184C230.499 151.399 231.187 155.278 231.187 155.278C231.187 155.278 232.266 148.829 233.903 148.139C235.54 147.449 238.648 155.504 234.366 160.168C230.083 164.832 228.589 159.966 229.846 158.918Z" fill="#FED4D5"/>
<path d="M175.206 177.349C174.625 177.777 168.373 176.694 169.18 183.453C169.512 186.261 173.652 192.626 180.046 193.792C189.109 195.446 201.802 191.079 206.725 189.473C215.113 186.76 211.044 177.087 206.393 177.706C201.743 178.325 175.206 177.349 175.206 177.349Z" fill="#1D6362"/>
<path d="M229.846 158.918C229.846 158.918 208.647 176.373 206.488 177.765C204.329 179.157 202.075 185.535 204.116 187.058C205.272 187.956 206.676 188.476 208.137 188.545C208.137 188.545 211.269 188.188 216.263 182.596C221.257 177.004 232.741 161.524 232.741 161.524L229.846 158.918Z" fill="#1D6362"/>
<g style="mix-blend-mode:overlay" opacity="0.32">
<path d="M197.045 192.353L179.666 182.834L181.232 194.006C186.203 194.566 192.027 193.602 197.045 192.353Z" fill="#231F20"/>
</g>
<path d="M176.262 177.551C176.262 177.551 182.976 177.837 183.249 184.405C183.522 190.972 172.572 218.267 183.605 230.07C183.605 230.07 163.011 247.715 151.053 248.572C151.053 248.572 135.892 214.341 145.43 186.451C145.43 186.451 147.186 172.625 163.462 174.553L176.262 177.551Z" fill="white"/>
<path d="M176.262 177.551C176.262 177.551 182.976 177.837 183.249 184.405C183.522 190.972 172.572 218.267 183.605 230.07C183.605 230.07 163.011 247.715 151.053 248.572C151.053 248.572 136.675 214.067 146.225 186.142C146.225 186.142 147.186 172.625 163.462 174.565L176.262 177.551Z" fill="#799ED8"/>
<path d="M167.364 163.951C167.364 163.951 168.48 172.352 163.462 174.565C162.097 180.431 174.897 183.405 176.262 177.551C175.64 177.274 175.086 176.866 174.635 176.354C174.185 175.843 173.85 175.241 173.652 174.588C173.401 172.082 173.322 169.562 173.415 167.045L167.364 163.951Z" fill="#FED4D5"/>
<g style="mix-blend-mode:overlay" opacity="0.56">
<path d="M166.771 170.614C167.41 168.455 167.612 166.19 167.365 163.951L173.415 167.045C173.322 169.562 173.402 172.082 173.652 174.588C173.666 174.646 173.686 174.702 173.711 174.755C170.943 174.349 168.448 172.86 166.771 170.614Z" fill="#231F20"/>
</g>
<path d="M181.766 151.684L182.762 149.198C182.762 149.198 183.878 140.655 177.519 140.048C171.161 139.441 172.525 144.807 172.525 144.807C172.525 144.807 168.966 139.06 164.304 141.773C159.642 144.486 164.363 147.33 164.363 147.33C164.363 147.33 155.074 150.078 156.237 156.527C157.4 162.976 166.997 168.425 166.997 168.425L181.766 151.684Z" fill="black"/>
<g style="mix-blend-mode:overlay" opacity="0.64">
<path d="M176.724 142.749C172.525 144.724 175.443 148.698 175.443 148.698C175.443 148.698 170.544 144.248 168.325 145.902C166.107 147.556 169.512 150.09 169.512 150.09C169.512 150.09 162.394 151.078 161.765 153.41C161.136 155.742 165.514 160.977 165.514 160.977L164.09 166.355C165.035 167.054 166.017 167.702 167.032 168.294L181.802 151.637L182.798 149.15C182.968 147.51 182.836 145.852 182.407 144.26C180.615 142.892 178.551 141.916 176.724 142.749Z" fill="#343636"/>
</g>
<path d="M182.762 149.198C182.762 149.198 191.138 166.367 185.74 170.995C180.342 175.624 166.997 168.33 166.997 168.33L167.792 164.987C167.792 164.987 165.158 167.188 163.817 163.166C162.477 159.145 163.296 156.777 165.514 157.824C166.746 158.348 167.743 159.31 168.314 160.525C168.314 160.525 171.932 157.491 168.029 153.481C168.088 153.457 181.22 153.517 182.762 149.198Z" fill="#FED4D5"/>
<g style="mix-blend-mode:overlay" opacity="0.56">
<path d="M175.25 163.338C176.589 163.021 177.567 162.307 177.435 161.744C177.302 161.182 176.109 160.983 174.77 161.3C173.431 161.617 172.453 162.33 172.586 162.893C172.718 163.456 173.911 163.655 175.25 163.338Z" fill="#231F20"/>
</g>
<g style="mix-blend-mode:overlay" opacity="0.56">
<path d="M183.992 160.32C185.05 160.069 185.801 159.41 185.668 158.847C185.536 158.284 184.57 158.031 183.512 158.282C182.453 158.533 181.703 159.192 181.835 159.755C181.968 160.318 182.933 160.571 183.992 160.32Z" fill="#231F20"/>
</g>
<path d="M168.088 238.125C162.157 241.076 162.429 243.313 160.187 238.887C157.945 234.46 168.883 229.201 164.79 226.988C160.698 224.775 148.253 227.512 147.447 216.696C146.64 205.881 159.535 217.03 162.109 210.747C164.683 204.465 152.014 191.817 149.25 182.322C148.953 181.311 148.728 180.395 148.538 179.526C146.916 181.546 145.83 183.944 145.383 186.499C135.892 214.388 151.006 248.619 151.006 248.619C157.53 248.144 166.629 242.67 173.545 237.804C173.177 236.983 171.908 236.245 168.088 238.125Z" fill="#5D7FAF"/>
<path d="M163.462 174.565C163.462 174.565 167.969 181.025 169.868 193.923C171.766 206.821 151.48 250.773 151.48 250.773C151.48 250.773 133.555 246.977 125.263 238.601C125.263 238.601 138.229 225.584 140.175 220.004C142.12 214.424 142.215 201.752 142.215 201.752C142.215 201.752 144.588 182.334 148.823 177.539C153.058 172.744 163.462 174.565 163.462 174.565Z" fill="#283030"/>
<g style="mix-blend-mode:overlay" opacity="0.32">
<path d="M131.503 240.029C131.503 240.029 144.469 227.012 146.415 221.432C148.36 215.852 148.455 203.168 148.455 203.168C148.455 203.168 153.058 172.744 148.835 177.539C144.611 182.334 142.227 201.752 142.227 201.752C142.227 201.752 142.12 214.436 140.187 220.004C138.253 225.572 125.275 238.601 125.275 238.601C133.579 246.93 151.492 250.773 151.492 250.773L151.599 250.547C145.62 248.703 136.675 245.252 131.503 240.029Z" fill="#231F20"/>
</g>
<path d="M176.262 177.551C176.262 177.551 175.194 196.898 176.558 211.283C177.922 225.668 178.1 229.332 182.49 232.902C185.419 235.095 188.989 236.258 192.644 236.21L196.559 227.619C196.559 227.619 183.379 225.18 182.324 219.623C181.268 214.067 186.226 183.929 183.154 180.3C182.337 179.287 181.274 178.502 180.066 178.02C178.859 177.539 177.549 177.377 176.262 177.551Z" fill="#283030"/>
<path d="M118.679 246.359C118.679 246.359 123.958 251.178 123.733 252.57C123.508 253.962 120.032 250.761 120.032 250.761C120.032 250.761 123.662 257.626 122.642 259.506C121.621 261.386 112.89 255.937 113.555 248.489C114.219 241.04 119.118 244.467 118.679 246.359Z" fill="#FED4D5"/>
<path d="M157.412 189.39C157.649 188.569 163.129 180.002 156.735 175.112C152.738 172.03 124.931 192.127 118.964 200.765C112.997 209.403 123.792 215.578 127.731 211.64C131.669 207.701 157.412 189.39 157.412 189.39Z" fill="#1D6362"/>
<path d="M121.372 245.217C121.372 245.217 126.117 214.579 127.173 211.699C128.229 208.82 125.761 201.181 122.748 201.229C121.009 201.219 119.308 201.742 117.873 202.728C117.873 202.728 115.192 205.334 114.468 214.174C113.744 223.014 114.053 245.966 114.053 245.966L121.372 245.217Z" fill="#1D6362"/>
<g filter="url(#filter0_d_101_805)">
<rect x="263" y="35" width="124" height="130" rx="5" fill="white"/>
<rect x="263.5" y="35.5" width="123" height="129" rx="4.5" stroke="#C0DDDD"/>
</g>
<path fill-rule="evenodd" clip-rule="evenodd" d="M274 47.1614L274 47.1475V46.0314H275.114V54.2172L275.114 54.2427V55.3472H274V54.2311L274 54.2172V47.1614Z" fill="#3781C2"/>
<path fill-rule="evenodd" clip-rule="evenodd" d="M285.325 51.9545C285.353 53.6476 286.401 55.0016 287.664 54.979C288.928 54.9563 289.929 53.5654 289.9 51.8723C289.872 50.1789 288.824 48.8249 287.56 48.8478C286.297 48.8705 285.296 50.2614 285.325 51.9545ZM294.546 49.9074C294.575 49.9719 294.506 49.811 294.506 49.811L294.546 49.9074ZM295.305 56.9169C295.356 56.8294 295.427 56.6957 295.512 56.5286L295.305 56.9169ZM295.37 49.3233C295.384 49.3609 295.399 49.4001 295.417 49.4414L295.792 50.3651L295.37 49.3233ZM290.704 53.9732C291.392 54.6018 292.012 54.9267 292.805 54.9267C293.616 54.9329 294.337 54.5338 294.337 53.7655C294.337 53.1244 293.772 52.7494 292.762 52.3201C291.907 51.9477 291.27 51.6865 290.938 51.1475C290.978 51.3817 291 51.6237 291 51.8713C291 53.9506 289.501 55.6363 287.651 55.6363C285.802 55.6363 284.303 53.9506 284.303 51.8713C284.303 50.6177 284.848 49.5074 285.685 48.823H283.42V54.2171L283.42 54.2386V55.3471H282.413V54.2748C282.414 54.2559 282.414 54.2367 282.414 54.2171V48.823H281.527V48.1441H282.427C282.544 46.7745 283.387 45.9999 284.554 45.9999C285.312 45.9999 285.727 46.0793 285.967 46.1911V47.1195C285.964 47.1888 285.964 47.2311 285.964 47.2311C285.953 47.2299 285.928 47.2294 285.928 47.2294C285.564 46.8913 285.205 46.6396 284.365 46.6405C283.696 46.6405 283.254 47.1871 283.408 48.1441H287.175C287.331 48.1193 287.49 48.1063 287.651 48.1063C288.993 48.1063 290.15 48.9934 290.684 50.2746C290.679 50.2035 290.677 50.1293 290.677 50.0518C290.677 48.715 291.963 48.1465 293.299 48.1493C293.35 48.1491 293.4 48.1493 293.45 48.1505C293.92 48.143 294.59 48.2973 294.999 48.4055L295.792 50.3651L296.925 53.146L297.058 53.5926L297.206 53.146L298.64 49.5766C298.904 48.5938 299.951 48.1685 301.107 48.1708C301.681 48.1682 302.106 48.2379 302.615 48.418V49.4974C301.988 49.0393 301.539 48.7729 300.828 48.7729C300.203 48.7729 299.452 49.0513 299.452 49.9767C299.44 50.6721 299.855 50.7992 301.072 51.4068C302.072 51.8437 302.995 52.326 303 53.443C303 55.3053 301.176 55.6278 300.288 55.6307C299.496 55.6307 298.77 55.4338 298.365 55.0957V53.8662L298.43 53.9203C299.151 54.5976 299.788 54.9485 300.612 54.9485C301.423 54.9546 302.144 54.5553 302.144 53.787C302.144 53.146 301.579 52.7709 300.57 52.3416C299.605 51.9214 298.972 51.6431 298.713 50.9472C298.32 51.9125 296.489 56.3963 296.059 57.3547H295.072L295.518 56.5159C295.766 56.0258 296.126 55.2568 296.445 54.5212L294.546 49.9074C294.533 49.8793 294.502 49.8084 294.438 49.6631C294.293 49.329 294.157 49.0203 293.747 48.8649C293.527 48.7904 293.293 48.7514 293.021 48.7514C292.396 48.7514 291.597 49.0298 291.597 49.9552C291.584 50.6506 292.047 50.7777 293.264 51.385C294.265 51.8222 295.187 52.3045 295.193 53.4215C295.193 55.2838 293.369 55.6061 292.481 55.6092C291.776 55.6092 291.124 55.4534 290.704 55.1812V53.9732Z" fill="#3781C2"/>
<path fill-rule="evenodd" clip-rule="evenodd" d="M277.192 48.2136L277.204 49.0283L277.204 49.0832L277.214 49.0829C277.227 49.0489 277.245 49.0201 277.262 48.9986C277.671 48.5574 278.186 48.1191 279.412 48.1191C280.585 48.1191 281.344 49.1217 281.374 49.7529L281.376 54.2171V54.2393V55.3471H280.37V54.016L280.37 50.2155C280.37 49.4286 279.684 48.8596 278.843 48.8596C278.145 48.8596 277.248 49.492 277.218 50.1321V54.2183L277.219 54.2483V55.348H276.213V49.1517L276.214 48.2136H277.192Z" fill="#3781C2"/>
<path d="M276 68H370" stroke="#878787" stroke-width="3" stroke-linecap="round"/>
<path d="M276 78.5H332" stroke="#878787" stroke-width="3" stroke-linecap="round"/>
<path d="M276 95.5H367" stroke="#C0DDDD" stroke-width="3" stroke-linecap="round"/>
<path d="M276 116.5H335" stroke="#C0DDDD" stroke-width="3" stroke-linecap="round"/>
<path d="M276 105.5H367" stroke="#C0DDDD" stroke-width="3" stroke-linecap="round"/>
<path d="M276 126.5H335" stroke="#C0DDDD" stroke-width="3" stroke-linecap="round"/>
<path d="M278 146.5H302" stroke="#D8D8D8" stroke-width="10" stroke-linecap="round"/>
<path d="M313 146.5H337" stroke="#D8D8D8" stroke-width="10" stroke-linecap="round"/>
<path d="M348 146.5H372" stroke="#D8D8D8" stroke-width="10" stroke-linecap="round"/>
<rect x="263.5" y="170.5" width="123" height="129" rx="4.5" fill="white" stroke="#C0DDDD"/>
<path d="M315.794 191.228L316.935 191.989C316.565 192.534 315.679 193.47 314.147 193.47C312.245 193.47 310.829 191.999 310.829 190.127C310.829 188.135 312.26 186.784 313.987 186.784C315.724 186.784 316.575 188.165 316.85 188.911L317 189.291L312.526 191.143C312.866 191.814 313.397 192.154 314.147 192.154C314.898 192.154 315.419 191.784 315.794 191.228ZM312.286 190.022L315.273 188.781C315.108 188.365 314.618 188.07 314.032 188.07C313.286 188.07 312.25 188.731 312.286 190.022Z" fill="#FF302F"/>
<path d="M308.672 183.375H310.113V193.165H308.672V183.375Z" fill="#20B15A"/>
<path d="M306.4 187.044H307.791V192.99C307.791 195.457 306.335 196.473 304.613 196.473C302.991 196.473 302.015 195.382 301.65 194.496L302.926 193.966C303.156 194.511 303.712 195.157 304.613 195.157C305.719 195.157 306.4 194.471 306.4 193.19V192.709H306.35C306.019 193.11 305.389 193.47 304.588 193.47C302.916 193.47 301.385 192.014 301.385 190.137C301.385 188.25 302.916 186.779 304.588 186.779C305.384 186.779 306.019 187.134 306.35 187.524H306.4V187.044ZM306.5 190.137C306.5 188.956 305.714 188.095 304.713 188.095C303.702 188.095 302.851 188.956 302.851 190.137C302.851 191.303 303.702 192.149 304.713 192.149C305.714 192.154 306.5 191.303 306.5 190.137Z" fill="#3686F7"/>
<path d="M293.472 190.112C293.472 192.039 291.971 193.455 290.129 193.455C288.287 193.455 286.786 192.034 286.786 190.112C286.786 188.175 288.287 186.764 290.129 186.764C291.971 186.764 293.472 188.175 293.472 190.112ZM292.011 190.112C292.011 188.911 291.14 188.085 290.129 188.085C289.118 188.085 288.247 188.911 288.247 190.112C288.247 191.303 289.118 192.139 290.129 192.139C291.14 192.139 292.011 191.303 292.011 190.112Z" fill="#FF302F"/>
<path d="M300.774 190.127C300.774 192.054 299.273 193.47 297.431 193.47C295.589 193.47 294.088 192.054 294.088 190.127C294.088 188.19 295.589 186.784 297.431 186.784C299.273 186.784 300.774 188.185 300.774 190.127ZM299.308 190.127C299.308 188.926 298.437 188.1 297.426 188.1C296.415 188.1 295.544 188.926 295.544 190.127C295.544 191.318 296.415 192.154 297.426 192.154C298.442 192.154 299.308 191.313 299.308 190.127Z" fill="#FFBA40"/>
<path d="M281.29 192.004C279.193 192.004 277.552 190.312 277.552 188.215C277.552 186.118 279.193 184.426 281.29 184.426C282.421 184.426 283.247 184.872 283.858 185.442L284.864 184.436C284.013 183.621 282.877 183 281.29 183C278.417 183 276 185.342 276 188.215C276 191.088 278.417 193.43 281.29 193.43C282.842 193.43 284.013 192.92 284.929 191.969C285.87 191.028 286.16 189.707 286.16 188.635C286.16 188.3 286.12 187.955 286.075 187.7H281.29V189.091H284.698C284.598 189.962 284.323 190.557 283.918 190.963C283.427 191.458 282.651 192.004 281.29 192.004Z" fill="#3686F7"/>
<path d="M276 203H370" stroke="#878787" stroke-width="3" stroke-linecap="round"/>
<path d="M276 213.5H332" stroke="#878787" stroke-width="3" stroke-linecap="round"/>
<path d="M276 230.5H367" stroke="#C0DDDD" stroke-width="3" stroke-linecap="round"/>
<path d="M276 251.5H335" stroke="#C0DDDD" stroke-width="3" stroke-linecap="round"/>
<path d="M276 240.5H367" stroke="#C0DDDD" stroke-width="3" stroke-linecap="round"/>
<path d="M276 261.5H335" stroke="#C0DDDD" stroke-width="3" stroke-linecap="round"/>
<path d="M278 281.5H302" stroke="#D8D8D8" stroke-width="10" stroke-linecap="round"/>
<path d="M313 281.5H337" stroke="#D8D8D8" stroke-width="10" stroke-linecap="round"/>
<path d="M348 281.5H372" stroke="#D8D8D8" stroke-width="10" stroke-linecap="round"/>
<rect x="392.5" y="46.5" width="123" height="129" rx="4.5" fill="white" stroke="#C0DDDD"/>
<path d="M476.89 62.1361V60.8367H475.276V58.8165L475.221 58.8332L473.706 59.2969L473.676 59.306V60.8367H471.284V59.984C471.284 59.587 471.373 59.2831 471.547 59.0805C471.721 58.8802 471.97 58.7785 472.287 58.7785C472.515 58.7785 472.751 58.8322 472.988 58.9381L473.048 58.9646V57.5961L473.02 57.5858C472.798 57.5062 472.497 57.4661 472.123 57.4661C471.653 57.4661 471.225 57.5685 470.852 57.7715C470.479 57.9747 470.185 58.2649 469.98 58.6339C469.775 59.0025 469.671 59.4281 469.671 59.8992V60.8367H468.547V62.1361H469.671V67.6105H471.284V62.1361H473.676V65.615C473.676 67.0478 474.352 67.7739 475.685 67.7739C475.904 67.7739 476.134 67.7482 476.37 67.6979C476.609 67.6463 476.772 67.5948 476.868 67.5397L476.89 67.5272V66.2157L476.824 66.2591C476.736 66.3176 476.627 66.3652 476.5 66.4006C476.371 66.4367 476.264 66.4548 476.181 66.4548C475.869 66.4548 475.638 66.3706 475.494 66.2046C475.349 66.0371 475.276 65.744 475.276 65.3342V62.1361H476.89ZM464.945 66.4549C464.359 66.4549 463.898 66.2608 463.572 65.8784C463.245 65.494 463.079 64.946 463.079 64.2498C463.079 63.5316 463.245 62.9694 463.573 62.5783C463.898 62.1897 464.355 61.9925 464.932 61.9925C465.491 61.9925 465.936 62.1808 466.255 62.5526C466.576 62.9263 466.738 63.484 466.738 64.2106C466.738 64.9462 466.585 65.5112 466.284 65.8892C465.984 66.2643 465.534 66.4549 464.945 66.4549ZM465.017 60.6735C463.9 60.6735 463.012 61.0007 462.38 61.6463C461.748 62.2919 461.427 63.1853 461.427 64.3019C461.427 65.3625 461.74 66.2156 462.357 66.8371C462.974 67.4588 463.814 67.7738 464.853 67.7738C465.936 67.7738 466.806 67.4419 467.438 66.7875C468.07 66.1336 468.39 65.2487 468.39 64.1582C468.39 63.081 468.09 62.2216 467.497 61.6042C466.903 60.9865 466.069 60.6735 465.017 60.6735ZM458.826 60.6734C458.067 60.6734 457.438 60.8678 456.958 61.251C456.475 61.6364 456.23 62.142 456.23 62.7538C456.23 63.0718 456.283 63.3543 456.387 63.5938C456.492 63.8343 456.654 64.0458 456.869 64.2235C457.083 64.3996 457.412 64.5842 457.85 64.772C458.217 64.9231 458.491 65.0511 458.665 65.1519C458.835 65.2506 458.956 65.3499 459.024 65.4466C459.09 65.5412 459.124 65.6707 459.124 65.8306C459.124 66.2857 458.783 66.5071 458.082 66.5071C457.822 66.5071 457.525 66.4528 457.2 66.3457C456.875 66.2388 456.571 66.085 456.297 65.8878L456.23 65.8398V67.3928L456.255 67.4042C456.483 67.5095 456.771 67.5983 457.11 67.6683C457.448 67.7383 457.756 67.7739 458.023 67.7739C458.848 67.7739 459.511 67.5786 459.996 67.1932C460.483 66.805 460.731 66.2875 460.731 65.6545C460.731 65.198 460.598 64.8063 460.335 64.4906C460.075 64.1773 459.623 63.8898 458.993 63.6356C458.49 63.4341 458.169 63.2667 458.036 63.1383C457.908 63.0142 457.843 62.8388 457.843 62.6165C457.843 62.4195 457.923 62.2618 458.088 62.1339C458.254 62.0054 458.485 61.9401 458.774 61.9401C459.043 61.9401 459.318 61.9825 459.592 62.0657C459.865 62.1489 460.105 62.2603 460.305 62.3967L460.371 62.4417V60.9685L460.346 60.9576C460.161 60.8784 459.917 60.8106 459.621 60.7555C459.326 60.701 459.059 60.6734 458.826 60.6734ZM452.025 66.4549C451.44 66.4549 450.978 66.2608 450.653 65.8784C450.325 65.494 450.16 64.9462 450.16 64.2498C450.16 63.5316 450.325 62.9694 450.653 62.5783C450.978 62.1897 451.435 61.9925 452.012 61.9925C452.571 61.9925 453.016 62.1808 453.335 62.5526C453.656 62.9263 453.818 63.484 453.818 64.2106C453.818 64.9462 453.665 65.5112 453.364 65.8892C453.064 66.2643 452.614 66.4549 452.025 66.4549ZM452.097 60.6735C450.98 60.6735 450.092 61.0007 449.46 61.6463C448.828 62.2919 448.507 63.1853 448.507 64.3019C448.507 65.3629 448.82 66.2156 449.437 66.8371C450.055 67.4588 450.894 67.7738 451.933 67.7738C453.016 67.7738 453.886 67.4419 454.518 66.7875C455.15 66.1336 455.471 65.2487 455.471 64.1582C455.471 63.081 455.17 62.2216 454.577 61.6042C453.983 60.9865 453.149 60.6735 452.097 60.6735ZM446.059 62.0097V60.8367H444.465V67.6103H446.059V64.1454C446.059 63.5561 446.192 63.0721 446.456 62.7065C446.716 62.3453 447.063 62.1622 447.486 62.1622C447.63 62.1622 447.791 62.1859 447.965 62.2327C448.138 62.2793 448.263 62.3297 448.337 62.3829L448.404 62.4314V60.8251L448.378 60.814C448.23 60.7509 448.02 60.7191 447.754 60.7191C447.354 60.7191 446.995 60.8478 446.689 61.101C446.419 61.3237 446.224 61.629 446.076 62.0097H446.059ZM441.612 60.6734C440.881 60.6734 440.229 60.8302 439.674 61.1392C439.118 61.4489 438.689 61.8911 438.396 62.4533C438.105 63.0142 437.957 63.6694 437.957 64.4C437.957 65.04 438.101 65.6274 438.384 66.1449C438.667 66.6634 439.068 67.0691 439.576 67.3504C440.083 67.6314 440.669 67.7739 441.318 67.7739C442.075 67.7739 442.722 67.6225 443.24 67.324L443.261 67.3119V65.8522L443.194 65.901C442.959 66.072 442.697 66.2086 442.415 66.3069C442.133 66.4052 441.876 66.4549 441.651 66.4549C441.026 66.4549 440.524 66.2592 440.16 65.8736C439.795 65.4873 439.609 64.9451 439.609 64.2627C439.609 63.576 439.803 63.0198 440.183 62.6093C440.562 62.2001 441.065 61.9926 441.678 61.9926C442.201 61.9926 442.712 62.1699 443.194 62.5201L443.261 62.5687V61.0306L443.24 61.0184C443.058 60.9167 442.81 60.8327 442.502 60.769C442.196 60.7055 441.897 60.6734 441.612 60.6734ZM436.86 60.8367H435.267V67.6103H436.86V60.8367ZM436.08 57.9511C435.817 57.9511 435.589 58.0403 435.401 58.2172C435.212 58.3947 435.116 58.618 435.116 58.8816C435.116 59.1411 435.211 59.3603 435.398 59.533C435.583 59.7052 435.813 59.7925 436.08 59.7925C436.346 59.7925 436.577 59.7052 436.764 59.5333C436.954 59.3603 437.049 59.1411 437.049 58.8816C437.049 58.6272 436.956 58.4061 436.772 58.2244C436.589 58.043 436.355 57.9511 436.08 57.9511ZM432.104 60.3369V67.6103H433.73V58.1585H431.48L428.619 65.179L425.843 58.1585H423.5V67.6103H425.029V60.3362H425.081L428.013 67.6103H429.166L432.052 60.3369H432.104Z" fill="#706D6E"/>
<path d="M410.496 62.4957H403V55H410.496V62.4957Z" fill="#F1511B"/>
<path d="M418.772 62.4957H411.276V55H418.772V62.4957Z" fill="#80CC28"/>
<path d="M410.495 70.7746H403V63.2789H410.495V70.7746Z" fill="#00ADEF"/>
<path d="M418.772 70.7746H411.276V63.2789H418.772V70.7746Z" fill="#FBBC09"/>
<path d="M405 79H499" stroke="#878787" stroke-width="3" stroke-linecap="round"/>
<path d="M405 89.5H461" stroke="#878787" stroke-width="3" stroke-linecap="round"/>
<path d="M405 106.5H496" stroke="#C0DDDD" stroke-width="3" stroke-linecap="round"/>
<path d="M405 127.5H464" stroke="#C0DDDD" stroke-width="3" stroke-linecap="round"/>
<path d="M405 116.5H496" stroke="#C0DDDD" stroke-width="3" stroke-linecap="round"/>
<path d="M405 137.5H464" stroke="#C0DDDD" stroke-width="3" stroke-linecap="round"/>
<path d="M407 157.5H431" stroke="#D8D8D8" stroke-width="10" stroke-linecap="round"/>
<path d="M442 157.5H466" stroke="#D8D8D8" stroke-width="10" stroke-linecap="round"/>
<path d="M477 157.5H501" stroke="#D8D8D8" stroke-width="10" stroke-linecap="round"/>
<rect x="392.5" y="181.5" width="123" height="129" rx="4.5" fill="white" stroke="#C0DDDD"/>
<path d="M405 190V191.163H413.175V190H405ZM414.334 190V191.163H425.984C425.984 191.163 424.794 190 423.218 190H414.334ZM428.269 190V191.163H435.317L434.899 190H428.269ZM440.37 190L439.952 191.163H446.936V190H440.37ZM405 192.262V193.425H413.175V192.262H405ZM414.334 192.264V193.425H427.335C427.335 193.425 427.184 192.53 426.919 192.264H414.334ZM428.269 192.264V193.425H436.09L435.703 192.264H428.269ZM439.534 192.264L439.146 193.425H446.936V192.264H439.534ZM407.349 194.524V195.689H410.89V194.524H407.349ZM416.683 194.524V195.689H420.223V194.524H416.683ZM423.667 194.524V195.689H427.208C427.208 195.689 427.432 195.074 427.432 194.524H423.667H423.667ZM430.618 194.524V195.689H436.895L436.477 194.524H430.618ZM438.762 194.524L438.342 195.689H444.651V194.524H438.762ZM407.349 196.787V197.951H410.89V196.787H407.349ZM416.683 196.787V197.951H425.726C425.726 197.951 426.482 197.354 426.724 196.787H416.683ZM430.618 196.787V197.951H434.159V197.303L434.384 197.951H440.869L441.11 197.303V197.951H444.651V196.787H438.004L437.652 197.773L437.297 196.787H430.618ZM407.349 199.049V200.213H410.89V199.049H407.349ZM416.683 199.049V200.213H426.724C426.482 199.648 425.726 199.049 425.726 199.049H416.683ZM430.618 199.049V200.213H434.159V199.049H430.618ZM434.802 199.049L435.23 200.213H440.093L440.5 199.049H434.802ZM441.11 199.049V200.213H444.651V199.049H441.11ZM407.349 201.311V202.474H410.89V201.311H407.349ZM416.683 201.311V202.474H420.223V201.311H416.683ZM423.667 201.311V202.474H427.432C427.432 201.926 427.208 201.311 427.208 201.311H423.667H423.667ZM430.618 201.311V202.474H434.159V201.311H430.618ZM435.606 201.311L436.021 202.474H439.281L439.699 201.311H435.606ZM441.11 201.311V202.474H444.651V201.311H441.11ZM405.064 203.573V204.738H413.239V203.573H405.064ZM414.334 203.573V204.738H426.919C427.184 204.471 427.335 203.573 427.335 203.573H414.334ZM428.333 203.573V204.738H434.159V203.573H428.333ZM436.411 203.573L436.838 204.738H438.497L438.897 203.573H436.411ZM441.11 203.573V204.738H447V203.573H441.11ZM405.064 205.837V207H413.239V205.837H405.064ZM414.334 205.837V206.998H423.218C424.794 206.998 425.984 205.837 425.984 205.837H414.333H414.334ZM428.333 205.837V207H434.159V205.837H428.333ZM437.22 205.837L437.63 206.997L437.701 206.998L438.118 205.837H437.22ZM441.11 205.837V207H447V205.837H441.11Z" fill="#1F70C1"/>
<path d="M405 214H499" stroke="#878787" stroke-width="3" stroke-linecap="round"/>
<path d="M405 224.5H461" stroke="#878787" stroke-width="3" stroke-linecap="round"/>
<path d="M405 241.5H496" stroke="#C0DDDD" stroke-width="3" stroke-linecap="round"/>
<path d="M405 262.5H464" stroke="#C0DDDD" stroke-width="3" stroke-linecap="round"/>
<path d="M405 251.5H496" stroke="#C0DDDD" stroke-width="3" stroke-linecap="round"/>
<path d="M405 272.5H464" stroke="#C0DDDD" stroke-width="3" stroke-linecap="round"/>
<path d="M407 292.5H431" stroke="#D8D8D8" stroke-width="10" stroke-linecap="round"/>
<path d="M442 292.5H466" stroke="#D8D8D8" stroke-width="10" stroke-linecap="round"/>
<path d="M477 292.5H501" stroke="#D8D8D8" stroke-width="10" stroke-linecap="round"/>
<defs>
<filter id="filter0_d_101_805" x="261" y="34" width="128" height="134" filterUnits="userSpaceOnUse" color-interpolation-filters="sRGB">
<feFlood flood-opacity="0" result="BackgroundImageFix"/>
<feColorMatrix in="SourceAlpha" type="matrix" values="0 0 0 0 0 0 0 0 0 0 0 0 0 0 0 0 0 0 127 0" result="hardAlpha"/>
<feOffset dy="1"/>
<feGaussianBlur stdDeviation="1"/>
<feComposite in2="hardAlpha" operator="out"/>
<feColorMatrix type="matrix" values="0 0 0 0 0 0 0 0 0 0 0 0 0 0 0 0 0 0 0.15 0"/>
<feBlend mode="normal" in2="BackgroundImageFix" result="effect1_dropShadow_101_805"/>
<feBlend mode="normal" in="SourceGraphic" in2="effect1_dropShadow_101_805" result="shape"/>
</filter>
<linearGradient id="paint0_linear_101_805" x1="0" y1="353.261" x2="640" y2="353.261" gradientUnits="userSpaceOnUse">
<stop stop-color="#828387"/>
<stop offset="0.01" stop-color="#D0D1D3"/>
<stop offset="0.03" stop-color="#929397"/>
<stop offset="0.07" stop-color="#D1D2D5"/>
<stop offset="0.51" stop-color="#F3F3F4"/>
<stop offset="0.93" stop-color="#D1D2D5"/>
<stop offset="0.97" stop-color="#929397"/>
<stop offset="0.99" stop-color="#E6E6E6"/>
<stop offset="1" stop-color="#828387"/>
</linearGradient>
<linearGradient id="paint1_linear_101_805" x1="272.351" y1="351.118" x2="367.649" y2="351.118" gradientUnits="userSpaceOnUse">
<stop stop-color="#999999"/>
<stop offset="0.1" stop-color="#D8D9DB"/>
<stop offset="0.5" stop-color="#D7D8DB"/>
<stop offset="0.9" stop-color="#D8D9DB"/>
<stop offset="1" stop-color="#999999"/>
</linearGradient>
<linearGradient id="paint2_linear_101_805" x1="319.993" y1="367.471" x2="319.993" y2="359.182" gradientUnits="userSpaceOnUse">
<stop stop-color="#2B2C2E"/>
<stop offset="0.12" stop-color="#3C3D40"/>
<stop offset="0.34" stop-color="#5F6064"/>
<stop offset="0.73" stop-color="#88898D"/>
<stop offset="1" stop-color="#909195"/>
</linearGradient>
<linearGradient id="paint3_linear_101_805" x1="319.993" y1="13.0258" x2="319.993" y2="8.55702" gradientUnits="userSpaceOnUse">
<stop stop-color="#666666"/>
<stop offset="1" stop-color="#010104"/>
</linearGradient>
<linearGradient id="paint4_linear_101_805" x1="319.993" y1="10.0513" x2="319.993" y2="11.8276" gradientUnits="userSpaceOnUse">
<stop stop-color="#0B131C"/>
<stop offset="1" stop-color="#354039"/>
</linearGradient>
<linearGradient id="paint5_linear_101_805" x1="319.993" y1="11.5878" x2="319.993" y2="10.1499" gradientUnits="userSpaceOnUse">
<stop stop-color="#4B4E4F"/>
<stop offset="0.28" stop-color="#3A3D3E"/>
<stop offset="0.55" stop-color="#2F3232"/>
<stop offset="0.76" stop-color="#242727"/>
<stop offset="1" stop-color="#1C201F"/>
</linearGradient>
<linearGradient id="paint6_linear_101_805" x1="320.43" y1="11.3341" x2="319.57" y2="10.4735" gradientUnits="userSpaceOnUse">
<stop stop-color="#231F20"/>
<stop offset="0.08" stop-color="#222326"/>
<stop offset="0.2" stop-color="#1F2C37"/>
<stop offset="0.33" stop-color="#1A3D54"/>
<stop offset="0.47" stop-color="#13537C"/>
<stop offset="0.62" stop-color="#0B71AE"/>
<stop offset="0.78" stop-color="#0095EE"/>
<stop offset="0.8" stop-color="#0488D6"/>
<stop offset="0.84" stop-color="#0D689F"/>
<stop offset="0.88" stop-color="#154E72"/>
<stop offset="0.91" stop-color="#1B394E"/>
<stop offset="0.95" stop-color="#1F2B35"/>
<stop offset="0.98" stop-color="#222225"/>
<stop offset="1" stop-color="#231F20"/>
</linearGradient>
<radialGradient id="paint7_radial_101_805" cx="0" cy="0" r="1" gradientUnits="userSpaceOnUse" gradientTransform="translate(319.993 10.8971) scale(0.606632 0.606178)">
<stop stop-color="#231F20"/>
<stop offset="0.2" stop-color="#175168"/>
<stop offset="0.38" stop-color="#0D78A2"/>
<stop offset="0.54" stop-color="#0695CB"/>
<stop offset="0.66" stop-color="#02A7E5"/>
<stop offset="0.73" stop-color="#00ADEE"/>
<stop offset="0.76" stop-color="#02A6E4"/>
<stop offset="0.81" stop-color="#0693C8"/>
<stop offset="0.87" stop-color="#0E749C"/>
<stop offset="0.94" stop-color="#184A5F"/>
<stop offset="1" stop-color="#231F20"/>
</radialGradient>
<linearGradient id="paint8_linear_101_805" x1="309.144" y1="174.692" x2="578.448" y2="174.692" gradientUnits="userSpaceOnUse">
<stop stop-color="#ECF1F2"/>
<stop offset="1" stop-color="#808080"/>
</linearGradient>
<linearGradient id="paint9_linear_101_805" x1="479" y1="1.10487" x2="345" y2="85.5" gradientUnits="userSpaceOnUse">
<stop stop-color="#B7FFE2" stop-opacity="0.67"/>
<stop offset="1" stop-color="white"/>
</linearGradient>
</defs>
</svg>
