<svg width="638" height="376" viewBox="0 0 638 376" fill="none" xmlns="http://www.w3.org/2000/svg">
<path d="M563.188 0.297821H76.7554C68.3567 0.297821 61.5482 7.10465 61.5482 15.5013V334.648C61.5482 343.044 68.3567 349.851 76.7554 349.851H563.188C571.587 349.851 578.395 343.044 578.395 334.648V15.5013C578.395 7.10465 571.587 0.297821 563.188 0.297821Z" fill="#595959"/>
<path d="M562.441 2.58258H77.5173C69.96 2.58258 63.8336 8.70747 63.8336 16.2629V333.886C63.8336 341.442 69.96 347.566 77.5173 347.566H562.441C569.998 347.566 576.124 341.442 576.124 333.886V16.2629C576.124 8.70747 569.998 2.58258 562.441 2.58258Z" fill="#4A4B4D"/>
<path d="M562.44 4.09164H77.5172C70.8013 4.09164 65.3571 9.53459 65.3571 16.2488V333.886C65.3571 340.6 70.8013 346.043 77.5172 346.043H562.44C569.156 346.043 574.601 340.6 574.601 333.886V16.2488C574.601 9.53459 569.156 4.09164 562.44 4.09164Z" fill="#1C2933"/>
<path d="M559.393 19.2951H80.5502V330.854H559.393V19.2951Z" fill="#BDC3C7"/>
<path d="M557.884 20.8183H82.0737V329.331H557.884V20.8183Z" fill="#F7F9F9"/>
<path d="M557.884 20.8183H82.0737V329.331H557.884V20.8183Z" fill="white"/>
<path d="M639.958 347.778H0V359.653H639.958V347.778Z" fill="url(#paint0_linear_94_251)"/>
<path d="M361.531 355.366H278.018C276.277 354.964 274.76 353.902 273.786 352.404C272.814 351.056 272.318 349.424 272.375 347.764H367.695C367.48 349.613 366.774 351.371 365.65 352.855C364.576 354.106 363.134 354.985 361.531 355.366Z" fill="url(#paint1_linear_94_251)"/>
<path d="M0 359.639C0 359.639 3.66778 362.671 14.1069 365.647C22.7262 368.186 37.5948 367.918 37.5948 367.918H602.405C602.405 367.918 617.232 368.143 625.893 365.647C636.276 362.671 640 359.639 640 359.639H0Z" fill="url(#paint2_linear_94_251)"/>
<path d="M0 377.452C0 377.452 3.66778 373.982 14.1069 370.541C22.7685 367.72 37.5948 367.932 37.5948 367.932H602.405C602.405 367.932 617.232 367.678 625.893 370.541C636.276 373.982 640 377.452 640 377.452H0Z" fill="#A4A4A5"/>
<path d="M322.243 11.1998C322.243 11.802 322.004 12.3795 321.578 12.8054C321.152 13.2312 320.574 13.4704 319.972 13.4704C319.372 13.4667 318.798 13.2258 318.375 12.8004C317.952 12.375 317.715 11.7996 317.715 11.1998C317.715 10.6013 317.952 10.0274 318.376 9.60417C318.799 9.18098 319.373 8.94324 319.972 8.94324C320.572 8.94323 321.147 9.18052 321.573 9.6033C321.998 10.0261 322.239 10.6 322.243 11.1998Z" fill="url(#paint3_linear_94_251)"/>
<path d="M319.083 11.1998C319.083 10.9641 319.177 10.7381 319.343 10.5715C319.51 10.4049 319.736 10.3113 319.972 10.3113C320.09 10.3094 320.207 10.331 320.316 10.3748C320.426 10.4186 320.525 10.4838 320.609 10.5665C320.693 10.6492 320.76 10.7477 320.806 10.8565C320.851 10.9652 320.875 11.0819 320.875 11.1998C320.877 11.3188 320.855 11.4371 320.81 11.5474C320.765 11.6578 320.699 11.7581 320.614 11.8423C320.53 11.9265 320.43 11.9929 320.32 12.0376C320.209 12.0823 320.091 12.1043 319.972 12.1024C319.854 12.1024 319.737 12.079 319.628 12.0334C319.52 11.9879 319.421 11.9212 319.338 11.8372C319.256 11.7532 319.19 11.6536 319.147 11.5441C319.103 11.4347 319.081 11.3176 319.083 11.1998Z" fill="url(#paint4_linear_94_251)"/>
<path d="M320.705 11.1998C320.705 11.3943 320.628 11.5808 320.49 11.7183C320.353 11.8559 320.166 11.9331 319.972 11.9331C319.876 11.9332 319.781 11.9141 319.693 11.8771C319.605 11.84 319.525 11.7858 319.458 11.7175C319.391 11.6492 319.338 11.5682 319.303 11.4793C319.268 11.3904 319.25 11.2954 319.252 11.1998C319.252 11.009 319.328 10.826 319.463 10.6912C319.598 10.5563 319.781 10.4805 319.972 10.4805C320.067 10.4786 320.163 10.4958 320.251 10.5311C320.34 10.5664 320.421 10.6191 320.49 10.6861C320.558 10.7531 320.612 10.833 320.649 10.9212C320.686 11.0094 320.705 11.1041 320.705 11.1998Z" fill="url(#paint5_linear_94_251)"/>
<path d="M320.593 11.2139C320.589 11.376 320.522 11.5302 320.406 11.6436C320.29 11.7569 320.134 11.8204 319.972 11.8203C319.811 11.8203 319.657 11.7564 319.543 11.6427C319.429 11.529 319.365 11.3747 319.365 11.2139C319.364 11.1331 319.378 11.0527 319.407 10.9775C319.437 10.9022 319.482 10.8337 319.538 10.7759C319.595 10.7181 319.662 10.6722 319.737 10.6408C319.811 10.6094 319.891 10.5933 319.972 10.5933C320.137 10.5933 320.295 10.6587 320.411 10.7751C320.527 10.8915 320.593 11.0493 320.593 11.2139Z" fill="url(#paint6_linear_94_251)"/>
<path style="mix-blend-mode:multiply" d="M320.593 11.2139C320.589 11.376 320.522 11.5302 320.406 11.6436C320.29 11.7569 320.134 11.8204 319.972 11.8203C319.811 11.8203 319.657 11.7564 319.543 11.6427C319.429 11.529 319.365 11.3747 319.365 11.2139C319.364 11.1331 319.378 11.0527 319.407 10.9775C319.437 10.9022 319.482 10.8337 319.538 10.7759C319.595 10.7181 319.662 10.6722 319.737 10.6408C319.811 10.6094 319.891 10.5933 319.972 10.5933C320.137 10.5933 320.295 10.6587 320.411 10.7751C320.527 10.8915 320.593 11.0493 320.593 11.2139Z" fill="url(#paint7_radial_94_251)"/>
<path style="mix-blend-mode:hard-light" opacity="0.5" d="M309.124 0.297821H563.202C567.233 0.297819 571.099 1.89767 573.95 4.74583C576.802 7.59399 578.406 11.4574 578.409 15.4872V334.648C578.409 338.68 576.807 342.547 573.955 345.398C571.103 348.249 567.235 349.851 563.202 349.851H381.689L309.124 0.297821Z" fill="url(#paint8_linear_94_251)"/>
<path d="M173.453 89.8873L186.666 94.2337V75.2018H174.677L173.453 89.8873Z" fill="#EFA4A7"/>
<path d="M185.028 80.469C192.299 80.469 198.194 74.5717 198.194 67.2972C198.194 60.0226 192.299 54.1254 185.028 54.1254C177.756 54.1254 171.861 60.0226 171.861 67.2972C171.861 74.5717 177.756 80.469 185.028 80.469Z" fill="#EFA4A7"/>
<path d="M181.416 65.994C183.624 65.9238 185.067 63.6998 185.925 61.6632C186.783 59.6266 187.664 57.2934 189.708 56.4507C191.377 55.764 194.325 60.4069 195.651 59.1662C197.024 57.8787 195.682 51.2616 194.224 50.0677C192.765 48.8738 190.768 48.6475 188.889 48.5617C184.302 48.351 179.685 48.7177 175.184 49.6619C172.4 50.2394 169.537 51.1133 167.533 53.1265C164.99 55.6782 164.342 59.533 164.155 63.1302C163.968 66.8133 164.179 70.6681 165.973 73.8908C167.767 77.1135 171.511 79.4935 175.098 78.6664C175.457 76.7156 175.098 74.7102 174.95 72.7282C174.81 70.7461 174.95 68.6081 176.167 67.024C177.384 65.44 179.958 64.8235 181.37 66.2203" fill="#36344E"/>
<path d="M165.216 70.5588C163.898 69.5912 162.322 68.7875 160.7 68.9826C158.945 69.1933 157.471 70.6369 157.018 72.3458C156.566 74.0547 157.073 75.9352 158.157 77.332C159.241 78.7288 160.848 79.6495 162.556 80.1099C163.539 80.3752 164.623 80.4845 165.559 80.0865C166.948 79.4935 167.689 77.7222 167.15 76.3098" fill="#36344E"/>
<path d="M190.191 301.635H177.813V319.2H190.191V301.635Z" fill="#EFA4A7"/>
<path d="M202.25 329.835C203.552 329.835 204.707 329.804 205.58 329.726C208.872 329.422 212.007 326.995 213.583 325.575C214.293 324.935 214.519 323.921 214.152 323.047C213.887 322.415 213.357 321.946 212.701 321.759L204.012 319.278L189.942 309.781L189.786 310.062C189.723 310.164 188.343 312.653 187.882 314.338C187.703 314.978 187.75 315.509 188.023 315.922C188.21 316.211 188.467 316.375 188.678 316.469C188.421 316.734 187.625 317.272 185.168 317.67C181.58 318.24 180.823 314.518 180.792 314.362L180.769 314.237L180.66 314.167C178.952 313.066 177.899 312.567 177.54 312.676C177.314 312.746 176.931 312.856 175.917 322.992C175.816 323.312 175.098 325.645 175.59 327.869C176.12 330.296 186.712 329.461 188.826 329.266C188.889 329.266 196.821 329.835 202.25 329.835Z" fill="#36344E"/>
<path d="M142.572 287.828L133.281 302.732L143.785 309.285L153.076 294.381L142.572 287.828Z" fill="#EFA4A7"/>
<path d="M156.519 327.424C157.97 327.424 159.304 327.252 160.256 327.081C161.192 326.917 161.925 326.176 162.073 325.231C162.182 324.56 161.979 323.882 161.527 323.374L155.466 316.671L148.556 301.166L148.275 301.323C148.166 301.377 145.678 302.758 144.398 303.944C143.907 304.397 143.665 304.873 143.673 305.365C143.673 305.708 143.806 305.981 143.938 306.176C143.58 306.27 142.62 306.301 140.327 305.333C136.981 303.921 138.307 300.363 138.369 300.214L138.416 300.097L138.361 299.98C137.496 298.139 136.872 297.163 136.505 297.062C136.279 297 135.897 296.898 129.672 304.951C129.415 305.162 127.574 306.769 126.81 308.915C125.975 311.256 135.405 316.149 137.301 317.108C137.355 317.155 147.23 324.334 151.278 326.371C152.885 327.182 154.788 327.432 156.519 327.432L156.519 327.424Z" fill="#36344E"/>
<path d="M168.703 154.724H203.357L206.501 186.975L192.742 306.137H175.052L182.126 237.313L153.431 299.45L137.706 288.439L160.115 230.431C160.115 230.431 152.112 179.897 158.399 167.311C164.686 154.724 168.703 154.724 168.703 154.724Z" fill="#36344E"/>
<path d="M151.465 156.691H206.5L189.988 85.5021H166.012L151.465 156.691Z" fill="#1D6362"/>
<path d="M220.166 84.1051C221.047 79.7744 219.433 75.8181 216.578 75.2719C213.715 74.7257 210.689 77.7923 209.808 82.1231C209.433 83.8476 209.488 85.6345 209.979 87.3434L206.5 105.736L215.494 107.156L217.966 88.8729C219.082 87.4761 219.838 85.8452 220.166 84.1051Z" fill="#EFA4A7"/>
<path d="M166.596 85.5021H187.742L202 114.023L207.374 92.6498L219.191 93.9061C219.191 93.9061 216.398 135.669 204.176 134.256C191.954 132.844 163.461 95.217 166.596 85.5021Z" fill="#1D6362"/>
<path d="M142.979 193.982C142.097 198.313 143.712 202.269 146.567 202.815C149.429 203.361 152.456 200.295 153.337 195.964C153.711 194.239 153.657 192.452 153.165 190.744L156.644 172.351L147.651 170.931L145.178 189.214C144.063 190.611 143.306 192.242 142.979 193.982Z" fill="#EFA4A7"/>
<path d="M178.647 85.5019C178.647 85.5019 166.628 84.9947 166.004 85.5019C162.728 88.1862 143.486 184.868 143.486 184.868H155.669L178.64 85.5019H178.647Z" fill="#1D6362"/>
<path d="M413.588 158.35H415.178L419.318 169H417.548L416.423 166.105H412.313L411.203 169H409.418L413.588 158.35ZM416.093 164.86L414.383 160.195L412.613 164.86H416.093ZM419.903 165.955V161.155H421.553V165.625C421.553 166.325 421.678 166.855 421.928 167.215C422.188 167.565 422.563 167.74 423.053 167.74C423.363 167.74 423.663 167.675 423.953 167.545C424.253 167.415 424.523 167.225 424.763 166.975C425.013 166.715 425.213 166.405 425.363 166.045V161.155H427.013V167.14C427.013 167.33 427.048 167.465 427.118 167.545C427.188 167.625 427.303 167.67 427.463 167.68V169C427.293 169.03 427.153 169.05 427.043 169.06C426.933 169.07 426.828 169.075 426.728 169.075C426.428 169.075 426.178 168.995 425.978 168.835C425.778 168.665 425.663 168.45 425.633 168.19L425.603 167.41C425.253 167.98 424.798 168.415 424.238 168.715C423.678 169.005 423.063 169.15 422.393 169.15C421.573 169.15 420.953 168.88 420.533 168.34C420.113 167.8 419.903 167.005 419.903 165.955ZM433.169 168.595C433.029 168.665 432.854 168.74 432.644 168.82C432.434 168.9 432.194 168.97 431.924 169.03C431.664 169.09 431.394 169.12 431.114 169.12C430.774 169.12 430.459 169.06 430.169 168.94C429.879 168.82 429.644 168.63 429.464 168.37C429.294 168.1 429.209 167.755 429.209 167.335V162.43H428.174V161.155H429.209V158.575H430.859V161.155H432.569V162.43H430.859V166.81C430.879 167.08 430.964 167.28 431.114 167.41C431.274 167.54 431.469 167.605 431.699 167.605C431.929 167.605 432.149 167.565 432.359 167.485C432.569 167.405 432.724 167.34 432.824 167.29L433.169 168.595ZM437.434 169.15C436.814 169.15 436.259 169.045 435.769 168.835C435.279 168.615 434.854 168.315 434.494 167.935C434.144 167.555 433.874 167.125 433.684 166.645C433.494 166.155 433.399 165.635 433.399 165.085C433.399 164.535 433.494 164.015 433.684 163.525C433.874 163.035 434.144 162.605 434.494 162.235C434.854 161.855 435.279 161.56 435.769 161.35C436.269 161.13 436.824 161.02 437.434 161.02C438.044 161.02 438.594 161.13 439.084 161.35C439.584 161.56 440.009 161.855 440.359 162.235C440.719 162.605 440.994 163.035 441.184 163.525C441.374 164.015 441.469 164.535 441.469 165.085C441.469 165.635 441.374 166.155 441.184 166.645C440.994 167.125 440.719 167.555 440.359 167.935C440.009 168.315 439.584 168.615 439.084 168.835C438.594 169.045 438.044 169.15 437.434 169.15ZM435.094 165.1C435.094 165.6 435.199 166.05 435.409 166.45C435.619 166.85 435.899 167.165 436.249 167.395C436.599 167.625 436.994 167.74 437.434 167.74C437.864 167.74 438.254 167.625 438.604 167.395C438.964 167.155 439.249 166.835 439.459 166.435C439.669 166.025 439.774 165.575 439.774 165.085C439.774 164.585 439.669 164.135 439.459 163.735C439.249 163.335 438.964 163.02 438.604 162.79C438.254 162.55 437.864 162.43 437.434 162.43C436.994 162.43 436.599 162.55 436.249 162.79C435.899 163.03 435.619 163.35 435.409 163.75C435.199 164.14 435.094 164.59 435.094 165.1ZM450.599 169.075C449.899 169.075 449.244 168.93 448.634 168.64C448.024 168.35 447.489 167.95 447.029 167.44C446.579 166.93 446.224 166.35 445.964 165.7C445.714 165.05 445.589 164.36 445.589 163.63C445.589 162.9 445.714 162.215 445.964 161.575C446.224 160.935 446.579 160.365 447.029 159.865C447.489 159.365 448.024 158.975 448.634 158.695C449.254 158.415 449.929 158.275 450.659 158.275C451.669 158.275 452.519 158.49 453.209 158.92C453.909 159.34 454.434 159.9 454.784 160.6L453.494 161.53C453.214 160.95 452.814 160.515 452.294 160.225C451.784 159.935 451.224 159.79 450.614 159.79C450.114 159.79 449.659 159.895 449.249 160.105C448.839 160.315 448.484 160.605 448.184 160.975C447.894 161.335 447.674 161.75 447.524 162.22C447.374 162.68 447.299 163.165 447.299 163.675C447.299 164.215 447.384 164.72 447.554 165.19C447.724 165.66 447.964 166.075 448.274 166.435C448.584 166.785 448.949 167.06 449.369 167.26C449.789 167.46 450.244 167.56 450.734 167.56C451.314 167.56 451.864 167.415 452.384 167.125C452.914 166.825 453.409 166.38 453.869 165.79V167.5C452.939 168.55 451.849 169.075 450.599 169.075ZM453.704 164.86H451.469V163.615H455.114V169H453.704V164.86ZM460.075 169.15C459.465 169.15 458.91 169.045 458.41 168.835C457.92 168.615 457.495 168.32 457.135 167.95C456.775 167.57 456.495 167.14 456.295 166.66C456.105 166.17 456.01 165.65 456.01 165.1C456.01 164.36 456.18 163.685 456.52 163.075C456.86 162.455 457.335 161.96 457.945 161.59C458.555 161.21 459.27 161.02 460.09 161.02C460.91 161.02 461.615 161.21 462.205 161.59C462.805 161.96 463.27 162.45 463.6 163.06C463.93 163.67 464.095 164.325 464.095 165.025C464.095 165.145 464.09 165.26 464.08 165.37C464.07 165.47 464.06 165.555 464.05 165.625H457.765C457.795 166.085 457.92 166.49 458.14 166.84C458.37 167.18 458.66 167.45 459.01 167.65C459.36 167.84 459.735 167.935 460.135 167.935C460.575 167.935 460.99 167.825 461.38 167.605C461.78 167.385 462.05 167.095 462.19 166.735L463.6 167.14C463.43 167.52 463.17 167.865 462.82 168.175C462.48 168.475 462.075 168.715 461.605 168.895C461.135 169.065 460.625 169.15 460.075 169.15ZM457.72 164.53H462.46C462.43 164.08 462.3 163.685 462.07 163.345C461.85 162.995 461.565 162.725 461.215 162.535C460.875 162.335 460.495 162.235 460.075 162.235C459.665 162.235 459.285 162.335 458.935 162.535C458.595 162.725 458.315 162.995 458.095 163.345C457.875 163.685 457.75 164.08 457.72 164.53ZM472.176 169H470.526V164.605C470.526 163.875 470.406 163.34 470.166 163C469.936 162.66 469.591 162.49 469.131 162.49C468.811 162.49 468.491 162.57 468.171 162.73C467.861 162.89 467.581 163.11 467.331 163.39C467.081 163.66 466.901 163.975 466.791 164.335V169H465.141V161.155H466.641V162.73C466.841 162.38 467.101 162.08 467.421 161.83C467.751 161.57 468.121 161.37 468.531 161.23C468.941 161.09 469.376 161.02 469.836 161.02C470.306 161.02 470.691 161.105 470.991 161.275C471.301 161.445 471.541 161.68 471.711 161.98C471.891 162.27 472.011 162.61 472.071 163C472.141 163.38 472.176 163.785 472.176 164.215V169ZM477.346 169.15C476.736 169.15 476.181 169.045 475.681 168.835C475.191 168.615 474.766 168.32 474.406 167.95C474.046 167.57 473.766 167.14 473.566 166.66C473.376 166.17 473.281 165.65 473.281 165.1C473.281 164.36 473.451 163.685 473.791 163.075C474.131 162.455 474.606 161.96 475.216 161.59C475.826 161.21 476.541 161.02 477.361 161.02C478.181 161.02 478.886 161.21 479.476 161.59C480.076 161.96 480.541 162.45 480.871 163.06C481.201 163.67 481.366 164.325 481.366 165.025C481.366 165.145 481.361 165.26 481.351 165.37C481.341 165.47 481.331 165.555 481.321 165.625H475.036C475.066 166.085 475.191 166.49 475.411 166.84C475.641 167.18 475.931 167.45 476.281 167.65C476.631 167.84 477.006 167.935 477.406 167.935C477.846 167.935 478.261 167.825 478.651 167.605C479.051 167.385 479.321 167.095 479.461 166.735L480.871 167.14C480.701 167.52 480.441 167.865 480.091 168.175C479.751 168.475 479.346 168.715 478.876 168.895C478.406 169.065 477.896 169.15 477.346 169.15ZM474.991 164.53H479.731C479.701 164.08 479.571 163.685 479.341 163.345C479.121 162.995 478.836 162.725 478.486 162.535C478.146 162.335 477.766 162.235 477.346 162.235C476.936 162.235 476.556 162.335 476.206 162.535C475.866 162.725 475.586 162.995 475.366 163.345C475.146 163.685 475.021 164.08 474.991 164.53ZM486.822 162.58C486.182 162.59 485.612 162.735 485.112 163.015C484.622 163.295 484.272 163.69 484.062 164.2V169H482.412V161.155H483.942V162.91C484.212 162.37 484.567 161.94 485.007 161.62C485.447 161.29 485.912 161.11 486.402 161.08C486.502 161.08 486.582 161.08 486.642 161.08C486.712 161.08 486.772 161.085 486.822 161.095V162.58ZM487.138 166.705C487.138 166.205 487.278 165.77 487.558 165.4C487.848 165.02 488.243 164.73 488.743 164.53C489.243 164.32 489.823 164.215 490.483 164.215C490.833 164.215 491.188 164.24 491.548 164.29C491.918 164.34 492.243 164.42 492.523 164.53V164.035C492.523 163.485 492.358 163.055 492.028 162.745C491.698 162.435 491.223 162.28 490.603 162.28C490.163 162.28 489.748 162.36 489.358 162.52C488.968 162.67 488.553 162.885 488.113 163.165L487.558 162.055C488.078 161.705 488.598 161.445 489.118 161.275C489.648 161.105 490.203 161.02 490.783 161.02C491.833 161.02 492.658 161.3 493.258 161.86C493.868 162.41 494.173 163.195 494.173 164.215V167.14C494.173 167.33 494.203 167.465 494.263 167.545C494.333 167.625 494.448 167.67 494.608 167.68V169C494.458 169.03 494.323 169.05 494.203 169.06C494.083 169.07 493.983 169.075 493.903 169.075C493.553 169.075 493.288 168.99 493.108 168.82C492.928 168.65 492.823 168.45 492.793 168.22L492.748 167.77C492.408 168.21 491.973 168.55 491.443 168.79C490.913 169.03 490.378 169.15 489.838 169.15C489.318 169.15 488.853 169.045 488.443 168.835C488.033 168.615 487.713 168.32 487.483 167.95C487.253 167.58 487.138 167.165 487.138 166.705ZM492.133 167.185C492.253 167.055 492.348 166.925 492.418 166.795C492.488 166.665 492.523 166.55 492.523 166.45V165.55C492.243 165.44 491.948 165.36 491.638 165.31C491.328 165.25 491.023 165.22 490.723 165.22C490.123 165.22 489.633 165.34 489.253 165.58C488.883 165.82 488.698 166.15 488.698 166.57C488.698 166.8 488.758 167.02 488.878 167.23C489.008 167.44 489.188 167.61 489.418 167.74C489.658 167.87 489.953 167.935 490.303 167.935C490.663 167.935 491.008 167.865 491.338 167.725C491.668 167.585 491.933 167.405 492.133 167.185ZM500.181 168.595C500.041 168.665 499.866 168.74 499.656 168.82C499.446 168.9 499.206 168.97 498.936 169.03C498.676 169.09 498.406 169.12 498.126 169.12C497.786 169.12 497.471 169.06 497.181 168.94C496.891 168.82 496.656 168.63 496.476 168.37C496.306 168.1 496.221 167.755 496.221 167.335V162.43H495.186V161.155H496.221V158.575H497.871V161.155H499.581V162.43H497.871V166.81C497.891 167.08 497.976 167.28 498.126 167.41C498.286 167.54 498.481 167.605 498.711 167.605C498.941 167.605 499.161 167.565 499.371 167.485C499.581 167.405 499.736 167.34 499.836 167.29L500.181 168.595ZM504.476 169.15C503.866 169.15 503.311 169.045 502.811 168.835C502.321 168.615 501.896 168.32 501.536 167.95C501.176 167.57 500.896 167.14 500.696 166.66C500.506 166.17 500.411 165.65 500.411 165.1C500.411 164.36 500.581 163.685 500.921 163.075C501.261 162.455 501.736 161.96 502.346 161.59C502.956 161.21 503.671 161.02 504.491 161.02C505.311 161.02 506.016 161.21 506.606 161.59C507.206 161.96 507.671 162.45 508.001 163.06C508.331 163.67 508.496 164.325 508.496 165.025C508.496 165.145 508.491 165.26 508.481 165.37C508.471 165.47 508.461 165.555 508.451 165.625H502.166C502.196 166.085 502.321 166.49 502.541 166.84C502.771 167.18 503.061 167.45 503.411 167.65C503.761 167.84 504.136 167.935 504.536 167.935C504.976 167.935 505.391 167.825 505.781 167.605C506.181 167.385 506.451 167.095 506.591 166.735L508.001 167.14C507.831 167.52 507.571 167.865 507.221 168.175C506.881 168.475 506.476 168.715 506.006 168.895C505.536 169.065 505.026 169.15 504.476 169.15ZM502.121 164.53H506.861C506.831 164.08 506.701 163.685 506.471 163.345C506.251 162.995 505.966 162.725 505.616 162.535C505.276 162.335 504.896 162.235 504.476 162.235C504.066 162.235 503.686 162.335 503.336 162.535C502.996 162.725 502.716 162.995 502.496 163.345C502.276 163.685 502.151 164.08 502.121 164.53ZM509.047 165.085C509.047 164.335 509.197 163.655 509.497 163.045C509.807 162.425 510.227 161.935 510.757 161.575C511.287 161.205 511.897 161.02 512.587 161.02C513.187 161.02 513.727 161.175 514.207 161.485C514.697 161.795 515.077 162.18 515.347 162.64V158.05H516.997V167.14C516.997 167.33 517.032 167.465 517.102 167.545C517.172 167.625 517.287 167.67 517.447 167.68V169C517.137 169.05 516.897 169.075 516.727 169.075C516.417 169.075 516.152 168.985 515.932 168.805C515.722 168.625 515.612 168.41 515.602 168.16L515.587 167.575C515.287 168.075 514.882 168.465 514.372 168.745C513.862 169.015 513.332 169.15 512.782 169.15C512.242 169.15 511.742 169.045 511.282 168.835C510.832 168.625 510.437 168.33 510.097 167.95C509.767 167.57 509.507 167.135 509.317 166.645C509.137 166.155 509.047 165.635 509.047 165.085ZM515.347 166.18V164.125C515.237 163.805 515.057 163.52 514.807 163.27C514.567 163.01 514.292 162.805 513.982 162.655C513.682 162.505 513.382 162.43 513.082 162.43C512.732 162.43 512.412 162.505 512.122 162.655C511.842 162.805 511.597 163.005 511.387 163.255C511.187 163.505 511.032 163.79 510.922 164.11C510.812 164.43 510.757 164.765 510.757 165.115C510.757 165.475 510.817 165.815 510.937 166.135C511.057 166.445 511.227 166.725 511.447 166.975C511.677 167.215 511.937 167.405 512.227 167.545C512.527 167.675 512.852 167.74 513.202 167.74C513.422 167.74 513.642 167.7 513.862 167.62C514.092 167.54 514.307 167.43 514.507 167.29C514.717 167.15 514.892 166.985 515.032 166.795C515.182 166.605 515.287 166.4 515.347 166.18Z" fill="#343636"/>
<path d="M393.844 189.5C394.058 189.66 394.384 189.82 394.824 189.98C395.264 190.127 395.784 190.2 396.384 190.2C396.971 190.2 397.444 190.107 397.804 189.92C398.178 189.72 398.458 189.427 398.644 189.04C398.844 188.64 398.978 188.133 399.044 187.52C399.124 186.907 399.164 186.18 399.164 185.34V177.8H401.424V185.02C401.424 186.073 401.364 187.04 401.244 187.92C401.138 188.8 400.918 189.567 400.584 190.22C400.251 190.86 399.751 191.353 399.084 191.7C398.431 192.047 397.551 192.22 396.444 192.22C395.791 192.22 395.211 192.147 394.704 192C394.198 191.853 393.731 191.633 393.304 191.34L393.844 189.5ZM408.314 192.2C407.487 192.2 406.747 192.06 406.094 191.78C405.441 191.487 404.874 191.087 404.394 190.58C403.927 190.073 403.567 189.5 403.314 188.86C403.061 188.207 402.934 187.513 402.934 186.78C402.934 186.047 403.061 185.353 403.314 184.7C403.567 184.047 403.927 183.473 404.394 182.98C404.874 182.473 405.441 182.08 406.094 181.8C406.761 181.507 407.501 181.36 408.314 181.36C409.127 181.36 409.861 181.507 410.514 181.8C411.181 182.08 411.747 182.473 412.214 182.98C412.694 183.473 413.061 184.047 413.314 184.7C413.567 185.353 413.694 186.047 413.694 186.78C413.694 187.513 413.567 188.207 413.314 188.86C413.061 189.5 412.694 190.073 412.214 190.58C411.747 191.087 411.181 191.487 410.514 191.78C409.861 192.06 409.127 192.2 408.314 192.2ZM405.194 186.8C405.194 187.467 405.334 188.067 405.614 188.6C405.894 189.133 406.267 189.553 406.734 189.86C407.201 190.167 407.727 190.32 408.314 190.32C408.887 190.32 409.407 190.167 409.874 189.86C410.354 189.54 410.734 189.113 411.014 188.58C411.294 188.033 411.434 187.433 411.434 186.78C411.434 186.113 411.294 185.513 411.014 184.98C410.734 184.447 410.354 184.027 409.874 183.72C409.407 183.4 408.887 183.24 408.314 183.24C407.727 183.24 407.201 183.4 406.734 183.72C406.267 184.04 405.894 184.467 405.614 185C405.334 185.52 405.194 186.12 405.194 186.8ZM420.885 192.2C420.085 192.2 419.359 192.013 418.705 191.64C418.065 191.253 417.559 190.74 417.185 190.1V192H415.245V177.4H417.445V183.52C417.859 182.853 418.372 182.327 418.985 181.94C419.612 181.553 420.345 181.36 421.185 181.36C421.879 181.36 422.512 181.507 423.085 181.8C423.659 182.093 424.145 182.493 424.545 183C424.959 183.507 425.272 184.087 425.485 184.74C425.712 185.393 425.825 186.087 425.825 186.82C425.825 187.553 425.699 188.247 425.445 188.9C425.205 189.553 424.859 190.127 424.405 190.62C423.952 191.113 423.425 191.5 422.825 191.78C422.239 192.06 421.592 192.2 420.885 192.2ZM420.305 190.32C420.785 190.32 421.225 190.227 421.625 190.04C422.025 189.84 422.372 189.58 422.665 189.26C422.959 188.94 423.179 188.567 423.325 188.14C423.485 187.713 423.565 187.273 423.565 186.82C423.565 186.193 423.432 185.607 423.165 185.06C422.912 184.513 422.552 184.073 422.085 183.74C421.619 183.407 421.079 183.24 420.465 183.24C420.025 183.24 419.612 183.347 419.225 183.56C418.839 183.76 418.492 184.033 418.185 184.38C417.892 184.713 417.645 185.087 417.445 185.5V188.26C417.525 188.567 417.665 188.847 417.865 189.1C418.065 189.34 418.299 189.553 418.565 189.74C418.832 189.913 419.119 190.053 419.425 190.16C419.732 190.267 420.025 190.32 420.305 190.32ZM432.225 192V177.8H437.265C438.799 177.8 440.079 178.12 441.105 178.76C442.132 179.387 442.899 180.24 443.405 181.32C443.925 182.387 444.185 183.573 444.185 184.88C444.185 186.32 443.899 187.573 443.325 188.64C442.765 189.707 441.965 190.533 440.925 191.12C439.885 191.707 438.665 192 437.265 192H432.225ZM441.905 184.88C441.905 183.88 441.719 183 441.345 182.24C440.985 181.467 440.459 180.867 439.765 180.44C439.085 180 438.252 179.78 437.265 179.78H434.465V190.02H437.265C438.265 190.02 439.105 189.793 439.785 189.34C440.479 188.887 441.005 188.273 441.365 187.5C441.725 186.727 441.905 185.853 441.905 184.88ZM450.602 192.2C449.788 192.2 449.048 192.06 448.382 191.78C447.728 191.487 447.162 191.093 446.682 190.6C446.202 190.093 445.828 189.52 445.562 188.88C445.308 188.227 445.182 187.533 445.182 186.8C445.182 185.813 445.408 184.913 445.862 184.1C446.315 183.273 446.948 182.613 447.762 182.12C448.575 181.613 449.528 181.36 450.622 181.36C451.715 181.36 452.655 181.613 453.442 182.12C454.242 182.613 454.862 183.267 455.302 184.08C455.742 184.893 455.962 185.767 455.962 186.7C455.962 186.86 455.955 187.013 455.942 187.16C455.928 187.293 455.915 187.407 455.902 187.5H447.522C447.562 188.113 447.728 188.653 448.022 189.12C448.328 189.573 448.715 189.933 449.182 190.2C449.648 190.453 450.148 190.58 450.682 190.58C451.268 190.58 451.822 190.433 452.342 190.14C452.875 189.847 453.235 189.46 453.422 188.98L455.302 189.52C455.075 190.027 454.728 190.487 454.262 190.9C453.808 191.3 453.268 191.62 452.642 191.86C452.015 192.087 451.335 192.2 450.602 192.2ZM447.462 186.04H453.782C453.742 185.44 453.568 184.913 453.262 184.46C452.968 183.993 452.588 183.633 452.122 183.38C451.668 183.113 451.162 182.98 450.602 182.98C450.055 182.98 449.548 183.113 449.082 183.38C448.628 183.633 448.255 183.993 447.962 184.46C447.668 184.913 447.502 185.44 447.462 186.04ZM461.076 192.2C460.196 192.2 459.363 192.06 458.576 191.78C457.79 191.487 457.116 191.053 456.556 190.48L457.376 189C457.976 189.533 458.576 189.92 459.176 190.16C459.79 190.4 460.396 190.52 460.996 190.52C461.61 190.52 462.11 190.407 462.496 190.18C462.883 189.94 463.076 189.593 463.076 189.14C463.076 188.807 462.976 188.56 462.776 188.4C462.576 188.24 462.283 188.1 461.896 187.98C461.523 187.86 461.07 187.727 460.536 187.58C459.79 187.353 459.163 187.12 458.656 186.88C458.15 186.627 457.77 186.32 457.516 185.96C457.263 185.6 457.136 185.14 457.136 184.58C457.136 183.9 457.31 183.32 457.656 182.84C458.003 182.36 458.483 181.993 459.096 181.74C459.723 181.487 460.443 181.36 461.256 181.36C462.016 181.36 462.716 181.48 463.356 181.72C464.01 181.947 464.583 182.307 465.076 182.8L464.136 184.26C463.67 183.833 463.19 183.52 462.696 183.32C462.216 183.12 461.696 183.02 461.136 183.02C460.816 183.02 460.51 183.06 460.216 183.14C459.923 183.207 459.676 183.34 459.476 183.54C459.29 183.727 459.196 183.993 459.196 184.34C459.196 184.62 459.276 184.847 459.436 185.02C459.596 185.193 459.836 185.34 460.156 185.46C460.476 185.58 460.87 185.713 461.336 185.86C462.15 186.1 462.843 186.34 463.416 186.58C463.99 186.807 464.43 187.107 464.736 187.48C465.056 187.84 465.216 188.34 465.216 188.98C465.216 189.993 464.836 190.787 464.076 191.36C463.33 191.92 462.33 192.2 461.076 192.2ZM471.52 192.2C470.707 192.2 469.967 192.06 469.3 191.78C468.647 191.487 468.08 191.087 467.6 190.58C467.12 190.073 466.747 189.493 466.48 188.84C466.227 188.187 466.1 187.493 466.1 186.76C466.1 185.773 466.32 184.873 466.76 184.06C467.214 183.247 467.84 182.593 468.64 182.1C469.454 181.607 470.414 181.36 471.52 181.36C472.587 181.36 473.514 181.6 474.3 182.08C475.1 182.547 475.687 183.173 476.06 183.96L473.92 184.64C473.68 184.2 473.34 183.86 472.9 183.62C472.474 183.367 472 183.24 471.48 183.24C470.894 183.24 470.36 183.393 469.88 183.7C469.414 183.993 469.04 184.407 468.76 184.94C468.494 185.46 468.36 186.067 468.36 186.76C468.36 187.427 468.5 188.033 468.78 188.58C469.06 189.113 469.434 189.54 469.9 189.86C470.38 190.167 470.914 190.32 471.5 190.32C471.86 190.32 472.207 190.26 472.54 190.14C472.887 190.007 473.187 189.833 473.44 189.62C473.694 189.393 473.874 189.147 473.98 188.88L476.14 189.52C475.914 190.04 475.574 190.5 475.12 190.9C474.68 191.3 474.154 191.62 473.54 191.86C472.94 192.087 472.267 192.2 471.52 192.2ZM483.432 183.44C482.579 183.453 481.819 183.647 481.152 184.02C480.499 184.393 480.032 184.92 479.752 185.6V192H477.552V181.54H479.592V183.88C479.952 183.16 480.426 182.587 481.012 182.16C481.599 181.72 482.219 181.48 482.872 181.44C483.006 181.44 483.112 181.44 483.192 181.44C483.286 181.44 483.366 181.447 483.432 181.46V183.44ZM484.633 192V181.54H486.833V192H484.633ZM484.633 179.82V177.4H486.833V179.82H484.633ZM495.017 192.2C494.177 192.2 493.437 192 492.797 191.6C492.157 191.2 491.65 190.68 491.277 190.04V196.26H489.077V181.54H491.017V183.42C491.417 182.793 491.937 182.293 492.577 181.92C493.217 181.547 493.93 181.36 494.717 181.36C495.437 181.36 496.097 181.507 496.697 181.8C497.297 182.08 497.817 182.473 498.257 182.98C498.697 183.487 499.037 184.067 499.277 184.72C499.53 185.36 499.657 186.04 499.657 186.76C499.657 187.76 499.457 188.673 499.057 189.5C498.67 190.327 498.123 190.987 497.417 191.48C496.723 191.96 495.923 192.2 495.017 192.2ZM494.297 190.32C494.763 190.32 495.183 190.22 495.557 190.02C495.943 189.82 496.27 189.553 496.537 189.22C496.817 188.887 497.03 188.507 497.177 188.08C497.323 187.653 497.397 187.213 497.397 186.76C497.397 186.28 497.317 185.827 497.157 185.4C496.997 184.973 496.763 184.6 496.457 184.28C496.163 183.96 495.817 183.707 495.417 183.52C495.03 183.333 494.603 183.24 494.137 183.24C493.857 183.24 493.563 183.293 493.257 183.4C492.95 183.507 492.663 183.653 492.397 183.84C492.13 184.027 491.897 184.247 491.697 184.5C491.497 184.753 491.357 185.02 491.277 185.3V188.04C491.463 188.467 491.71 188.853 492.017 189.2C492.323 189.533 492.677 189.807 493.077 190.02C493.477 190.22 493.883 190.32 494.297 190.32ZM506.899 191.46C506.712 191.553 506.479 191.653 506.199 191.76C505.919 191.867 505.599 191.96 505.239 192.04C504.892 192.12 504.532 192.16 504.159 192.16C503.706 192.16 503.286 192.08 502.899 191.92C502.512 191.76 502.199 191.507 501.959 191.16C501.732 190.8 501.619 190.34 501.619 189.78V183.24H500.239V181.54H501.619V178.1H503.819V181.54H506.099V183.24H503.819V189.08C503.846 189.44 503.959 189.707 504.159 189.88C504.372 190.053 504.632 190.14 504.939 190.14C505.246 190.14 505.539 190.087 505.819 189.98C506.099 189.873 506.306 189.787 506.439 189.72L506.899 191.46ZM508.023 192V181.54H510.223V192H508.023ZM508.023 179.82V177.4H510.223V179.82H508.023ZM517.166 192.2C516.34 192.2 515.6 192.06 514.946 191.78C514.293 191.487 513.726 191.087 513.246 190.58C512.78 190.073 512.42 189.5 512.166 188.86C511.913 188.207 511.786 187.513 511.786 186.78C511.786 186.047 511.913 185.353 512.166 184.7C512.42 184.047 512.78 183.473 513.246 182.98C513.726 182.473 514.293 182.08 514.946 181.8C515.613 181.507 516.353 181.36 517.166 181.36C517.98 181.36 518.713 181.507 519.366 181.8C520.033 182.08 520.6 182.473 521.066 182.98C521.546 183.473 521.913 184.047 522.166 184.7C522.42 185.353 522.546 186.047 522.546 186.78C522.546 187.513 522.42 188.207 522.166 188.86C521.913 189.5 521.546 190.073 521.066 190.58C520.6 191.087 520.033 191.487 519.366 191.78C518.713 192.06 517.98 192.2 517.166 192.2ZM514.046 186.8C514.046 187.467 514.186 188.067 514.466 188.6C514.746 189.133 515.12 189.553 515.586 189.86C516.053 190.167 516.58 190.32 517.166 190.32C517.74 190.32 518.26 190.167 518.726 189.86C519.206 189.54 519.586 189.113 519.866 188.58C520.146 188.033 520.286 187.433 520.286 186.78C520.286 186.113 520.146 185.513 519.866 184.98C519.586 184.447 519.206 184.027 518.726 183.72C518.26 183.4 517.74 183.24 517.166 183.24C516.58 183.24 516.053 183.4 515.586 183.72C515.12 184.04 514.746 184.467 514.466 185C514.186 185.52 514.046 186.12 514.046 186.8ZM533.478 192H531.278V186.14C531.278 185.167 531.118 184.453 530.798 184C530.491 183.547 530.031 183.32 529.418 183.32C528.991 183.32 528.564 183.427 528.138 183.64C527.724 183.853 527.351 184.147 527.018 184.52C526.684 184.88 526.444 185.3 526.298 185.78V192H524.098V181.54H526.098V183.64C526.364 183.173 526.711 182.773 527.138 182.44C527.578 182.093 528.071 181.827 528.618 181.64C529.164 181.453 529.744 181.36 530.358 181.36C530.984 181.36 531.498 181.473 531.898 181.7C532.311 181.927 532.631 182.24 532.858 182.64C533.098 183.027 533.258 183.48 533.338 184C533.431 184.507 533.478 185.047 533.478 185.62V192Z" fill="#1D6362"/>
<path d="M249.674 66.4669V68.0509H241.882V56.6909H249.53V58.2749H243.674V61.5069H248.746V62.9949H243.674V66.4669H249.674ZM251.971 59.6829L253.955 62.5469L254.099 62.8189L254.243 62.5469L256.211 59.6829H258.115L255.107 63.8749L258.147 68.0509H256.243L254.243 65.2029L254.099 64.9469L253.955 65.2029L251.955 68.0509H250.051L253.091 63.8909L250.083 59.6829H251.971ZM263.77 68.2109C263.098 68.2109 262.506 68.0509 261.994 67.7309C261.482 67.4109 261.077 66.9949 260.778 66.4829V71.4589H259.018V59.6829H260.57V61.1869C260.89 60.6856 261.306 60.2856 261.818 59.9869C262.33 59.6882 262.901 59.5389 263.53 59.5389C264.106 59.5389 264.634 59.6562 265.114 59.8909C265.594 60.1149 266.01 60.4296 266.362 60.8349C266.714 61.2402 266.986 61.7042 267.178 62.2269C267.381 62.7389 267.482 63.2829 267.482 63.8589C267.482 64.6589 267.322 65.3896 267.002 66.0509C266.693 66.7122 266.256 67.2402 265.69 67.6349C265.136 68.0189 264.496 68.2109 263.77 68.2109ZM263.194 66.7069C263.568 66.7069 263.904 66.6269 264.202 66.4669C264.512 66.3069 264.773 66.0936 264.986 65.8269C265.21 65.5602 265.381 65.2562 265.498 64.9149C265.616 64.5736 265.674 64.2216 265.674 63.8589C265.674 63.4749 265.61 63.1122 265.482 62.7709C265.354 62.4296 265.168 62.1309 264.922 61.8749C264.688 61.6189 264.41 61.4162 264.09 61.2669C263.781 61.1176 263.44 61.0429 263.066 61.0429C262.842 61.0429 262.608 61.0856 262.362 61.1709C262.117 61.2562 261.888 61.3736 261.674 61.5229C261.461 61.6722 261.274 61.8482 261.114 62.0509C260.954 62.2536 260.842 62.4669 260.778 62.6909V64.8829C260.928 65.2242 261.125 65.5336 261.37 65.8109C261.616 66.0776 261.898 66.2962 262.218 66.4669C262.538 66.6269 262.864 66.7069 263.194 66.7069ZM272.537 68.2109C271.887 68.2109 271.295 68.0989 270.761 67.8749C270.239 67.6402 269.785 67.3256 269.401 66.9309C269.017 66.5256 268.719 66.0669 268.505 65.5549C268.303 65.0322 268.201 64.4776 268.201 63.8909C268.201 63.1016 268.383 62.3816 268.745 61.7309C269.108 61.0696 269.615 60.5416 270.265 60.1469C270.916 59.7416 271.679 59.5389 272.553 59.5389C273.428 59.5389 274.18 59.7416 274.809 60.1469C275.449 60.5416 275.945 61.0642 276.297 61.7149C276.649 62.3656 276.825 63.0642 276.825 63.8109C276.825 63.9389 276.82 64.0616 276.809 64.1789C276.799 64.2856 276.788 64.3762 276.777 64.4509H270.073C270.105 64.9416 270.239 65.3736 270.473 65.7469C270.719 66.1096 271.028 66.3976 271.401 66.6109C271.775 66.8136 272.175 66.9149 272.601 66.9149C273.071 66.9149 273.513 66.7976 273.929 66.5629C274.356 66.3282 274.644 66.0189 274.793 65.6349L276.297 66.0669C276.116 66.4722 275.839 66.8402 275.465 67.1709C275.103 67.4909 274.671 67.7469 274.169 67.9389C273.668 68.1202 273.124 68.2109 272.537 68.2109ZM270.025 63.2829H275.081C275.049 62.8029 274.911 62.3816 274.665 62.0189C274.431 61.6456 274.127 61.3576 273.753 61.1549C273.391 60.9416 272.985 60.8349 272.537 60.8349C272.1 60.8349 271.695 60.9416 271.321 61.1549C270.959 61.3576 270.66 61.6456 270.425 62.0189C270.191 62.3816 270.057 62.8029 270.025 63.2829ZM282.645 61.2029C281.962 61.2136 281.354 61.3682 280.821 61.6669C280.298 61.9656 279.925 62.3869 279.701 62.9309V68.0509H277.941V59.6829H279.573V61.5549C279.861 60.9789 280.239 60.5202 280.709 60.1789C281.178 59.8269 281.674 59.6349 282.197 59.6029C282.303 59.6029 282.389 59.6029 282.453 59.6029C282.527 59.6029 282.591 59.6082 282.645 59.6189V61.2029ZM283.605 68.0509V59.6829H285.365V68.0509H283.605ZM283.605 58.3069V56.3709H285.365V58.3069H283.605ZM290.952 68.2109C290.302 68.2109 289.71 68.0989 289.176 67.8749C288.654 67.6402 288.2 67.3256 287.816 66.9309C287.432 66.5256 287.134 66.0669 286.92 65.5549C286.718 65.0322 286.616 64.4776 286.616 63.8909C286.616 63.1016 286.798 62.3816 287.16 61.7309C287.523 61.0696 288.03 60.5416 288.68 60.1469C289.331 59.7416 290.094 59.5389 290.968 59.5389C291.843 59.5389 292.595 59.7416 293.224 60.1469C293.864 60.5416 294.36 61.0642 294.712 61.7149C295.064 62.3656 295.24 63.0642 295.24 63.8109C295.24 63.9389 295.235 64.0616 295.224 64.1789C295.214 64.2856 295.203 64.3762 295.192 64.4509H288.488C288.52 64.9416 288.654 65.3736 288.888 65.7469C289.134 66.1096 289.443 66.3976 289.816 66.6109C290.19 66.8136 290.59 66.9149 291.016 66.9149C291.486 66.9149 291.928 66.7976 292.344 66.5629C292.771 66.3282 293.059 66.0189 293.208 65.6349L294.712 66.0669C294.531 66.4722 294.254 66.8402 293.88 67.1709C293.518 67.4909 293.086 67.7469 292.584 67.9389C292.083 68.1202 291.539 68.2109 290.952 68.2109ZM288.44 63.2829H293.496C293.464 62.8029 293.326 62.3816 293.08 62.0189C292.846 61.6456 292.542 61.3576 292.168 61.1549C291.806 60.9416 291.4 60.8349 290.952 60.8349C290.515 60.8349 290.11 60.9416 289.736 61.1549C289.374 61.3576 289.075 61.6456 288.84 62.0189C288.606 62.3816 288.472 62.8029 288.44 63.2829ZM303.86 68.0509H302.1V63.3629C302.1 62.5842 301.972 62.0136 301.716 61.6509C301.47 61.2882 301.102 61.1069 300.612 61.1069C300.27 61.1069 299.929 61.1922 299.588 61.3629C299.257 61.5336 298.958 61.7682 298.692 62.0669C298.425 62.3549 298.233 62.6909 298.116 63.0749V68.0509H296.356V59.6829H297.956V61.3629C298.169 60.9896 298.446 60.6696 298.788 60.4029C299.14 60.1256 299.534 59.9122 299.972 59.7629C300.409 59.6136 300.873 59.5389 301.364 59.5389C301.865 59.5389 302.276 59.6296 302.596 59.8109C302.926 59.9922 303.182 60.2429 303.364 60.5629C303.556 60.8722 303.684 61.2349 303.748 61.6509C303.822 62.0562 303.86 62.4882 303.86 62.9469V68.0509ZM309.375 68.2109C308.724 68.2109 308.132 68.0989 307.599 67.8749C307.076 67.6402 306.623 67.3202 306.239 66.9149C305.855 66.5096 305.556 66.0456 305.343 65.5229C305.14 65.0002 305.039 64.4456 305.039 63.8589C305.039 63.0696 305.215 62.3496 305.567 61.6989C305.929 61.0482 306.431 60.5256 307.071 60.1309C307.721 59.7362 308.489 59.5389 309.375 59.5389C310.228 59.5389 310.969 59.7309 311.599 60.1149C312.239 60.4882 312.708 60.9896 313.007 61.6189L311.295 62.1629C311.103 61.8109 310.831 61.5389 310.479 61.3469C310.137 61.1442 309.759 61.0429 309.343 61.0429C308.873 61.0429 308.447 61.1656 308.063 61.4109C307.689 61.6456 307.391 61.9762 307.167 62.4029C306.953 62.8189 306.847 63.3042 306.847 63.8589C306.847 64.3922 306.959 64.8776 307.183 65.3149C307.407 65.7416 307.705 66.0829 308.079 66.3389C308.463 66.5842 308.889 66.7069 309.359 66.7069C309.647 66.7069 309.924 66.6589 310.191 66.5629C310.468 66.4562 310.708 66.3176 310.911 66.1469C311.113 65.9656 311.257 65.7682 311.343 65.5549L313.071 66.0669C312.889 66.4829 312.617 66.8509 312.255 67.1709C311.903 67.4909 311.481 67.7469 310.991 67.9389C310.511 68.1202 309.972 68.2109 309.375 68.2109ZM317.914 68.2109C317.263 68.2109 316.671 68.0989 316.138 67.8749C315.615 67.6402 315.162 67.3256 314.778 66.9309C314.394 66.5256 314.095 66.0669 313.882 65.5549C313.679 65.0322 313.578 64.4776 313.578 63.8909C313.578 63.1016 313.759 62.3816 314.122 61.7309C314.485 61.0696 314.991 60.5416 315.642 60.1469C316.293 59.7416 317.055 59.5389 317.93 59.5389C318.805 59.5389 319.557 59.7416 320.186 60.1469C320.826 60.5416 321.322 61.0642 321.674 61.7149C322.026 62.3656 322.202 63.0642 322.202 63.8109C322.202 63.9389 322.197 64.0616 322.186 64.1789C322.175 64.2856 322.165 64.3762 322.154 64.4509H315.45C315.482 64.9416 315.615 65.3736 315.85 65.7469C316.095 66.1096 316.405 66.3976 316.778 66.6109C317.151 66.8136 317.551 66.9149 317.978 66.9149C318.447 66.9149 318.89 66.7976 319.306 66.5629C319.733 66.3282 320.021 66.0189 320.17 65.6349L321.674 66.0669C321.493 66.4722 321.215 66.8402 320.842 67.1709C320.479 67.4909 320.047 67.7469 319.546 67.9389C319.045 68.1202 318.501 68.2109 317.914 68.2109ZM315.402 63.2829H320.458C320.426 62.8029 320.287 62.3816 320.042 62.0189C319.807 61.6456 319.503 61.3576 319.13 61.1549C318.767 60.9416 318.362 60.8349 317.914 60.8349C317.477 60.8349 317.071 60.9416 316.698 61.1549C316.335 61.3576 316.037 61.6456 315.802 62.0189C315.567 62.3816 315.434 62.8029 315.402 63.2829Z" fill="#343636"/>
<path d="M480 103.549C473.643 103.939 467.648 106.64 463.144 111.144C458.64 115.648 455.939 121.643 455.549 128H455.451C455.062 121.643 452.36 115.647 447.857 111.143C443.353 106.64 437.357 103.938 431 103.549V103.451C437.357 103.062 443.353 100.36 447.857 95.8566C452.36 91.3528 455.062 85.3574 455.451 79H455.549C455.939 85.3572 458.64 91.3522 463.144 95.8559C467.648 100.36 473.643 103.061 480 103.451V103.549Z" fill="#ED6F2D"/>
<path d="M488 130.028C484.367 130.251 480.942 131.795 478.368 134.368C475.795 136.942 474.251 140.367 474.028 144H473.972C473.749 140.367 472.206 136.941 469.632 134.368C467.059 131.794 463.633 130.251 460 130.028V129.972C463.633 129.749 467.059 128.206 469.632 125.632C472.206 123.059 473.749 119.633 473.972 116H474.028C474.251 119.633 475.795 123.058 478.368 125.632C480.942 128.205 484.367 129.749 488 129.972V130.028Z" fill="#1D6362"/>
<mask id="path-35-inside-1_94_251" fill="white">
<path d="M228 55.7775C228 53.016 230.239 50.7775 233 50.7775H370.091V84.8793H233C230.239 84.8793 228 82.6407 228 79.8793V55.7775Z"/>
</mask>
<path d="M228 55.7775C228 53.016 230.239 50.7775 233 50.7775H370.091V84.8793H233C230.239 84.8793 228 82.6407 228 79.8793V55.7775Z" fill="white"/>
<path d="M227 55.7775C227 52.4638 229.686 49.7775 233 49.7775H370.091V51.7775H233C230.791 51.7775 229 53.5683 229 55.7775H227ZM370.091 85.8793H233C229.686 85.8793 227 83.193 227 79.8793H229C229 82.0885 230.791 83.8793 233 83.8793H370.091V85.8793ZM233 85.8793C229.686 85.8793 227 83.193 227 79.8793V55.7775C227 52.4638 229.686 49.7775 233 49.7775V51.7775C230.791 51.7775 229 53.5683 229 55.7775V79.8793C229 82.0885 230.791 83.8793 233 83.8793V85.8793ZM370.091 50.7775V84.8793V50.7775Z" fill="#C0DDDD" mask="url(#path-35-inside-1_94_251)"/>
<mask id="path-37-inside-2_94_251" fill="white">
<path d="M228 108C228 105.239 230.239 103 233 103H370.091V137H233C230.239 137 228 134.761 228 132V108Z"/>
</mask>
<path d="M228 108C228 105.239 230.239 103 233 103H370.091V137H233C230.239 137 228 134.761 228 132V108Z" fill="white"/>
<path d="M227 108C227 104.686 229.686 102 233 102H370.091V104H233C230.791 104 229 105.791 229 108H227ZM370.091 138H233C229.686 138 227 135.314 227 132H229C229 134.209 230.791 136 233 136H370.091V138ZM233 138C229.686 138 227 135.314 227 132V108C227 104.686 229.686 102 233 102V104C230.791 104 229 105.791 229 108V132C229 134.209 230.791 136 233 136V138ZM370.091 103V137V103Z" fill="#C0DDDD" mask="url(#path-37-inside-2_94_251)"/>
<mask id="path-39-inside-3_94_251" fill="white">
<path d="M228 160C228 157.239 230.239 155 233 155H370.091V183.418H233C230.239 183.418 228 181.18 228 178.418V160Z"/>
</mask>
<path d="M228 160C228 157.239 230.239 155 233 155H370.091V183.418H233C230.239 183.418 228 181.18 228 178.418V160Z" fill="white"/>
<path d="M227 160C227 156.686 229.686 154 233 154H370.091V156H233C230.791 156 229 157.791 229 160H227ZM370.091 184.418H233C229.686 184.418 227 181.732 227 178.418H229C229 180.627 230.791 182.418 233 182.418H370.091V184.418ZM233 184.418C229.686 184.418 227 181.732 227 178.418V160C227 156.686 229.686 154 233 154V156C230.791 156 229 157.791 229 160V178.418C229 180.627 230.791 182.418 233 182.418V184.418ZM370.091 155V183.418V155Z" fill="#C0DDDD" mask="url(#path-39-inside-3_94_251)"/>
<mask id="path-41-inside-4_94_251" fill="white">
<path d="M228 206C228 203.239 230.239 201 233 201H370.091V229.418H233C230.239 229.418 228 227.18 228 224.418V206Z"/>
</mask>
<path d="M228 206C228 203.239 230.239 201 233 201H370.091V229.418H233C230.239 229.418 228 227.18 228 224.418V206Z" fill="white"/>
<path d="M227 206C227 202.686 229.686 200 233 200H370.091V202H233C230.791 202 229 203.791 229 206H227ZM370.091 230.418H233C229.686 230.418 227 227.732 227 224.418H229C229 226.627 230.791 228.418 233 228.418H370.091V230.418ZM233 230.418C229.686 230.418 227 227.732 227 224.418V206C227 202.686 229.686 200 233 200V202C230.791 202 229 203.791 229 206V224.418C229 226.627 230.791 228.418 233 228.418V230.418ZM370.091 201V229.418V201Z" fill="#C0DDDD" mask="url(#path-41-inside-4_94_251)"/>
<path d="M245.14 209.405H246.16L247.288 212.369L248.428 209.405H249.448L247.972 213.113L249.436 216.629L252.316 209.357H253.492L249.928 217.877H248.992L247.3 213.857L245.596 217.877H244.66L241.108 209.357H242.272L245.164 216.629L246.616 213.113L245.14 209.405ZM256.114 217.997C255.642 217.997 255.214 217.913 254.83 217.745C254.446 217.569 254.114 217.333 253.834 217.037C253.554 216.733 253.338 216.385 253.186 215.993C253.034 215.601 252.958 215.189 252.958 214.757C252.958 214.317 253.034 213.901 253.186 213.509C253.338 213.117 253.554 212.773 253.834 212.477C254.114 212.173 254.446 211.937 254.83 211.769C255.222 211.593 255.65 211.505 256.114 211.505C256.586 211.505 257.014 211.593 257.398 211.769C257.782 211.937 258.114 212.173 258.394 212.477C258.682 212.773 258.902 213.117 259.054 213.509C259.206 213.901 259.282 214.317 259.282 214.757C259.282 215.189 259.206 215.601 259.054 215.993C258.902 216.385 258.686 216.733 258.406 217.037C258.126 217.333 257.79 217.569 257.398 217.745C257.014 217.913 256.586 217.997 256.114 217.997ZM254.038 214.769C254.038 215.201 254.13 215.593 254.314 215.945C254.506 216.297 254.758 216.577 255.07 216.785C255.382 216.985 255.73 217.085 256.114 217.085C256.498 217.085 256.846 216.981 257.158 216.773C257.478 216.565 257.73 216.285 257.914 215.933C258.106 215.573 258.202 215.177 258.202 214.745C258.202 214.313 258.106 213.921 257.914 213.569C257.73 213.217 257.478 212.937 257.158 212.729C256.846 212.521 256.498 212.417 256.114 212.417C255.73 212.417 255.382 212.525 255.07 212.741C254.758 212.949 254.506 213.229 254.314 213.581C254.13 213.933 254.038 214.329 254.038 214.769ZM263.633 212.537C263.105 212.545 262.637 212.681 262.229 212.945C261.829 213.201 261.545 213.557 261.377 214.013V217.877H260.321V211.613H261.305V213.065C261.521 212.633 261.805 212.285 262.157 212.021C262.517 211.749 262.893 211.597 263.285 211.565C263.365 211.565 263.433 211.565 263.489 211.565C263.545 211.565 263.593 211.569 263.633 211.577V212.537ZM268.857 217.877L266.685 214.829L265.497 215.945V217.877H264.441V209.117H265.497V214.841L268.737 211.625H269.877L267.381 214.217L269.997 217.877H268.857ZM280.113 217.877H279.057V214.373C279.057 213.717 278.949 213.233 278.733 212.921C278.525 212.609 278.213 212.453 277.797 212.453C277.373 212.453 276.989 212.609 276.645 212.921C276.301 213.225 276.057 213.621 275.913 214.109V217.877H274.857V214.373C274.857 213.709 274.753 213.225 274.545 212.921C274.337 212.609 274.025 212.453 273.609 212.453C273.193 212.453 272.809 212.605 272.457 212.909C272.113 213.205 271.869 213.601 271.725 214.097V217.877H270.669V211.613H271.629V212.957C271.885 212.493 272.217 212.137 272.625 211.889C273.033 211.633 273.493 211.505 274.005 211.505C274.525 211.505 274.941 211.649 275.253 211.937C275.565 212.217 275.757 212.581 275.829 213.029C276.109 212.533 276.449 212.157 276.849 211.901C277.249 211.637 277.705 211.505 278.217 211.505C278.577 211.505 278.877 211.573 279.117 211.709C279.365 211.837 279.561 212.021 279.705 212.261C279.849 212.493 279.953 212.769 280.017 213.089C280.081 213.409 280.113 213.757 280.113 214.133V217.877ZM284.251 217.997C283.779 217.997 283.351 217.913 282.967 217.745C282.583 217.569 282.251 217.333 281.971 217.037C281.691 216.733 281.475 216.385 281.323 215.993C281.171 215.601 281.095 215.189 281.095 214.757C281.095 214.317 281.171 213.901 281.323 213.509C281.475 213.117 281.691 212.773 281.971 212.477C282.251 212.173 282.583 211.937 282.967 211.769C283.359 211.593 283.787 211.505 284.251 211.505C284.723 211.505 285.151 211.593 285.535 211.769C285.919 211.937 286.251 212.173 286.531 212.477C286.819 212.773 287.039 213.117 287.191 213.509C287.343 213.901 287.419 214.317 287.419 214.757C287.419 215.189 287.343 215.601 287.191 215.993C287.039 216.385 286.823 216.733 286.543 217.037C286.263 217.333 285.927 217.569 285.535 217.745C285.151 217.913 284.723 217.997 284.251 217.997ZM282.175 214.769C282.175 215.201 282.267 215.593 282.451 215.945C282.643 216.297 282.895 216.577 283.207 216.785C283.519 216.985 283.867 217.085 284.251 217.085C284.635 217.085 284.983 216.981 285.295 216.773C285.615 216.565 285.867 216.285 286.051 215.933C286.243 215.573 286.339 215.177 286.339 214.745C286.339 214.313 286.243 213.921 286.051 213.569C285.867 213.217 285.615 212.937 285.295 212.729C284.983 212.521 284.635 212.417 284.251 212.417C283.867 212.417 283.519 212.525 283.207 212.741C282.895 212.949 282.643 213.229 282.451 213.581C282.267 213.933 282.175 214.329 282.175 214.769ZM288.051 214.757C288.051 214.165 288.171 213.625 288.411 213.137C288.659 212.641 288.995 212.245 289.419 211.949C289.851 211.653 290.343 211.505 290.895 211.505C291.399 211.505 291.851 211.637 292.251 211.901C292.651 212.165 292.963 212.485 293.187 212.861V209.117H294.243V216.677C294.243 216.805 294.267 216.901 294.315 216.965C294.371 217.021 294.459 217.053 294.579 217.061V217.877C294.379 217.909 294.223 217.925 294.111 217.925C293.903 217.925 293.719 217.853 293.559 217.709C293.407 217.565 293.331 217.405 293.331 217.229V216.701C293.083 217.101 292.751 217.417 292.335 217.649C291.919 217.881 291.487 217.997 291.039 217.997C290.607 217.997 290.207 217.913 289.839 217.745C289.479 217.569 289.163 217.329 288.891 217.025C288.627 216.721 288.419 216.377 288.267 215.993C288.123 215.601 288.051 215.189 288.051 214.757ZM293.187 215.681V213.881C293.091 213.609 292.935 213.365 292.719 213.149C292.503 212.925 292.259 212.749 291.987 212.621C291.723 212.485 291.459 212.417 291.195 212.417C290.883 212.417 290.599 212.485 290.343 212.621C290.095 212.749 289.879 212.925 289.695 213.149C289.519 213.365 289.383 213.613 289.287 213.893C289.191 214.173 289.143 214.465 289.143 214.769C289.143 215.081 289.195 215.377 289.299 215.657C289.411 215.937 289.563 216.185 289.755 216.401C289.955 216.617 290.183 216.785 290.439 216.905C290.703 217.025 290.987 217.085 291.291 217.085C291.483 217.085 291.679 217.049 291.879 216.977C292.087 216.905 292.283 216.805 292.467 216.677C292.651 216.549 292.807 216.401 292.935 216.233C293.063 216.057 293.147 215.873 293.187 215.681ZM298.538 217.997C298.066 217.997 297.634 217.913 297.242 217.745C296.858 217.569 296.522 217.333 296.234 217.037C295.954 216.733 295.734 216.385 295.574 215.993C295.422 215.601 295.346 215.185 295.346 214.745C295.346 214.153 295.482 213.613 295.754 213.125C296.026 212.637 296.402 212.245 296.882 211.949C297.37 211.653 297.926 211.505 298.55 211.505C299.182 211.505 299.73 211.657 300.194 211.961C300.666 212.257 301.03 212.649 301.286 213.137C301.55 213.617 301.682 214.137 301.682 214.697C301.682 214.777 301.678 214.857 301.67 214.937C301.67 215.009 301.666 215.065 301.658 215.105H296.462C296.494 215.513 296.606 215.877 296.798 216.197C296.998 216.509 297.254 216.757 297.566 216.941C297.878 217.117 298.214 217.205 298.574 217.205C298.958 217.205 299.318 217.109 299.654 216.917C299.998 216.725 300.234 216.473 300.362 216.161L301.274 216.413C301.138 216.717 300.934 216.989 300.662 217.229C300.398 217.469 300.082 217.657 299.714 217.793C299.354 217.929 298.962 217.997 298.538 217.997ZM296.426 214.373H300.698C300.666 213.965 300.55 213.605 300.35 213.293C300.15 212.981 299.894 212.737 299.582 212.561C299.27 212.385 298.926 212.297 298.55 212.297C298.182 212.297 297.842 212.385 297.53 212.561C297.218 212.737 296.962 212.981 296.762 213.293C296.57 213.605 296.458 213.965 296.426 214.373Z" fill="#878787"/>
<path d="M247.804 124.04V125H242.02V116.48H247.696V117.44H243.1V120.2H247.096V121.1H243.1V124.04H247.804ZM258.263 125H257.207V121.496C257.207 120.84 257.099 120.356 256.883 120.044C256.675 119.732 256.363 119.576 255.947 119.576C255.523 119.576 255.139 119.732 254.795 120.044C254.451 120.348 254.207 120.744 254.063 121.232V125H253.007V121.496C253.007 120.832 252.903 120.348 252.695 120.044C252.487 119.732 252.175 119.576 251.759 119.576C251.343 119.576 250.959 119.728 250.607 120.032C250.263 120.328 250.019 120.724 249.875 121.22V125H248.819V118.736H249.779V120.08C250.035 119.616 250.367 119.26 250.775 119.012C251.183 118.756 251.643 118.628 252.155 118.628C252.675 118.628 253.091 118.772 253.403 119.06C253.715 119.34 253.907 119.704 253.979 120.152C254.259 119.656 254.599 119.28 254.999 119.024C255.399 118.76 255.855 118.628 256.367 118.628C256.727 118.628 257.027 118.696 257.267 118.832C257.515 118.96 257.711 119.144 257.855 119.384C257.999 119.616 258.103 119.892 258.167 120.212C258.231 120.532 258.263 120.88 258.263 121.256V125ZM263.037 125.12C262.525 125.12 262.069 124.992 261.669 124.736C261.269 124.48 260.953 124.156 260.721 123.764V127.556H259.665V118.736H260.601V119.912C260.849 119.528 261.173 119.22 261.573 118.988C261.973 118.748 262.409 118.628 262.881 118.628C263.313 118.628 263.709 118.716 264.069 118.892C264.429 119.068 264.741 119.308 265.005 119.612C265.269 119.916 265.473 120.264 265.617 120.656C265.769 121.04 265.845 121.444 265.845 121.868C265.845 122.46 265.725 123.004 265.485 123.5C265.253 123.996 264.925 124.392 264.501 124.688C264.077 124.976 263.589 125.12 263.037 125.12ZM262.713 124.208C263.025 124.208 263.305 124.144 263.553 124.016C263.809 123.88 264.025 123.704 264.201 123.488C264.385 123.264 264.525 123.012 264.621 122.732C264.717 122.452 264.765 122.164 264.765 121.868C264.765 121.556 264.709 121.26 264.597 120.98C264.493 120.7 264.341 120.452 264.141 120.236C263.949 120.02 263.721 119.852 263.457 119.732C263.201 119.604 262.921 119.54 262.617 119.54C262.425 119.54 262.225 119.576 262.017 119.648C261.817 119.72 261.625 119.824 261.441 119.96C261.257 120.088 261.101 120.236 260.973 120.404C260.845 120.572 260.761 120.752 260.721 120.944V122.732C260.841 123.004 261.001 123.252 261.201 123.476C261.401 123.7 261.633 123.88 261.897 124.016C262.161 124.144 262.433 124.208 262.713 124.208ZM266.926 116.24H267.982V123.38C267.982 123.724 268.03 123.936 268.126 124.016C268.222 124.096 268.338 124.136 268.474 124.136C268.642 124.136 268.802 124.12 268.954 124.088C269.106 124.048 269.234 124.008 269.338 123.968L269.506 124.832C269.33 124.904 269.122 124.964 268.882 125.012C268.642 125.06 268.43 125.084 268.246 125.084C267.838 125.084 267.514 124.968 267.274 124.736C267.042 124.504 266.926 124.18 266.926 123.764V116.24ZM272.831 125.12C272.359 125.12 271.931 125.036 271.547 124.868C271.163 124.692 270.831 124.456 270.551 124.16C270.271 123.856 270.055 123.508 269.903 123.116C269.751 122.724 269.675 122.312 269.675 121.88C269.675 121.44 269.751 121.024 269.903 120.632C270.055 120.24 270.271 119.896 270.551 119.6C270.831 119.296 271.163 119.06 271.547 118.892C271.939 118.716 272.367 118.628 272.831 118.628C273.303 118.628 273.731 118.716 274.115 118.892C274.499 119.06 274.831 119.296 275.111 119.6C275.399 119.896 275.619 120.24 275.771 120.632C275.923 121.024 275.999 121.44 275.999 121.88C275.999 122.312 275.923 122.724 275.771 123.116C275.619 123.508 275.403 123.856 275.123 124.16C274.843 124.456 274.507 124.692 274.115 124.868C273.731 125.036 273.303 125.12 272.831 125.12ZM270.755 121.892C270.755 122.324 270.847 122.716 271.031 123.068C271.223 123.42 271.475 123.7 271.787 123.908C272.099 124.108 272.447 124.208 272.831 124.208C273.215 124.208 273.563 124.104 273.875 123.896C274.195 123.688 274.447 123.408 274.631 123.056C274.823 122.696 274.919 122.3 274.919 121.868C274.919 121.436 274.823 121.044 274.631 120.692C274.447 120.34 274.195 120.06 273.875 119.852C273.563 119.644 273.215 119.54 272.831 119.54C272.447 119.54 272.099 119.648 271.787 119.864C271.475 120.072 271.223 120.352 271.031 120.704C270.847 121.056 270.755 121.452 270.755 121.892ZM277.104 126.704C277.208 126.712 277.312 126.72 277.416 126.728C277.52 126.744 277.6 126.752 277.656 126.752C277.784 126.752 277.896 126.708 277.992 126.62C278.088 126.532 278.192 126.36 278.304 126.104C278.424 125.856 278.576 125.488 278.76 125L276.108 118.736H277.224L279.336 123.932L281.244 118.736H282.288L279.24 126.644C279.168 126.828 279.06 127 278.916 127.16C278.78 127.328 278.604 127.46 278.388 127.556C278.172 127.652 277.912 127.7 277.608 127.7C277.536 127.7 277.46 127.696 277.38 127.688C277.308 127.68 277.216 127.664 277.104 127.64V126.704ZM292.559 125H291.503V121.496C291.503 120.84 291.395 120.356 291.179 120.044C290.971 119.732 290.659 119.576 290.243 119.576C289.819 119.576 289.435 119.732 289.091 120.044C288.747 120.348 288.503 120.744 288.359 121.232V125H287.303V121.496C287.303 120.832 287.199 120.348 286.991 120.044C286.783 119.732 286.471 119.576 286.055 119.576C285.639 119.576 285.255 119.728 284.903 120.032C284.559 120.328 284.315 120.724 284.171 121.22V125H283.115V118.736H284.075V120.08C284.331 119.616 284.663 119.26 285.071 119.012C285.479 118.756 285.939 118.628 286.451 118.628C286.971 118.628 287.387 118.772 287.699 119.06C288.011 119.34 288.203 119.704 288.275 120.152C288.555 119.656 288.895 119.28 289.295 119.024C289.695 118.76 290.151 118.628 290.663 118.628C291.023 118.628 291.323 118.696 291.563 118.832C291.811 118.96 292.007 119.144 292.151 119.384C292.295 119.616 292.399 119.892 292.463 120.212C292.527 120.532 292.559 120.88 292.559 121.256V125ZM296.733 125.12C296.261 125.12 295.829 125.036 295.437 124.868C295.053 124.692 294.717 124.456 294.429 124.16C294.149 123.856 293.929 123.508 293.769 123.116C293.617 122.724 293.541 122.308 293.541 121.868C293.541 121.276 293.677 120.736 293.949 120.248C294.221 119.76 294.597 119.368 295.077 119.072C295.565 118.776 296.121 118.628 296.745 118.628C297.377 118.628 297.925 118.78 298.389 119.084C298.861 119.38 299.225 119.772 299.481 120.26C299.745 120.74 299.877 121.26 299.877 121.82C299.877 121.9 299.873 121.98 299.865 122.06C299.865 122.132 299.861 122.188 299.853 122.228H294.657C294.689 122.636 294.801 123 294.993 123.32C295.193 123.632 295.449 123.88 295.761 124.064C296.073 124.24 296.409 124.328 296.769 124.328C297.153 124.328 297.513 124.232 297.849 124.04C298.193 123.848 298.429 123.596 298.557 123.284L299.469 123.536C299.333 123.84 299.129 124.112 298.857 124.352C298.593 124.592 298.277 124.78 297.909 124.916C297.549 125.052 297.157 125.12 296.733 125.12ZM294.621 121.496H298.893C298.861 121.088 298.745 120.728 298.545 120.416C298.345 120.104 298.089 119.86 297.777 119.684C297.465 119.508 297.121 119.42 296.745 119.42C296.377 119.42 296.037 119.508 295.725 119.684C295.413 119.86 295.157 120.104 294.957 120.416C294.765 120.728 294.653 121.088 294.621 121.496ZM306.247 125H305.191V121.496C305.191 120.832 305.087 120.348 304.879 120.044C304.679 119.732 304.371 119.576 303.955 119.576C303.667 119.576 303.379 119.648 303.091 119.792C302.811 119.936 302.559 120.132 302.335 120.38C302.119 120.62 301.963 120.9 301.867 121.22V125H300.811V118.736H301.771V120.08C301.939 119.784 302.155 119.528 302.419 119.312C302.683 119.096 302.983 118.928 303.319 118.808C303.655 118.688 304.007 118.628 304.375 118.628C304.735 118.628 305.035 118.696 305.275 118.832C305.523 118.96 305.715 119.144 305.851 119.384C305.995 119.616 306.095 119.892 306.151 120.212C306.215 120.532 306.247 120.88 306.247 121.256V125ZM310.83 124.688C310.742 124.728 310.622 124.78 310.47 124.844C310.318 124.908 310.142 124.964 309.942 125.012C309.742 125.06 309.53 125.084 309.306 125.084C309.05 125.084 308.814 125.04 308.598 124.952C308.382 124.856 308.21 124.712 308.082 124.52C307.954 124.32 307.89 124.072 307.89 123.776V119.564H307.038V118.736H307.89V116.648H308.946V118.736H310.35V119.564H308.946V123.452C308.962 123.676 309.038 123.844 309.174 123.956C309.31 124.06 309.47 124.112 309.654 124.112C309.862 124.112 310.054 124.076 310.23 124.004C310.406 123.932 310.522 123.88 310.578 123.848L310.83 124.688ZM320.313 117.44H317.373V125H316.293V117.44H313.353V116.48H320.313V117.44ZM320.436 126.704C320.54 126.712 320.644 126.72 320.748 126.728C320.852 126.744 320.932 126.752 320.988 126.752C321.116 126.752 321.228 126.708 321.324 126.62C321.42 126.532 321.524 126.36 321.636 126.104C321.756 125.856 321.908 125.488 322.092 125L319.44 118.736H320.556L322.668 123.932L324.576 118.736H325.62L322.572 126.644C322.5 126.828 322.392 127 322.248 127.16C322.112 127.328 321.936 127.46 321.72 127.556C321.504 127.652 321.244 127.7 320.94 127.7C320.868 127.7 320.792 127.696 320.712 127.688C320.64 127.68 320.548 127.664 320.436 127.64V126.704ZM329.819 125.12C329.307 125.12 328.851 124.992 328.451 124.736C328.051 124.48 327.735 124.156 327.503 123.764V127.556H326.447V118.736H327.383V119.912C327.631 119.528 327.955 119.22 328.355 118.988C328.755 118.748 329.191 118.628 329.663 118.628C330.095 118.628 330.491 118.716 330.851 118.892C331.211 119.068 331.523 119.308 331.787 119.612C332.051 119.916 332.255 120.264 332.399 120.656C332.551 121.04 332.627 121.444 332.627 121.868C332.627 122.46 332.507 123.004 332.267 123.5C332.035 123.996 331.707 124.392 331.283 124.688C330.859 124.976 330.371 125.12 329.819 125.12ZM329.495 124.208C329.807 124.208 330.087 124.144 330.335 124.016C330.591 123.88 330.807 123.704 330.983 123.488C331.167 123.264 331.307 123.012 331.403 122.732C331.499 122.452 331.547 122.164 331.547 121.868C331.547 121.556 331.491 121.26 331.379 120.98C331.275 120.7 331.123 120.452 330.923 120.236C330.731 120.02 330.503 119.852 330.239 119.732C329.983 119.604 329.703 119.54 329.399 119.54C329.207 119.54 329.007 119.576 328.799 119.648C328.599 119.72 328.407 119.824 328.223 119.96C328.039 120.088 327.883 120.236 327.755 120.404C327.627 120.572 327.543 120.752 327.503 120.944V122.732C327.623 123.004 327.783 123.252 327.983 123.476C328.183 123.7 328.415 123.88 328.679 124.016C328.943 124.144 329.215 124.208 329.495 124.208ZM336.455 125.12C335.983 125.12 335.551 125.036 335.159 124.868C334.775 124.692 334.439 124.456 334.151 124.16C333.871 123.856 333.651 123.508 333.491 123.116C333.339 122.724 333.263 122.308 333.263 121.868C333.263 121.276 333.399 120.736 333.671 120.248C333.943 119.76 334.319 119.368 334.799 119.072C335.287 118.776 335.843 118.628 336.467 118.628C337.099 118.628 337.647 118.78 338.111 119.084C338.583 119.38 338.947 119.772 339.203 120.26C339.467 120.74 339.599 121.26 339.599 121.82C339.599 121.9 339.595 121.98 339.587 122.06C339.587 122.132 339.583 122.188 339.575 122.228H334.379C334.411 122.636 334.523 123 334.715 123.32C334.915 123.632 335.171 123.88 335.483 124.064C335.795 124.24 336.131 124.328 336.491 124.328C336.875 124.328 337.235 124.232 337.571 124.04C337.915 123.848 338.151 123.596 338.279 123.284L339.191 123.536C339.055 123.84 338.851 124.112 338.579 124.352C338.315 124.592 337.999 124.78 337.631 124.916C337.271 125.052 336.879 125.12 336.455 125.12ZM334.343 121.496H338.615C338.583 121.088 338.467 120.728 338.267 120.416C338.067 120.104 337.811 119.86 337.499 119.684C337.187 119.508 336.843 119.42 336.467 119.42C336.099 119.42 335.759 119.508 335.447 119.684C335.135 119.86 334.879 120.104 334.679 120.416C334.487 120.728 334.375 121.088 334.343 121.496Z" fill="#878787"/>
<path d="M247.804 172.447V173.407H242.02V164.887H247.696V165.847H243.1V168.607H247.096V169.507H243.1V172.447H247.804ZM249.346 167.143L251.002 169.447L251.098 169.639L251.206 169.447L252.85 167.143H254.026L251.71 170.287L254.038 173.407H252.862L251.206 171.115L251.098 170.935L251.002 171.115L249.346 173.407H248.17L250.498 170.287L248.182 167.143H249.346ZM258.162 173.527C257.65 173.527 257.194 173.399 256.794 173.143C256.394 172.887 256.078 172.563 255.846 172.171V175.963H254.79V167.143H255.726V168.319C255.974 167.935 256.298 167.627 256.698 167.395C257.098 167.155 257.534 167.035 258.006 167.035C258.438 167.035 258.834 167.123 259.194 167.299C259.554 167.475 259.866 167.715 260.13 168.019C260.394 168.323 260.598 168.671 260.742 169.063C260.894 169.447 260.97 169.851 260.97 170.275C260.97 170.867 260.85 171.411 260.61 171.907C260.378 172.403 260.05 172.799 259.626 173.095C259.202 173.383 258.714 173.527 258.162 173.527ZM257.838 172.615C258.15 172.615 258.43 172.551 258.678 172.423C258.934 172.287 259.15 172.111 259.326 171.895C259.51 171.671 259.65 171.419 259.746 171.139C259.842 170.859 259.89 170.571 259.89 170.275C259.89 169.963 259.834 169.667 259.722 169.387C259.618 169.107 259.466 168.859 259.266 168.643C259.074 168.427 258.846 168.259 258.582 168.139C258.326 168.011 258.046 167.947 257.742 167.947C257.55 167.947 257.35 167.983 257.142 168.055C256.942 168.127 256.75 168.231 256.566 168.367C256.382 168.495 256.226 168.643 256.098 168.811C255.97 168.979 255.886 169.159 255.846 169.351V171.139C255.966 171.411 256.126 171.659 256.326 171.883C256.526 172.107 256.758 172.287 257.022 172.423C257.286 172.551 257.558 172.615 257.838 172.615ZM264.799 173.527C264.327 173.527 263.895 173.443 263.503 173.275C263.119 173.099 262.783 172.863 262.495 172.567C262.215 172.263 261.995 171.915 261.835 171.523C261.683 171.131 261.607 170.715 261.607 170.275C261.607 169.683 261.743 169.143 262.015 168.655C262.287 168.167 262.663 167.775 263.143 167.479C263.631 167.183 264.187 167.035 264.811 167.035C265.443 167.035 265.991 167.187 266.455 167.491C266.927 167.787 267.291 168.179 267.547 168.667C267.811 169.147 267.943 169.667 267.943 170.227C267.943 170.307 267.939 170.387 267.931 170.467C267.931 170.539 267.927 170.595 267.919 170.635H262.723C262.755 171.043 262.867 171.407 263.059 171.727C263.259 172.039 263.515 172.287 263.827 172.471C264.139 172.647 264.475 172.735 264.835 172.735C265.219 172.735 265.579 172.639 265.915 172.447C266.259 172.255 266.495 172.003 266.623 171.691L267.535 171.943C267.399 172.247 267.195 172.519 266.923 172.759C266.659 172.999 266.343 173.187 265.975 173.323C265.615 173.459 265.223 173.527 264.799 173.527ZM262.687 169.903H266.959C266.927 169.495 266.811 169.135 266.611 168.823C266.411 168.511 266.155 168.267 265.843 168.091C265.531 167.915 265.187 167.827 264.811 167.827C264.443 167.827 264.103 167.915 263.791 168.091C263.479 168.267 263.223 168.511 263.023 168.823C262.831 169.135 262.719 169.495 262.687 169.903ZM272.188 168.067C271.66 168.075 271.192 168.211 270.784 168.475C270.384 168.731 270.1 169.087 269.932 169.543V173.407H268.876V167.143H269.86V168.595C270.076 168.163 270.36 167.815 270.712 167.551C271.072 167.279 271.448 167.127 271.84 167.095C271.92 167.095 271.988 167.095 272.044 167.095C272.1 167.095 272.148 167.099 272.188 167.107V168.067ZM272.996 173.407V167.143H274.052V173.407H272.996ZM272.996 165.967V164.647H274.052V165.967H272.996ZM278.293 173.527C277.821 173.527 277.389 173.443 276.997 173.275C276.613 173.099 276.277 172.863 275.989 172.567C275.709 172.263 275.489 171.915 275.329 171.523C275.177 171.131 275.101 170.715 275.101 170.275C275.101 169.683 275.237 169.143 275.509 168.655C275.781 168.167 276.157 167.775 276.637 167.479C277.125 167.183 277.681 167.035 278.305 167.035C278.937 167.035 279.485 167.187 279.949 167.491C280.421 167.787 280.785 168.179 281.041 168.667C281.305 169.147 281.437 169.667 281.437 170.227C281.437 170.307 281.433 170.387 281.425 170.467C281.425 170.539 281.421 170.595 281.413 170.635H276.217C276.249 171.043 276.361 171.407 276.553 171.727C276.753 172.039 277.009 172.287 277.321 172.471C277.633 172.647 277.969 172.735 278.329 172.735C278.713 172.735 279.073 172.639 279.409 172.447C279.753 172.255 279.989 172.003 280.117 171.691L281.029 171.943C280.893 172.247 280.689 172.519 280.417 172.759C280.153 172.999 279.837 173.187 279.469 173.323C279.109 173.459 278.717 173.527 278.293 173.527ZM276.181 169.903H280.453C280.421 169.495 280.305 169.135 280.105 168.823C279.905 168.511 279.649 168.267 279.337 168.091C279.025 167.915 278.681 167.827 278.305 167.827C277.937 167.827 277.597 167.915 277.285 168.091C276.973 168.267 276.717 168.511 276.517 168.823C276.325 169.135 276.213 169.495 276.181 169.903ZM287.807 173.407H286.751V169.903C286.751 169.239 286.647 168.755 286.439 168.451C286.239 168.139 285.931 167.983 285.515 167.983C285.227 167.983 284.939 168.055 284.651 168.199C284.371 168.343 284.119 168.539 283.895 168.787C283.679 169.027 283.523 169.307 283.427 169.627V173.407H282.371V167.143H283.331V168.487C283.499 168.191 283.715 167.935 283.979 167.719C284.243 167.503 284.543 167.335 284.879 167.215C285.215 167.095 285.567 167.035 285.935 167.035C286.295 167.035 286.595 167.103 286.835 167.239C287.083 167.367 287.275 167.551 287.411 167.791C287.555 168.023 287.655 168.299 287.711 168.619C287.775 168.939 287.807 169.287 287.807 169.663V173.407ZM291.981 173.527C291.509 173.527 291.077 173.443 290.685 173.275C290.301 173.099 289.965 172.859 289.677 172.555C289.397 172.251 289.177 171.903 289.017 171.511C288.865 171.119 288.789 170.703 288.789 170.263C288.789 169.671 288.921 169.131 289.185 168.643C289.449 168.155 289.821 167.767 290.301 167.479C290.781 167.183 291.337 167.035 291.969 167.035C292.585 167.035 293.121 167.175 293.577 167.455C294.041 167.727 294.385 168.095 294.609 168.559L293.577 168.883C293.417 168.587 293.193 168.359 292.905 168.199C292.617 168.031 292.297 167.947 291.945 167.947C291.561 167.947 291.209 168.047 290.889 168.247C290.577 168.447 290.329 168.723 290.145 169.075C289.961 169.419 289.869 169.815 289.869 170.263C289.869 170.703 289.961 171.103 290.145 171.463C290.337 171.815 290.589 172.095 290.901 172.303C291.221 172.511 291.573 172.615 291.957 172.615C292.205 172.615 292.441 172.571 292.665 172.483C292.897 172.395 293.097 172.279 293.265 172.135C293.441 171.983 293.561 171.819 293.625 171.643L294.657 171.955C294.529 172.259 294.333 172.531 294.069 172.771C293.813 173.003 293.505 173.187 293.145 173.323C292.793 173.459 292.405 173.527 291.981 173.527ZM298.327 173.527C297.855 173.527 297.423 173.443 297.031 173.275C296.647 173.099 296.311 172.863 296.023 172.567C295.743 172.263 295.523 171.915 295.363 171.523C295.211 171.131 295.135 170.715 295.135 170.275C295.135 169.683 295.271 169.143 295.543 168.655C295.815 168.167 296.191 167.775 296.671 167.479C297.159 167.183 297.715 167.035 298.339 167.035C298.971 167.035 299.519 167.187 299.983 167.491C300.455 167.787 300.819 168.179 301.075 168.667C301.339 169.147 301.471 169.667 301.471 170.227C301.471 170.307 301.467 170.387 301.459 170.467C301.459 170.539 301.455 170.595 301.447 170.635H296.251C296.283 171.043 296.395 171.407 296.587 171.727C296.787 172.039 297.043 172.287 297.355 172.471C297.667 172.647 298.003 172.735 298.363 172.735C298.747 172.735 299.107 172.639 299.443 172.447C299.787 172.255 300.023 172.003 300.151 171.691L301.063 171.943C300.927 172.247 300.723 172.519 300.451 172.759C300.187 172.999 299.871 173.187 299.503 173.323C299.143 173.459 298.751 173.527 298.327 173.527ZM296.215 169.903H300.487C300.455 169.495 300.339 169.135 300.139 168.823C299.939 168.511 299.683 168.267 299.371 168.091C299.059 167.915 298.715 167.827 298.339 167.827C297.971 167.827 297.631 167.915 297.319 168.091C297.007 168.267 296.751 168.511 296.551 168.823C296.359 169.135 296.247 169.495 296.215 169.903Z" fill="#878787"/>
<path d="M371.463 266.756C371.463 267.308 371.911 267.756 372.463 267.756C373.015 267.756 373.463 267.308 373.463 266.756L371.463 266.756ZM371.463 36L371.463 266.756L373.463 266.756L373.463 36L371.463 36Z" fill="#C0DDDD"/>
<path d="M242.02 73V64.48H243.1V72.04H247.852V73H242.02ZM251.262 73.12C250.79 73.12 250.362 73.036 249.978 72.868C249.594 72.692 249.262 72.456 248.982 72.16C248.702 71.856 248.486 71.508 248.334 71.116C248.182 70.724 248.106 70.312 248.106 69.88C248.106 69.44 248.182 69.024 248.334 68.632C248.486 68.24 248.702 67.896 248.982 67.6C249.262 67.296 249.594 67.06 249.978 66.892C250.37 66.716 250.798 66.628 251.262 66.628C251.734 66.628 252.162 66.716 252.546 66.892C252.93 67.06 253.262 67.296 253.542 67.6C253.83 67.896 254.05 68.24 254.202 68.632C254.354 69.024 254.43 69.44 254.43 69.88C254.43 70.312 254.354 70.724 254.202 71.116C254.05 71.508 253.834 71.856 253.554 72.16C253.274 72.456 252.938 72.692 252.546 72.868C252.162 73.036 251.734 73.12 251.262 73.12ZM249.186 69.892C249.186 70.324 249.278 70.716 249.462 71.068C249.654 71.42 249.906 71.7 250.218 71.908C250.53 72.108 250.878 72.208 251.262 72.208C251.646 72.208 251.994 72.104 252.306 71.896C252.626 71.688 252.878 71.408 253.062 71.056C253.254 70.696 253.35 70.3 253.35 69.868C253.35 69.436 253.254 69.044 253.062 68.692C252.878 68.34 252.626 68.06 252.306 67.852C251.994 67.644 251.646 67.54 251.262 67.54C250.878 67.54 250.53 67.648 250.218 67.864C249.906 68.072 249.654 68.352 249.462 68.704C249.278 69.056 249.186 69.452 249.186 69.892ZM258.242 73.12C257.77 73.12 257.338 73.036 256.946 72.868C256.562 72.692 256.226 72.452 255.938 72.148C255.658 71.844 255.438 71.496 255.278 71.104C255.126 70.712 255.05 70.296 255.05 69.856C255.05 69.264 255.182 68.724 255.446 68.236C255.71 67.748 256.082 67.36 256.562 67.072C257.042 66.776 257.598 66.628 258.23 66.628C258.846 66.628 259.382 66.768 259.838 67.048C260.302 67.32 260.646 67.688 260.87 68.152L259.838 68.476C259.678 68.18 259.454 67.952 259.166 67.792C258.878 67.624 258.558 67.54 258.206 67.54C257.822 67.54 257.47 67.64 257.15 67.84C256.838 68.04 256.59 68.316 256.406 68.668C256.222 69.012 256.13 69.408 256.13 69.856C256.13 70.296 256.222 70.696 256.406 71.056C256.598 71.408 256.85 71.688 257.162 71.896C257.482 72.104 257.834 72.208 258.218 72.208C258.466 72.208 258.702 72.164 258.926 72.076C259.158 71.988 259.358 71.872 259.526 71.728C259.702 71.576 259.822 71.412 259.886 71.236L260.918 71.548C260.79 71.852 260.594 72.124 260.33 72.364C260.074 72.596 259.766 72.78 259.406 72.916C259.054 73.052 258.666 73.12 258.242 73.12ZM261.382 71.188C261.382 70.788 261.494 70.444 261.718 70.156C261.95 69.86 262.266 69.632 262.666 69.472C263.066 69.312 263.53 69.232 264.058 69.232C264.338 69.232 264.634 69.256 264.946 69.304C265.258 69.344 265.534 69.408 265.774 69.496V69.04C265.774 68.56 265.63 68.184 265.342 67.912C265.054 67.632 264.646 67.492 264.118 67.492C263.774 67.492 263.442 67.556 263.122 67.684C262.81 67.804 262.478 67.98 262.126 68.212L261.742 67.468C262.15 67.188 262.558 66.98 262.966 66.844C263.374 66.7 263.798 66.628 264.238 66.628C265.038 66.628 265.67 66.852 266.134 67.3C266.598 67.74 266.83 68.356 266.83 69.148V71.8C266.83 71.928 266.854 72.024 266.902 72.088C266.958 72.144 267.046 72.176 267.166 72.184V73C267.062 73.016 266.97 73.028 266.89 73.036C266.818 73.044 266.758 73.048 266.71 73.048C266.462 73.048 266.274 72.98 266.146 72.844C266.026 72.708 265.958 72.564 265.942 72.412L265.918 72.016C265.646 72.368 265.29 72.64 264.85 72.832C264.41 73.024 263.974 73.12 263.542 73.12C263.126 73.12 262.754 73.036 262.426 72.868C262.098 72.692 261.842 72.46 261.658 72.172C261.474 71.876 261.382 71.548 261.382 71.188ZM265.462 71.632C265.558 71.52 265.634 71.408 265.69 71.296C265.746 71.176 265.774 71.076 265.774 70.996V70.216C265.526 70.12 265.266 70.048 264.994 70C264.722 69.944 264.454 69.916 264.19 69.916C263.654 69.916 263.218 70.024 262.882 70.24C262.554 70.448 262.39 70.736 262.39 71.104C262.39 71.304 262.442 71.5 262.546 71.692C262.658 71.876 262.818 72.028 263.026 72.148C263.242 72.268 263.506 72.328 263.818 72.328C264.146 72.328 264.458 72.264 264.754 72.136C265.05 72 265.286 71.832 265.462 71.632ZM271.472 72.688C271.384 72.728 271.264 72.78 271.112 72.844C270.96 72.908 270.784 72.964 270.584 73.012C270.384 73.06 270.172 73.084 269.948 73.084C269.692 73.084 269.456 73.04 269.24 72.952C269.024 72.856 268.852 72.712 268.724 72.52C268.596 72.32 268.532 72.072 268.532 71.776V67.564H267.68V66.736H268.532V64.648H269.588V66.736H270.992V67.564H269.588V71.452C269.604 71.676 269.68 71.844 269.816 71.956C269.952 72.06 270.112 72.112 270.296 72.112C270.504 72.112 270.696 72.076 270.872 72.004C271.048 71.932 271.164 71.88 271.22 71.848L271.472 72.688ZM272.211 73V66.736H273.267V73H272.211ZM272.211 65.56V64.24H273.267V65.56H272.211ZM277.472 73.12C277 73.12 276.572 73.036 276.188 72.868C275.804 72.692 275.472 72.456 275.192 72.16C274.912 71.856 274.696 71.508 274.544 71.116C274.392 70.724 274.316 70.312 274.316 69.88C274.316 69.44 274.392 69.024 274.544 68.632C274.696 68.24 274.912 67.896 275.192 67.6C275.472 67.296 275.804 67.06 276.188 66.892C276.58 66.716 277.008 66.628 277.472 66.628C277.944 66.628 278.372 66.716 278.756 66.892C279.14 67.06 279.472 67.296 279.752 67.6C280.04 67.896 280.26 68.24 280.412 68.632C280.564 69.024 280.64 69.44 280.64 69.88C280.64 70.312 280.564 70.724 280.412 71.116C280.26 71.508 280.044 71.856 279.764 72.16C279.484 72.456 279.148 72.692 278.756 72.868C278.372 73.036 277.944 73.12 277.472 73.12ZM275.396 69.892C275.396 70.324 275.488 70.716 275.672 71.068C275.864 71.42 276.116 71.7 276.428 71.908C276.74 72.108 277.088 72.208 277.472 72.208C277.856 72.208 278.204 72.104 278.516 71.896C278.836 71.688 279.088 71.408 279.272 71.056C279.464 70.696 279.56 70.3 279.56 69.868C279.56 69.436 279.464 69.044 279.272 68.692C279.088 68.34 278.836 68.06 278.516 67.852C278.204 67.644 277.856 67.54 277.472 67.54C277.088 67.54 276.74 67.648 276.428 67.864C276.116 68.072 275.864 68.352 275.672 68.704C275.488 69.056 275.396 69.452 275.396 69.892ZM287.116 73H286.06V69.496C286.06 68.832 285.956 68.348 285.748 68.044C285.548 67.732 285.24 67.576 284.824 67.576C284.536 67.576 284.248 67.648 283.96 67.792C283.68 67.936 283.428 68.132 283.204 68.38C282.988 68.62 282.832 68.9 282.736 69.22V73H281.68V66.736H282.64V68.08C282.808 67.784 283.024 67.528 283.288 67.312C283.552 67.096 283.852 66.928 284.188 66.808C284.524 66.688 284.876 66.628 285.244 66.628C285.604 66.628 285.904 66.696 286.144 66.832C286.392 66.96 286.584 67.144 286.72 67.384C286.864 67.616 286.964 67.892 287.02 68.212C287.084 68.532 287.116 68.88 287.116 69.256V73ZM290.666 73.12C290.146 73.12 289.658 73.036 289.202 72.868C288.746 72.692 288.354 72.432 288.026 72.088L288.434 71.344C288.794 71.68 289.154 71.92 289.514 72.064C289.874 72.208 290.242 72.28 290.618 72.28C291.05 72.28 291.402 72.2 291.674 72.04C291.946 71.872 292.082 71.628 292.082 71.308C292.082 71.076 292.01 70.904 291.866 70.792C291.73 70.68 291.534 70.588 291.278 70.516C291.022 70.436 290.718 70.348 290.366 70.252C289.934 70.124 289.57 69.988 289.274 69.844C288.978 69.7 288.754 69.52 288.602 69.304C288.45 69.088 288.374 68.816 288.374 68.488C288.374 68.088 288.478 67.752 288.686 67.48C288.894 67.2 289.178 66.988 289.538 66.844C289.906 66.7 290.322 66.628 290.786 66.628C291.25 66.628 291.67 66.7 292.046 66.844C292.422 66.988 292.746 67.2 293.018 67.48L292.538 68.212C292.29 67.956 292.018 67.768 291.722 67.648C291.426 67.52 291.094 67.456 290.726 67.456C290.51 67.456 290.298 67.484 290.09 67.54C289.882 67.588 289.71 67.68 289.574 67.816C289.438 67.944 289.37 68.128 289.37 68.368C289.37 68.568 289.422 68.728 289.526 68.848C289.638 68.96 289.798 69.056 290.006 69.136C290.222 69.216 290.482 69.304 290.786 69.4C291.258 69.536 291.666 69.672 292.01 69.808C292.362 69.944 292.634 70.12 292.826 70.336C293.018 70.552 293.114 70.852 293.114 71.236C293.114 71.828 292.89 72.292 292.442 72.628C291.994 72.956 291.402 73.12 290.666 73.12Z" fill="#878787"/>
<defs>
<linearGradient id="paint0_linear_94_251" x1="0" y1="353.716" x2="639.958" y2="353.716" gradientUnits="userSpaceOnUse">
<stop stop-color="#828387"/>
<stop offset="0.01" stop-color="#D0D1D3"/>
<stop offset="0.03" stop-color="#929397"/>
<stop offset="0.07" stop-color="#D1D2D5"/>
<stop offset="0.51" stop-color="#F3F3F4"/>
<stop offset="0.93" stop-color="#D1D2D5"/>
<stop offset="0.97" stop-color="#929397"/>
<stop offset="0.99" stop-color="#E6E6E6"/>
<stop offset="1" stop-color="#828387"/>
</linearGradient>
<linearGradient id="paint1_linear_94_251" x1="272.333" y1="351.572" x2="367.625" y2="351.572" gradientUnits="userSpaceOnUse">
<stop stop-color="#999999"/>
<stop offset="0.1" stop-color="#D8D9DB"/>
<stop offset="0.5" stop-color="#D7D8DB"/>
<stop offset="0.9" stop-color="#D8D9DB"/>
<stop offset="1" stop-color="#999999"/>
</linearGradient>
<linearGradient id="paint2_linear_94_251" x1="319.972" y1="367.932" x2="319.972" y2="359.639" gradientUnits="userSpaceOnUse">
<stop stop-color="#2B2C2E"/>
<stop offset="0.12" stop-color="#3C3D40"/>
<stop offset="0.34" stop-color="#5F6064"/>
<stop offset="0.73" stop-color="#88898D"/>
<stop offset="1" stop-color="#909195"/>
</linearGradient>
<linearGradient id="paint3_linear_94_251" x1="319.972" y1="13.3294" x2="319.972" y2="8.85862" gradientUnits="userSpaceOnUse">
<stop stop-color="#666666"/>
<stop offset="1" stop-color="#010104"/>
</linearGradient>
<linearGradient id="paint4_linear_94_251" x1="319.972" y1="10.3536" x2="319.972" y2="12.1306" gradientUnits="userSpaceOnUse">
<stop stop-color="#0B131C"/>
<stop offset="1" stop-color="#354039"/>
</linearGradient>
<linearGradient id="paint5_linear_94_251" x1="319.972" y1="11.8908" x2="319.972" y2="10.4523" gradientUnits="userSpaceOnUse">
<stop stop-color="#4B4E4F"/>
<stop offset="0.28" stop-color="#3A3D3E"/>
<stop offset="0.55" stop-color="#2F3232"/>
<stop offset="0.76" stop-color="#242727"/>
<stop offset="1" stop-color="#1C201F"/>
</linearGradient>
<linearGradient id="paint6_linear_94_251" x1="320.409" y1="11.637" x2="319.549" y2="10.7765" gradientUnits="userSpaceOnUse">
<stop stop-color="#231F20"/>
<stop offset="0.08" stop-color="#222326"/>
<stop offset="0.2" stop-color="#1F2C37"/>
<stop offset="0.33" stop-color="#1A3D54"/>
<stop offset="0.47" stop-color="#13537C"/>
<stop offset="0.62" stop-color="#0B71AE"/>
<stop offset="0.78" stop-color="#0095EE"/>
<stop offset="0.8" stop-color="#0488D6"/>
<stop offset="0.84" stop-color="#0D689F"/>
<stop offset="0.88" stop-color="#154E72"/>
<stop offset="0.91" stop-color="#1B394E"/>
<stop offset="0.95" stop-color="#1F2B35"/>
<stop offset="0.98" stop-color="#222225"/>
<stop offset="1" stop-color="#231F20"/>
</linearGradient>
<radialGradient id="paint7_radial_94_251" cx="0" cy="0" r="1" gradientUnits="userSpaceOnUse" gradientTransform="translate(319.972 11.1998) scale(0.606592 0.606447)">
<stop stop-color="#231F20"/>
<stop offset="0.2" stop-color="#175168"/>
<stop offset="0.38" stop-color="#0D78A2"/>
<stop offset="0.54" stop-color="#0695CB"/>
<stop offset="0.66" stop-color="#02A7E5"/>
<stop offset="0.73" stop-color="#00ADEE"/>
<stop offset="0.76" stop-color="#02A6E4"/>
<stop offset="0.81" stop-color="#0693C8"/>
<stop offset="0.87" stop-color="#0E749C"/>
<stop offset="0.94" stop-color="#184A5F"/>
<stop offset="1" stop-color="#231F20"/>
</radialGradient>
<linearGradient id="paint8_linear_94_251" x1="309.124" y1="175.067" x2="578.409" y2="175.067" gradientUnits="userSpaceOnUse">
<stop stop-color="#ECF1F2"/>
<stop offset="1" stop-color="#808080"/>
</linearGradient>
</defs>
</svg>
